<?xml version="1.0" encoding="utf-8"?>
<!-- Generator: Adobe Illustrator 23.0.6, SVG Export Plug-In . SVG Version: 6.00 Build 0)  -->
<svg version="1.1" xmlns="http://www.w3.org/2000/svg" xmlns:xlink="http://www.w3.org/1999/xlink" x="0px" y="0px"
	 viewBox="0 0 256 193" style="enable-background:new 0 0 256 193;" xml:space="preserve">
<style type="text/css">
	.st0{display:none;}
	.st1{display:none;fill:#FFFFFF;}
	.st2{display:inline;}
	.st3{fill-rule:evenodd;clip-rule:evenodd;fill:#21CDEC;}
	.st4{fill:#21CDEC;}
	.st5{fill:#A1C240;}
	.st6{fill-rule:evenodd;clip-rule:evenodd;fill:#003053;}
	.st7{fill-rule:evenodd;clip-rule:evenodd;fill:#055459;}
	.st8{fill-rule:evenodd;clip-rule:evenodd;fill:#FF9947;}
	.st9{fill-rule:evenodd;clip-rule:evenodd;fill:#1A1A1A;}
	.st10{fill:#003053;}
</style>
<g id="Layer_1" class="st0">
	<image style="display:inline;overflow:visible;" width="256" height="193" xlink:href="../ingi_screen-12-1.jpg" >
	</image>
</g>
<g id="Layer_2">
	<rect x="24.7" y="24.4" class="st1" width="206.6" height="144.3"/>
</g>
<g id="Layer_3" class="st0">
	<g class="st2">
		<path class="st3" d="M65.1,68.4C49.6,68.4,37,81.1,37,96.6c0,2.2,0.3,4.4,0.8,6.5c-0.1-0.9-0.2-1.9-0.2-2.8
			c0-12.3,10-22.2,22.2-22.2c12.3,0,22.2,10,22.2,22.2c0,12.3-10,22.2-22.2,22.2c-3.6,0-7-0.9-10.1-2.4c4.4,2.9,9.6,4.5,15.3,4.5
			c15.6,0,28.1-12.5,28.1-28S80.6,68.4,65.1,68.4L65.1,68.4z"/>
		<polygon class="st3" points="25.4,113.6 28.5,111.8 30.4,115 27.2,116.8 		"/>
		<polygon class="st3" points="30.7,110.5 33.9,108.7 35.7,111.8 32.6,113.7 		"/>
		<polygon class="st3" points="36.1,107.3 39.3,105.6 41.1,108.8 37.9,110.6 		"/>
		<polygon class="st3" points="41.4,104.3 44.6,102.5 46.5,105.7 43.3,107.5 		"/>
		<polygon class="st3" points="46.8,101.3 50,99.3 51.8,102.6 48.6,104.3 		"/>
		<polygon class="st3" points="52.2,98.2 55.3,96.3 57.2,99.5 54,101.3 		"/>
		<polygon class="st3" points="57.5,95.1 60.7,93.2 62.5,96.3 59.4,98.3 		"/>
		<polygon class="st3" points="49.4,93.3 52.6,91.6 54.4,94.7 51.2,96.6 		"/>
		<polygon class="st3" points="28.5,119.2 31.7,117.3 33.6,120.5 30.4,122.3 		"/>
		<polygon class="st3" points="33.9,116.1 37.1,114.2 38.9,117.3 35.7,119.3 		"/>
		<polygon class="st3" points="39.3,113 42.5,111.1 44.3,114.3 41.1,116.2 		"/>
		<polygon class="st3" points="44.6,109.8 47.8,108 49.7,111.2 46.5,113.1 		"/>
		<polygon class="st3" points="50,106.8 53.2,105 55,108.1 51.8,110 		"/>
		<polygon class="st3" points="55.4,103.7 58.5,101.8 60.4,105 57.2,106.8 		"/>
		<polygon class="st3" points="60.7,100.6 63.9,98.8 65.7,101.8 62.6,103.8 		"/>
		<polygon class="st3" points="58.7,109.6 61.9,107.7 63.8,110.8 60.6,112.7 		"/>
		<polygon class="st3" points="65,95.3 68.1,93.4 70,96.7 66.8,98.5 		"/>
		<polygon class="st4" points="109.1,76.9 109.1,92.8 106.5,92.8 106.5,76.9 101,76.9 101,75.1 114.7,75.1 114.7,76.9 		"/>
		<path class="st4" d="M118.9,75.1h5.8c1,0,1.9,0.1,2.7,0.3c0.8,0.2,1.4,0.6,2,1c0.5,0.4,0.9,1,1.2,1.6c0.3,0.6,0.4,1.3,0.4,2.1
			c0,0.5-0.1,1-0.2,1.4c-0.2,0.4-0.4,0.9-0.6,1.3c-0.3,0.4-0.6,0.8-0.9,1.1s-0.7,0.6-1.1,0.8l3.8,8.2h-2.7l-3.5-7.6h-4.2v7.6H119
			V75.1H118.9z M121.5,76.9v6.4h5.3c0.2-0.2,0.4-0.3,0.6-0.5c0.2-0.2,0.4-0.4,0.5-0.6c0.1-0.3,0.3-0.5,0.4-0.9
			c0.1-0.3,0.1-0.7,0.1-1.2c0-0.6-0.1-1.1-0.3-1.5c-0.2-0.4-0.4-0.7-0.8-1c-0.3-0.3-0.8-0.4-1.2-0.5c-0.5-0.1-1.1-0.2-1.7-0.2H121.5
			L121.5,76.9z"/>
		<path class="st4" d="M147.6,75.1h2.6v12.4c0,0.9-0.2,1.7-0.5,2.4c-0.3,0.7-0.8,1.3-1.4,1.8c-0.6,0.5-1.3,0.9-2.2,1.1
			c-0.9,0.3-1.8,0.4-2.8,0.4s-2-0.1-2.8-0.4c-0.8-0.2-1.6-0.6-2.2-1.1c-0.6-0.5-1.1-1.1-1.4-1.8s-0.5-1.5-0.5-2.4V75.1h2.6v12.4
			c0,0.6,0.1,1.1,0.3,1.6s0.5,0.9,0.9,1.2c0.4,0.3,0.8,0.6,1.4,0.7c0.5,0.2,1.1,0.3,1.8,0.3s1.3-0.1,1.8-0.3c0.5-0.2,1-0.4,1.4-0.7
			c0.4-0.3,0.7-0.7,0.9-1.2s0.3-1,0.3-1.6V75.1H147.6z"/>
		<polygon class="st4" points="155.9,92.8 155.9,75.1 166.4,75.1 166.4,76.9 158.4,76.9 158.4,82.8 165.4,82.8 165.4,84.7 
			158.4,84.7 158.4,90.9 166.4,90.9 166.4,92.8 		"/>
		<polygon class="st4" points="170.9,75.1 173.4,75.1 173.4,90.9 181.4,90.9 181.4,92.8 170.9,92.8 		"/>
		<polygon class="st4" points="184.8,92.8 184.8,90.9 187.2,90.9 187.2,76.9 184.8,76.9 184.8,75.1 192.2,75.1 192.2,76.9 
			189.8,76.9 189.8,90.9 192.2,90.9 192.2,92.8 		"/>
		<polygon class="st4" points="197.3,75.1 199.9,75.1 199.9,75.1 199.9,74.9 209.1,88.8 209.1,75.1 211.7,75.1 211.7,92.8 
			209.1,92.8 199.9,78.9 199.9,92.8 197.3,92.8 		"/>
		<polygon class="st4" points="217.3,92.8 217.3,75.1 227.8,75.1 227.8,76.9 219.9,76.9 219.9,82.8 226.9,82.8 226.9,84.7 
			219.9,84.7 219.9,90.9 227.8,90.9 227.8,92.8 		"/>
		<polygon class="st5" points="106.7,98.6 106.7,109.7 104.9,109.7 104.9,98.6 101,98.6 101,97.2 110.6,97.2 110.6,98.6 		"/>
		<polygon class="st5" points="112.7,109.7 112.7,97.2 120,97.2 120,98.6 114.5,98.6 114.5,102.6 119.4,102.6 119.4,104 114.5,104 
			114.5,108.3 120,108.3 120,109.7 		"/>
		<path class="st5" d="M121.8,103.3c0-1,0.1-1.8,0.4-2.6c0.3-0.8,0.6-1.5,1.1-2c0.5-0.6,1.1-1,1.8-1.3c0.7-0.3,1.5-0.5,2.4-0.5
			c0.3,0,0.6,0,0.8,0.1c0.3,0,0.5,0.1,0.7,0.1c0.2,0.1,0.4,0.1,0.6,0.2c0.2,0.1,0.3,0.1,0.5,0.2l-0.5,1.2c-0.3-0.1-0.6-0.3-1-0.3
			c-0.3-0.1-0.7-0.1-1.2-0.1c-0.6,0-1.1,0.1-1.6,0.3c-0.5,0.2-0.9,0.5-1.2,0.9c-0.3,0.4-0.6,0.9-0.8,1.6c-0.2,0.6-0.3,1.4-0.3,2.3
			c0,0.9,0.1,1.7,0.3,2.3c0.2,0.6,0.5,1.2,0.8,1.6c0.4,0.4,0.8,0.7,1.3,0.9c0.5,0.2,1.1,0.3,1.7,0.3c0.3,0,0.5,0,0.7-0.1
			c0.2,0,0.4-0.1,0.6-0.1c0.2-0.1,0.4-0.1,0.5-0.2c0.2-0.1,0.3-0.1,0.4-0.2l0.4,1.2c-0.3,0.2-0.7,0.4-1.2,0.5s-1,0.2-1.7,0.2
			c-0.9,0-1.7-0.2-2.4-0.5c-0.7-0.3-1.3-0.7-1.8-1.3s-0.9-1.2-1.1-2C121.9,105.3,121.8,104.3,121.8,103.3L121.8,103.3z"/>
		<polygon class="st5" points="132.4,97.2 134.2,97.2 134.2,102.8 140.2,102.8 140.2,97.2 142,97.2 142,109.7 140.2,109.7 
			140.2,104.1 134.2,104.1 134.2,109.7 132.4,109.7 		"/>
		<polygon class="st5" points="145.1,97.2 146.9,97.2 146.9,97.2 146.9,97.2 153.3,106.8 153.3,97.2 155.1,97.2 155.1,109.7 
			153.3,109.7 146.9,100 146.9,109.7 145.1,109.7 		"/>
		<path class="st5" d="M157.6,103.5c0-1,0.1-1.9,0.4-2.7c0.3-0.8,0.6-1.5,1.1-2c0.5-0.6,1.1-1,1.7-1.3c0.7-0.3,1.4-0.5,2.2-0.5
			s1.5,0.2,2.2,0.5c0.7,0.3,1.2,0.7,1.7,1.3s0.9,1.2,1.1,2c0.3,0.8,0.4,1.7,0.4,2.7s-0.1,1.9-0.4,2.7c-0.3,0.8-0.6,1.5-1.1,2
			c-0.5,0.6-1.1,1-1.7,1.3c-0.7,0.3-1.4,0.4-2.2,0.4s-1.5-0.1-2.2-0.4s-1.2-0.7-1.7-1.3s-0.8-1.2-1.1-2
			C157.7,105.3,157.6,104.3,157.6,103.5L157.6,103.5z M159.4,103.5c0,0.9,0.1,1.6,0.3,2.2s0.4,1.2,0.7,1.6c0.3,0.4,0.7,0.7,1.2,1
			c0.4,0.2,0.9,0.3,1.5,0.3c0.5,0,1-0.1,1.5-0.3c0.4-0.2,0.8-0.5,1.2-1c0.3-0.4,0.6-1,0.7-1.6c0.2-0.6,0.3-1.4,0.3-2.2
			c0-0.9-0.1-1.6-0.3-2.2c-0.2-0.6-0.4-1.2-0.7-1.6s-0.7-0.7-1.2-1c-0.5-0.2-0.9-0.3-1.5-0.3c-0.5,0-1,0.1-1.5,0.3
			c-0.4,0.2-0.8,0.5-1.2,1c-0.3,0.4-0.6,1-0.7,1.6C159.4,101.8,159.4,102.6,159.4,103.5L159.4,103.5z"/>
		<polygon class="st5" points="170.9,97.2 172.8,97.2 172.8,108.3 178.4,108.3 178.4,109.7 170.9,109.7 		"/>
		<path class="st5" d="M179.4,103.5c0-1,0.1-1.9,0.4-2.7c0.3-0.8,0.6-1.5,1.1-2c0.5-0.6,1.1-1,1.7-1.3c0.7-0.3,1.4-0.5,2.2-0.5
			s1.5,0.2,2.2,0.5c0.7,0.3,1.2,0.7,1.7,1.3s0.9,1.2,1.1,2c0.3,0.8,0.4,1.7,0.4,2.7s-0.1,1.9-0.4,2.7c-0.3,0.8-0.6,1.5-1.1,2
			c-0.5,0.6-1.1,1-1.7,1.3c-0.7,0.3-1.4,0.4-2.2,0.4s-1.5-0.1-2.2-0.4s-1.2-0.7-1.7-1.3s-0.8-1.2-1.1-2
			C179.7,105.3,179.4,104.3,179.4,103.5L179.4,103.5z M181.3,103.5c0,0.9,0.1,1.6,0.3,2.2s0.4,1.2,0.7,1.6c0.3,0.4,0.7,0.7,1.2,1
			c0.4,0.2,0.9,0.3,1.5,0.3c0.5,0,1-0.1,1.5-0.3c0.4-0.2,0.8-0.5,1.2-1c0.3-0.4,0.6-1,0.7-1.6c0.2-0.6,0.3-1.4,0.3-2.2
			c0-0.9-0.1-1.6-0.3-2.2c-0.2-0.6-0.4-1.2-0.7-1.6s-0.7-0.7-1.2-1c-0.5-0.2-0.9-0.3-1.5-0.3c-0.5,0-1,0.1-1.5,0.3
			c-0.4,0.2-0.8,0.5-1.2,1c-0.3,0.4-0.6,1-0.7,1.6C181.4,101.8,181.3,102.6,181.3,103.5L181.3,103.5z"/>
		<path class="st5" d="M197.8,103.3h4.5v5.7c-0.6,0.3-1.2,0.4-1.9,0.6c-0.6,0.1-1.3,0.2-2.1,0.2c-0.9,0-1.8-0.2-2.5-0.5
			c-0.7-0.3-1.4-0.8-1.9-1.4c-0.5-0.6-0.9-1.3-1.2-2c-0.3-0.8-0.4-1.6-0.4-2.5c0-1,0.2-1.9,0.4-2.7c0.3-0.8,0.7-1.5,1.3-2
			c0.6-0.6,1.2-1,2-1.3c0.8-0.3,1.7-0.5,2.7-0.5c0.3,0,0.6,0,0.9,0c0.3,0,0.5,0.1,0.7,0.1c0.2,0.1,0.4,0.1,0.6,0.2
			c0.2,0.1,0.3,0.1,0.5,0.2l-0.4,1.3c-0.3-0.1-0.6-0.2-1-0.3s-0.8-0.1-1.3-0.1c-0.7,0-1.4,0.1-2,0.3c-0.6,0.2-1.1,0.5-1.5,1
			c-0.4,0.4-0.7,1-0.9,1.6s-0.3,1.4-0.3,2.2c0,0.7,0.1,1.3,0.3,1.9c0.2,0.6,0.5,1.2,0.8,1.6c0.4,0.5,0.8,0.8,1.3,1.1
			c0.5,0.3,1.1,0.4,1.8,0.4c0.4,0,0.8,0,1.1-0.1c0.3,0,0.7-0.1,1-0.2v-3.5h-2.7v-1.3H197.8z"/>
		<polygon class="st5" points="204.8,109.7 204.8,108.3 206.4,108.3 206.4,98.6 204.8,98.6 204.8,97.2 209.9,97.2 209.9,98.6 
			208.3,98.6 208.3,108.3 209.9,108.3 209.9,109.7 		"/>
		<polygon class="st5" points="212.7,109.7 212.7,97.2 220.1,97.2 220.1,98.6 214.4,98.6 214.4,102.6 219.4,102.6 219.4,104 
			214.4,104 214.4,108.3 220.1,108.3 220.1,109.7 		"/>
		<path class="st5" d="M229.9,106.3c0,0.5-0.1,1-0.3,1.4s-0.5,0.8-0.9,1.1c-0.4,0.3-0.8,0.5-1.3,0.7c-0.5,0.2-1.1,0.2-1.7,0.2
			c-0.4,0-0.7,0-1.1-0.1c-0.4,0-0.7-0.1-1.1-0.1c-0.3-0.1-0.7-0.1-1-0.2s-0.6-0.2-0.8-0.3l0.5-1.3c0.3,0.1,0.5,0.2,0.8,0.3
			s0.5,0.2,0.8,0.2c0.3,0.1,0.6,0.1,0.9,0.2c0.3,0,0.6,0.1,1,0.1s0.7,0,1-0.1s0.6-0.2,0.8-0.4c0.2-0.2,0.4-0.4,0.5-0.7
			c0.1-0.3,0.2-0.5,0.2-0.9c0-0.3-0.1-0.6-0.2-0.8c-0.1-0.2-0.3-0.4-0.6-0.6s-0.6-0.4-0.9-0.5c-0.4-0.2-0.8-0.3-1.2-0.4
			c-0.5-0.1-0.9-0.3-1.4-0.6c-0.4-0.2-0.8-0.5-1.1-0.8c-0.3-0.3-0.6-0.6-0.7-1c-0.2-0.4-0.3-0.8-0.3-1.3s0.1-1,0.3-1.4
			s0.5-0.8,0.8-1.1c0.4-0.3,0.8-0.5,1.3-0.7c0.5-0.2,1.1-0.2,1.7-0.2c0.4,0,0.8,0,1.1,0.1c0.4,0.1,0.7,0.1,1,0.2s0.6,0.2,0.8,0.2
			c0.3,0.1,0.5,0.2,0.6,0.2l-0.4,1.4c-0.3-0.1-0.5-0.2-0.7-0.3s-0.5-0.2-0.7-0.2c-0.2-0.1-0.5-0.1-0.8-0.2c-0.3,0-0.6-0.1-0.9-0.1
			c-0.4,0-0.7,0.1-1.1,0.2c-0.3,0.1-0.6,0.2-0.8,0.4c-0.2,0.2-0.4,0.4-0.5,0.7c-0.1,0.3-0.2,0.5-0.2,0.8c0,0.5,0.2,1,0.6,1.3
			c0.4,0.4,1.1,0.7,2,1c0.6,0.2,1.2,0.4,1.7,0.7c0.5,0.2,0.9,0.5,1.2,0.8c0.3,0.3,0.6,0.6,0.7,1C229.8,105.5,229.9,106,229.9,106.3
			L229.9,106.3z"/>
		<path d="M104.5,120.3c0-0.4,0.1-0.8,0.2-1.1c0.1-0.3,0.3-0.6,0.5-0.8c0.2-0.2,0.4-0.4,0.7-0.5c0.3-0.1,0.6-0.2,1-0.2
			c0.3,0,0.5,0,0.7,0.1s0.3,0.1,0.5,0.2l-0.2,0.4c-0.1-0.1-0.3-0.1-0.5-0.2c-0.2,0-0.4-0.1-0.5-0.1c-0.3,0-0.5,0-0.7,0.1
			s-0.4,0.2-0.6,0.4c-0.2,0.2-0.3,0.4-0.4,0.7c-0.1,0.3-0.1,0.6-0.1,1s0,0.7,0.1,1c0.1,0.3,0.2,0.5,0.4,0.7c0.2,0.2,0.4,0.3,0.6,0.4
			s0.5,0.1,0.8,0.1c0.1,0,0.2,0,0.3,0c0.1,0,0.2,0,0.3-0.1c0.1,0,0.2,0,0.2-0.1c0.1,0,0.1-0.1,0.2-0.1l0.1,0.3
			c-0.1,0.1-0.3,0.2-0.5,0.2c-0.2,0.1-0.5,0.1-0.7,0.1c-0.4,0-0.7-0.1-1-0.2s-0.5-0.3-0.8-0.5c-0.2-0.2-0.4-0.5-0.5-0.8
			C104.5,121.1,104.5,120.7,104.5,120.3L104.5,120.3z"/>
		<path d="M109.1,121c0-0.3,0-0.6,0.1-0.8c0.1-0.2,0.2-0.4,0.3-0.6c0.1-0.2,0.3-0.3,0.5-0.4c0.2-0.1,0.5-0.1,0.7-0.1
			c0.3,0,0.5,0,0.7,0.1s0.4,0.2,0.6,0.4c0.2,0.2,0.3,0.4,0.4,0.6c0.1,0.2,0.1,0.5,0.1,0.8c0,0.3,0,0.6-0.1,0.8
			c-0.1,0.2-0.2,0.4-0.4,0.6c-0.2,0.2-0.3,0.3-0.6,0.4c-0.2,0.1-0.5,0.1-0.7,0.1c-0.3,0-0.5,0-0.7-0.1s-0.4-0.2-0.5-0.4
			c-0.1-0.2-0.3-0.4-0.3-0.6C109.1,121.6,109.1,121.3,109.1,121L109.1,121z M109.6,121c0,0.3,0,0.5,0.1,0.7c0.1,0.2,0.1,0.4,0.2,0.5
			s0.2,0.2,0.4,0.3c0.1,0.1,0.3,0.1,0.5,0.1s0.4,0,0.5-0.1c0.2-0.1,0.3-0.2,0.4-0.3s0.2-0.3,0.3-0.5c0.1-0.2,0.1-0.4,0.1-0.7
			c0-0.3,0-0.5-0.1-0.7c-0.1-0.2-0.2-0.4-0.3-0.5c-0.1-0.1-0.2-0.2-0.4-0.2c-0.2-0.1-0.3-0.1-0.5-0.1s-0.4,0-0.5,0.1
			c-0.2,0.1-0.3,0.2-0.4,0.3s-0.2,0.3-0.2,0.5C109.6,120.5,109.6,120.8,109.6,121L109.6,121z"/>
		<path d="M113.9,119.1h0.5v0.3c0.2-0.1,0.4-0.3,0.6-0.3c0.2-0.1,0.5-0.1,0.7-0.1c0.3,0,0.5,0,0.7,0.1s0.3,0.2,0.4,0.3
			c0.2-0.1,0.4-0.2,0.6-0.3s0.5-0.1,0.7-0.1s0.4,0,0.5,0.1c0.2,0,0.3,0.1,0.4,0.2s0.2,0.2,0.2,0.4c0.1,0.2,0.1,0.4,0.1,0.7v2.4h-0.5
			v-2.4c0-0.2,0-0.3-0.1-0.5c0-0.1-0.1-0.2-0.2-0.3c0.1,0,0,0-0.1-0.1c-0.1,0-0.2-0.1-0.3-0.1c-0.2,0-0.4,0-0.6,0.1
			s-0.4,0.2-0.5,0.3v0.1v0.1v2.8h-0.5v-2.8c0-0.2-0.1-0.4-0.2-0.5s-0.3-0.1-0.6-0.1c-0.2,0-0.5,0-0.7,0.1s-0.4,0.2-0.6,0.3v3h-0.5
			L113.9,119.1L113.9,119.1z"/>
		<path d="M120.9,119.1h0.5v0.3c0.2-0.1,0.4-0.3,0.6-0.3c0.2-0.1,0.5-0.1,0.7-0.1c0.3,0,0.5,0,0.7,0.1s0.3,0.2,0.4,0.3
			c0.2-0.1,0.4-0.2,0.6-0.3s0.5-0.1,0.7-0.1s0.4,0,0.5,0.1c0.2,0,0.3,0.1,0.4,0.2s0.2,0.2,0.2,0.4c0.1,0.2,0.1,0.4,0.1,0.7v2.4h-0.5
			v-2.4c0-0.2,0-0.3-0.1-0.5c0-0.1-0.1-0.2-0.2-0.3s-0.2-0.1-0.3-0.2c-0.1,0-0.2-0.1-0.3-0.1c-0.2,0-0.4,0-0.6,0.1s-0.4,0.2-0.5,0.3
			v0.1v0.1v2.8h-0.5v-2.8c0-0.2-0.1-0.4-0.2-0.5s-0.3-0.1-0.6-0.1c-0.2,0-0.5,0-0.7,0.1s-0.4,0.2-0.6,0.3v3h-0.5v-3.6H120.9z"/>
		<path d="M128.1,119.1h0.5v3.8h-0.5V119.1L128.1,119.1z M128,117.6h0.7v0.6H128V117.6L128,117.6z"/>
		<path d="M129.7,119.1h0.6v-1l0.5-0.1v1.1h1.2v0.5h-1.2v2.3c0,0.1,0,0.3,0,0.4s0.1,0.2,0.1,0.2c0,0.1,0.1,0.1,0.2,0.1
			c0.1,0,0.2,0,0.3,0c0.1,0,0.1,0,0.2,0c0.1,0,0.1,0,0.2,0c0.1,0,0.1,0,0.2,0c0.1,0,0.1,0,0.1,0v0.4c-0.1,0-0.2,0.1-0.3,0.1
			c-0.1,0-0.3,0-0.4,0c-0.2,0-0.3,0-0.5,0c-0.1,0-0.3-0.1-0.3-0.2c-0.1-0.1-0.2-0.2-0.2-0.4c0-0.1-0.1-0.3-0.1-0.6v-2.3h-0.7
			L129.7,119.1L129.7,119.1z"/>
		<path d="M133.3,119.1h0.5v0.3c0.2-0.1,0.4-0.3,0.6-0.3c0.2-0.1,0.5-0.1,0.7-0.1c0.3,0,0.5,0,0.7,0.1s0.3,0.2,0.4,0.3
			c0.2-0.1,0.4-0.2,0.6-0.3s0.5-0.1,0.7-0.1s0.4,0,0.5,0.1c0.2,0,0.3,0.1,0.4,0.2c0.1,0.1,0.2,0.2,0.2,0.4c0.1,0.2,0.1,0.4,0.1,0.7
			v2.4h-0.5v-2.4c0-0.2,0-0.3-0.1-0.5c0-0.1-0.1-0.2-0.2-0.3c-0.1-0.1-0.2-0.1-0.3-0.2c-0.1,0-0.2-0.1-0.3-0.1c-0.2,0-0.4,0-0.6,0.1
			s-0.4,0.2-0.5,0.3v0.1v0.1v2.8h-0.5v-2.8c0-0.2-0.1-0.4-0.2-0.5c-0.1-0.1-0.3-0.1-0.6-0.1c-0.2,0-0.5,0-0.7,0.1s-0.4,0.2-0.6,0.3
			v3h-0.5v-3.6H133.3z"/>
		<path d="M140.6,121L140.6,121c0,0.3,0,0.5,0.1,0.7c0.1,0.2,0.1,0.3,0.2,0.5c0.1,0.1,0.2,0.2,0.4,0.3s0.4,0.1,0.6,0.1
			c0.1,0,0.3,0,0.4,0c0.1,0,0.2,0,0.3-0.1c0.1,0,0.2,0,0.2-0.1c0.1,0,0.1-0.1,0.2-0.1l0.2,0.4c-0.2,0.1-0.3,0.1-0.6,0.2
			c-0.2,0-0.5,0.1-0.7,0.1c-0.3,0-0.6,0-0.8-0.1s-0.4-0.2-0.6-0.4c-0.2-0.2-0.3-0.4-0.3-0.6c-0.1-0.2-0.1-0.5-0.1-0.8
			c0-0.3,0-0.6,0.1-0.8c0.1-0.2,0.2-0.5,0.3-0.6c0.1-0.2,0.3-0.3,0.5-0.4c0.2-0.1,0.4-0.1,0.7-0.1c0.2,0,0.4,0,0.6,0.1
			s0.3,0.2,0.5,0.3c0.1,0.1,0.2,0.3,0.3,0.5c0.1,0.2,0.1,0.4,0.1,0.6v0.4h-2.6V121z M141.8,119.5c-0.2,0-0.3,0-0.4,0.1
			c-0.1,0-0.2,0.1-0.4,0.2c-0.1,0.1-0.2,0.2-0.3,0.3c-0.1,0.1-0.1,0.3-0.1,0.5h2.1c0-0.2,0-0.4-0.1-0.5c-0.1-0.1-0.1-0.2-0.2-0.3
			c-0.1-0.1-0.2-0.1-0.3-0.2C142.1,119.5,142,119.5,141.8,119.5L141.8,119.5z"/>
		<path d="M144.7,119.1h0.5v0.4c0.2-0.2,0.4-0.3,0.6-0.4s0.5-0.1,0.7-0.1s0.4,0,0.6,0.1s0.3,0.1,0.4,0.2c0.1,0.1,0.2,0.3,0.2,0.4
			c0,0.2,0.1,0.4,0.1,0.6v2.5h-0.5v-2.5c0-0.2,0-0.3-0.1-0.4c0-0.1-0.1-0.2-0.2-0.3c-0.1-0.1-0.2-0.1-0.3-0.2c-0.1,0-0.2,0-0.4,0
			s-0.5,0-0.7,0.1s-0.4,0.2-0.6,0.3v3h-0.5v-3.7H144.7z"/>
		<path d="M148.8,119.1h0.6v-1l0.5-0.1v1.1h1.2v0.5h-1.2v2.3c0,0.1,0,0.3,0,0.4s0.1,0.2,0.1,0.2c0,0.1,0.1,0.1,0.2,0.1
			c0.1,0,0.2,0,0.3,0s0.1,0,0.2,0c0.1,0,0.1,0,0.2,0c0.1,0,0.1,0,0.2,0c0.1,0,0.1,0,0.1,0v0.4c-0.1,0-0.2,0.1-0.3,0.1s-0.3,0-0.4,0
			c-0.2,0-0.3,0-0.5,0c-0.1,0-0.3-0.1-0.3-0.2c-0.1-0.1-0.2-0.2-0.2-0.4c0-0.1-0.1-0.3-0.1-0.6v-2.3h-0.7L148.8,119.1L148.8,119.1z"
			/>
		<polygon points="152.4,122.3 153.1,122.3 153.1,122.8 152.4,122.8 		"/>
		<path d="M156.3,120.3c0-0.4,0.1-0.8,0.2-1.1c0.1-0.3,0.3-0.6,0.5-0.8c0.2-0.2,0.4-0.4,0.7-0.5s0.6-0.2,1-0.2c0.3,0,0.5,0,0.7,0.1
			s0.3,0.1,0.5,0.2l-0.2,0.4c-0.1-0.1-0.3-0.1-0.5-0.2c-0.2,0-0.4-0.1-0.5-0.1c-0.3,0-0.5,0-0.7,0.1s-0.4,0.2-0.6,0.4
			c-0.2,0.2-0.3,0.4-0.4,0.7c-0.1,0.3-0.1,0.6-0.1,1s0,0.7,0.1,1c0.1,0.3,0.2,0.5,0.4,0.7c0.2,0.2,0.4,0.3,0.6,0.4
			c0.2,0.1,0.5,0.1,0.8,0.1c0.1,0,0.2,0,0.3,0s0.2,0,0.3-0.1c0.1,0,0.2,0,0.2-0.1c0.1,0,0.1-0.1,0.2-0.1l0.1,0.3
			c-0.1,0.1-0.3,0.2-0.5,0.2c-0.2,0.1-0.5,0.1-0.7,0.1c-0.4,0-0.7-0.1-1-0.2s-0.5-0.3-0.8-0.5c-0.2-0.2-0.4-0.5-0.5-0.8
			C156.3,121.1,156.3,120.7,156.3,120.3L156.3,120.3z"/>
		<path d="M160.9,121c0-0.3,0-0.6,0.1-0.8c0.1-0.2,0.2-0.4,0.3-0.6s0.3-0.3,0.5-0.4c0.2-0.1,0.5-0.1,0.7-0.1c0.3,0,0.5,0,0.7,0.1
			s0.4,0.2,0.6,0.4c0.2,0.2,0.3,0.4,0.4,0.6c0.1,0.2,0.1,0.5,0.1,0.8c0,0.3,0,0.6-0.1,0.8c-0.1,0.2-0.2,0.4-0.4,0.6
			c-0.2,0.2-0.3,0.3-0.6,0.4c-0.2,0.1-0.5,0.1-0.7,0.1c-0.3,0-0.5,0-0.7-0.1s-0.4-0.2-0.5-0.4c-0.1-0.2-0.3-0.4-0.3-0.6
			C160.9,121.6,160.9,121.3,160.9,121L160.9,121z M161.4,121c0,0.3,0,0.5,0.1,0.7c0.1,0.2,0.1,0.4,0.2,0.5c0.1,0.1,0.2,0.2,0.4,0.3
			c0.1,0.1,0.3,0.1,0.5,0.1s0.4,0,0.5-0.1c0.2-0.1,0.3-0.2,0.4-0.3c0.1-0.1,0.2-0.3,0.3-0.5c0.1-0.2,0.1-0.4,0.1-0.7
			c0-0.3,0-0.5-0.1-0.7c-0.1-0.2-0.2-0.4-0.3-0.5s-0.3-0.2-0.4-0.3c-0.2-0.1-0.3-0.1-0.5-0.1s-0.4,0-0.5,0.1
			c-0.2,0.1-0.3,0.2-0.4,0.3c-0.1,0.1-0.2,0.3-0.2,0.5C161.4,120.5,161.4,120.8,161.4,121L161.4,121z"/>
		<path d="M168.8,122.8h-0.5v-0.4c-0.2,0.2-0.4,0.3-0.6,0.4c-0.2,0.1-0.5,0.1-0.7,0.1s-0.4,0-0.5-0.1c-0.1,0-0.3-0.1-0.4-0.2
			c-0.1-0.1-0.2-0.2-0.2-0.4c-0.1-0.2-0.1-0.4-0.1-0.7V119h0.5v2.5c0,0.2,0,0.3,0,0.4c0,0.1,0.1,0.2,0.1,0.3
			c0.1,0.1,0.1,0.1,0.2,0.2c0.1,0,0.2,0,0.3,0c0.2,0,0.5,0,0.7-0.1s0.4-0.2,0.6-0.3v-3h0.5L168.8,122.8L168.8,122.8z"/>
		<path d="M170.3,119.1h0.5v0.5c0.2-0.2,0.3-0.3,0.5-0.4s0.4-0.1,0.6-0.1c0.1,0,0.1,0,0.2,0c0.1,0,0.1,0,0.2,0l-0.1,0.5
			c-0.1,0-0.1,0-0.2,0c-0.1,0-0.1,0-0.2,0c-0.2,0-0.3,0-0.5,0.1s-0.3,0.2-0.4,0.4v2.8h-0.5v-3.8H170.3z"/>
		<path d="M172.7,119.1h0.6v-1l0.5-0.1v1.1h1.2v0.5h-1.2v2.3c0,0.1,0,0.3,0,0.4s0.1,0.2,0.1,0.2c0,0.1,0.1,0.1,0.2,0.1
			c0.1,0,0.2,0,0.3,0s0.1,0,0.2,0c0.1,0,0.1,0,0.2,0c0.1,0,0.1,0,0.2,0c0.1,0,0.1,0,0.1,0v0.4c-0.1,0-0.2,0.1-0.3,0.1s-0.3,0-0.4,0
			c-0.2,0-0.3,0-0.5,0c-0.1,0-0.3-0.1-0.3-0.2c-0.1-0.1-0.2-0.2-0.2-0.4c0-0.1-0.1-0.3-0.1-0.6v-2.3h-0.7L172.7,119.1L172.7,119.1z"
			/>
		<path d="M176.6,121L176.6,121c0,0.3,0,0.5,0.1,0.7c0.1,0.2,0.1,0.3,0.2,0.5c0.1,0.1,0.2,0.2,0.4,0.3s0.4,0.1,0.6,0.1
			c0.1,0,0.3,0,0.4,0c0.1,0,0.2,0,0.3-0.1c0.1,0,0.2,0,0.2-0.1c0.1,0,0.1-0.1,0.2-0.1l0.2,0.4c-0.2,0.1-0.3,0.1-0.6,0.2
			c-0.2,0-0.5,0.1-0.7,0.1c-0.3,0-0.6,0-0.8-0.1s-0.4-0.2-0.6-0.4c-0.2-0.2-0.3-0.4-0.3-0.6c-0.1-0.2-0.1-0.5-0.1-0.8
			c0-0.3,0-0.6,0.1-0.8c0.1-0.2,0.2-0.5,0.3-0.6c0.1-0.2,0.3-0.3,0.5-0.4c0.2-0.1,0.4-0.1,0.7-0.1c0.2,0,0.4,0,0.6,0.1
			c0.2,0.1,0.3,0.2,0.5,0.3c0.1,0.1,0.2,0.3,0.3,0.5c0.1,0.2,0.1,0.4,0.1,0.6v0.4h-2.6V121z M177.8,119.5c-0.2,0-0.3,0-0.4,0.1
			c-0.1,0-0.2,0.1-0.4,0.2c-0.1,0.1-0.2,0.2-0.3,0.3s-0.1,0.3-0.1,0.5h2.1c0-0.2,0-0.4-0.1-0.5s-0.1-0.2-0.2-0.3
			c-0.1-0.1-0.2-0.1-0.3-0.2S177.9,119.5,177.8,119.5L177.8,119.5z"/>
		<path d="M183.1,121.8c0,0.1,0,0.3-0.1,0.4s-0.2,0.2-0.3,0.3s-0.3,0.2-0.4,0.2c-0.2,0.1-0.4,0.1-0.6,0.1c-0.1,0-0.3,0-0.4,0
			c-0.1,0-0.3,0-0.4-0.1c-0.1,0-0.2-0.1-0.3-0.1s-0.2-0.1-0.3-0.1l0.1-0.4c0.1,0,0.2,0.1,0.3,0.1s0.2,0.1,0.3,0.1s0.2,0,0.3,0.1
			c0.1,0,0.3,0,0.4,0c0.1,0,0.3,0,0.4,0c0.1,0,0.2-0.1,0.3-0.1c0.1-0.1,0.1-0.1,0.2-0.2c0-0.1,0.1-0.2,0.1-0.2c0-0.1,0-0.2-0.1-0.3
			c0-0.1-0.1-0.1-0.2-0.2c-0.1-0.1-0.2-0.1-0.3-0.2c-0.1,0-0.3-0.1-0.4-0.1c-0.2,0-0.3-0.1-0.5-0.2c-0.2-0.1-0.3-0.2-0.4-0.2
			c-0.1-0.1-0.2-0.2-0.3-0.3s-0.1-0.2-0.1-0.3c0-0.2,0-0.3,0.1-0.4s0.2-0.2,0.3-0.3s0.3-0.2,0.4-0.2c0.2,0,0.4-0.1,0.6-0.1
			c0.3,0,0.5,0,0.7,0.1s0.4,0.1,0.5,0.2l-0.1,0.4c-0.1,0-0.2-0.1-0.2-0.1c-0.1,0-0.2-0.1-0.2-0.1c-0.1,0-0.2,0-0.3-0.1
			c-0.1,0-0.2,0-0.4,0c-0.3,0-0.5,0.1-0.6,0.2c-0.1,0.1-0.2,0.2-0.2,0.4c0,0.1,0,0.1,0,0.2s0.1,0.1,0.1,0.2c0.1,0.1,0.1,0.1,0.3,0.2
			c0.1,0.1,0.2,0.1,0.4,0.1c0.2,0.1,0.5,0.1,0.6,0.2c0.2,0.1,0.3,0.2,0.4,0.3c0.1,0.1,0.2,0.2,0.3,0.3
			C183.1,121.7,183.1,121.8,183.1,121.8L183.1,121.8z"/>
		<path d="M185.8,123.1c-0.1,0.3-0.2,0.5-0.3,0.7c-0.1,0.2-0.2,0.3-0.3,0.4s-0.2,0.2-0.3,0.2s-0.3,0.1-0.4,0.1c-0.1,0-0.1,0-0.2,0
			c-0.1,0-0.1,0-0.2,0l0.1-0.4c0,0,0,0,0.1,0h0.1h0.1h0.1c0.1,0,0.2,0,0.3,0s0.1-0.1,0.2-0.1c0.1-0.1,0.1-0.2,0.2-0.3
			c0.1-0.1,0.1-0.3,0.2-0.5l-1.4-3.9h0.5l1.1,3.3l1.2-3.3h0.5L185.8,123.1L185.8,123.1L185.8,123.1z"/>
		<polygon points="188.1,122.3 188.7,122.3 188.7,122.8 188.1,122.8 		"/>
		<path d="M191.9,120.3c0-0.4,0.1-0.8,0.2-1.1c0.1-0.3,0.3-0.6,0.5-0.8c0.2-0.2,0.4-0.4,0.7-0.5s0.6-0.2,1-0.2c0.3,0,0.5,0,0.7,0.1
			s0.3,0.1,0.5,0.2l-0.2,0.4c-0.1-0.1-0.3-0.1-0.5-0.2c-0.2,0-0.4-0.1-0.5-0.1c-0.3,0-0.5,0-0.7,0.1s-0.4,0.2-0.6,0.4
			c-0.2,0.2-0.3,0.4-0.4,0.7c-0.1,0.3-0.1,0.6-0.1,1s0,0.7,0.1,1c0.1,0.3,0.2,0.5,0.4,0.7c0.2,0.2,0.4,0.3,0.6,0.4
			c0.2,0.1,0.5,0.1,0.8,0.1c0.1,0,0.2,0,0.3,0s0.2,0,0.3-0.1c0.1,0,0.2,0,0.2-0.1c0.1,0,0.1-0.1,0.2-0.1l0.1,0.3
			c-0.1,0.1-0.3,0.2-0.5,0.2c-0.2,0.1-0.5,0.1-0.7,0.1c-0.4,0-0.7-0.1-1-0.2s-0.5-0.3-0.8-0.5c-0.2-0.2-0.4-0.5-0.5-0.8
			C191.9,121.1,191.9,120.7,191.9,120.3L191.9,120.3z"/>
		<path d="M196.4,121c0-0.3,0-0.6,0.1-0.8c0.1-0.2,0.2-0.4,0.3-0.6s0.3-0.3,0.5-0.4c0.2-0.1,0.5-0.1,0.7-0.1c0.3,0,0.5,0,0.7,0.1
			s0.4,0.2,0.6,0.4c0.2,0.2,0.3,0.4,0.4,0.6c0.1,0.2,0.1,0.5,0.1,0.8c0,0.3,0,0.6-0.1,0.8c-0.1,0.2-0.2,0.4-0.4,0.6
			c-0.2,0.2-0.3,0.3-0.6,0.4c-0.2,0.1-0.5,0.1-0.7,0.1c-0.3,0-0.5,0-0.7-0.1s-0.4-0.2-0.5-0.4c-0.1-0.2-0.3-0.4-0.3-0.6
			C196.4,121.6,196.4,121.3,196.4,121L196.4,121z M196.9,121c0,0.3,0,0.5,0.1,0.7c0.1,0.2,0.1,0.4,0.2,0.5c0.1,0.1,0.2,0.2,0.4,0.3
			c0.1,0.1,0.3,0.1,0.5,0.1s0.4,0,0.5-0.1c0.2-0.1,0.3-0.2,0.4-0.3c0.1-0.1,0.2-0.3,0.3-0.5c0.1-0.2,0.1-0.4,0.1-0.7
			c0-0.3,0-0.5-0.1-0.7c-0.1-0.2-0.2-0.4-0.3-0.5s-0.3-0.2-0.4-0.3c-0.2-0.1-0.3-0.1-0.5-0.1s-0.4,0-0.5,0.1
			c-0.2,0.1-0.3,0.2-0.4,0.3c-0.1,0.1-0.2,0.3-0.2,0.5C196.9,120.5,196.9,120.8,196.9,121L196.9,121z"/>
		<path d="M201.3,119.1h0.5v0.4c0.2-0.2,0.4-0.3,0.6-0.4c0.2-0.1,0.5-0.1,0.7-0.1s0.4,0,0.6,0.1c0.2,0.1,0.3,0.1,0.4,0.2
			c0.1,0.1,0.2,0.3,0.2,0.4c0,0.2,0.1,0.4,0.1,0.6v2.5h-0.5v-2.5c0-0.2,0-0.3-0.1-0.4c0-0.1-0.1-0.2-0.2-0.3
			c-0.1-0.1-0.2-0.1-0.3-0.2c-0.1,0-0.2,0-0.4,0s-0.5,0-0.7,0.1s-0.4,0.2-0.6,0.3v3h-0.5v-3.7H201.3z"/>
		<path d="M205.4,119.1h0.6v-0.2c0-0.3,0-0.5,0.1-0.7c0.1-0.2,0.2-0.3,0.3-0.5c0.1-0.1,0.3-0.2,0.5-0.3s0.5-0.1,0.7-0.1
			c0.1,0,0.2,0,0.3,0s0.2,0,0.3,0s0.2,0,0.3,0s0.2,0,0.2,0v0.4c-0.1,0-0.1,0-0.2,0c-0.1,0-0.2,0-0.3,0s-0.2,0-0.3,0s-0.2,0-0.3,0
			c-0.2,0-0.4,0-0.6,0.1c-0.2,0-0.3,0.1-0.4,0.2c-0.1,0.1-0.2,0.2-0.2,0.3c-0.1,0.1-0.1,0.3-0.1,0.5v0.2h1.1v0.6h-0.9v3.3h-0.5v-3.3
			h-0.7L205.4,119.1L205.4,119.1z M208.4,119.1h0.5v3.8h-0.5V119.1L208.4,119.1z"/>
		<path d="M213.2,122.8v-0.3c-0.1,0.1-0.2,0.1-0.2,0.2c-0.1,0-0.2,0.1-0.2,0.1c-0.1,0-0.2,0.1-0.3,0.1s-0.2,0-0.4,0s-0.5,0-0.7-0.1
			s-0.4-0.2-0.5-0.4c-0.1-0.2-0.2-0.4-0.3-0.6s-0.1-0.5-0.1-0.8c0-0.3,0-0.6,0.1-0.8c0.1-0.2,0.2-0.4,0.3-0.6s0.3-0.3,0.5-0.4
			c0.2-0.1,0.4-0.1,0.7-0.1c0.1,0,0.3,0,0.4,0c0.1,0,0.2,0,0.3,0.1c0.1,0,0.2,0.1,0.3,0.1s0.2,0.1,0.2,0.2v-2h0.5v5.3H213.2
			L213.2,122.8z M210.9,121c0,0.3,0,0.5,0.1,0.7c0,0.2,0.1,0.4,0.2,0.5c0.1,0.1,0.2,0.2,0.4,0.3s0.3,0.1,0.6,0.1
			c0.2,0,0.4,0,0.5-0.1c0.2-0.1,0.3-0.1,0.4-0.2v-2.5c-0.1-0.1-0.3-0.2-0.4-0.2c-0.2-0.1-0.3-0.1-0.5-0.1s-0.4,0-0.6,0.1
			c-0.2,0.1-0.3,0.2-0.4,0.3c-0.1,0.1-0.2,0.3-0.2,0.5C210.9,120.5,210.9,120.8,210.9,121L210.9,121z"/>
		<path d="M215.4,121L215.4,121c0,0.3,0,0.5,0.1,0.7c0.1,0.2,0.1,0.3,0.2,0.5c0.1,0.1,0.2,0.2,0.4,0.3s0.4,0.1,0.6,0.1
			c0.1,0,0.3,0,0.4,0c0.1,0,0.2,0,0.3-0.1c0.1,0,0.2,0,0.2-0.1c0.1,0,0.1-0.1,0.2-0.1l0.2,0.4c-0.2,0.1-0.3,0.1-0.6,0.2
			c-0.2,0-0.5,0.1-0.7,0.1c-0.3,0-0.6,0-0.8-0.1s-0.4-0.2-0.6-0.4c-0.2-0.2-0.3-0.4-0.3-0.6c-0.1-0.2-0.1-0.5-0.1-0.8
			c0-0.3,0-0.6,0.1-0.8c0.1-0.2,0.2-0.5,0.3-0.6c0.1-0.2,0.3-0.3,0.5-0.4c0.2-0.1,0.4-0.1,0.7-0.1c0.2,0,0.4,0,0.6,0.1
			c0.2,0.1,0.3,0.2,0.5,0.3c0.1,0.1,0.2,0.3,0.3,0.5c0.1,0.2,0.1,0.4,0.1,0.6v0.4h-2.6V121z M216.7,119.5c-0.2,0-0.3,0-0.4,0.1
			c-0.1,0-0.2,0.1-0.4,0.2c-0.1,0.1-0.2,0.2-0.3,0.3s-0.1,0.3-0.1,0.5h2.1c0-0.2,0-0.4-0.1-0.5s-0.1-0.2-0.2-0.3
			c-0.1-0.1-0.2-0.1-0.3-0.2S216.8,119.5,216.7,119.5L216.7,119.5z"/>
		<path d="M219.4,119.1h0.5v0.4c0.2-0.2,0.4-0.3,0.6-0.4c0.2-0.1,0.5-0.1,0.7-0.1s0.4,0,0.6,0.1c0.2,0.1,0.3,0.1,0.4,0.2
			c0.1,0.1,0.2,0.3,0.2,0.4c0,0.2,0.1,0.4,0.1,0.6v2.5h-0.5v-2.5c0-0.2,0-0.3-0.1-0.4c0-0.1-0.1-0.2-0.2-0.3
			c-0.1-0.1-0.2-0.1-0.3-0.2c-0.1,0-0.2,0-0.4,0s-0.5,0-0.7,0.1s-0.4,0.2-0.6,0.3v3h-0.5v-3.7H219.4z"/>
		<path d="M223.9,121c0-0.3,0-0.6,0.1-0.8c0.1-0.2,0.2-0.4,0.4-0.6s0.3-0.3,0.6-0.4c0.2-0.1,0.5-0.1,0.8-0.1c0.2,0,0.4,0,0.6,0.1
			c0.2,0,0.3,0.1,0.4,0.2l-0.2,0.2c0,0-0.1,0-0.1-0.1c-0.1,0-0.1,0-0.2-0.1c-0.1,0-0.1,0-0.2,0c-0.1,0-0.2,0-0.3,0
			c-0.2,0-0.4,0-0.6,0.1c-0.2,0.1-0.3,0.2-0.4,0.3c-0.1,0.1-0.2,0.3-0.3,0.5c-0.1,0.2-0.1,0.4-0.1,0.7c0,0.3,0,0.5,0.1,0.7
			c0.1,0.2,0.2,0.4,0.3,0.5s0.3,0.2,0.4,0.3c0.2,0.1,0.4,0.1,0.6,0.1c0.2,0,0.4,0,0.6-0.1c0.2,0,0.3-0.1,0.4-0.1l0.2,0.4
			c-0.1,0.1-0.3,0.1-0.5,0.2c-0.2,0-0.4,0.1-0.7,0.1s-0.6,0-0.8-0.1s-0.4-0.2-0.6-0.4c-0.2-0.2-0.3-0.4-0.4-0.6
			C223.9,121.6,223.9,121.3,223.9,121L223.9,121z"/>
		<path d="M228.1,121L228.1,121c0,0.3,0,0.5,0.1,0.7c0.1,0.2,0.1,0.3,0.2,0.5c0.1,0.1,0.2,0.2,0.4,0.3s0.4,0.1,0.6,0.1
			c0.1,0,0.3,0,0.4,0c0.1,0,0.2,0,0.3-0.1c0.1,0,0.2,0,0.2-0.1c0.1,0,0.1-0.1,0.2-0.1l0.2,0.4c-0.2,0.1-0.3,0.1-0.6,0.2
			c-0.2,0-0.5,0.1-0.7,0.1c-0.3,0-0.6,0-0.8-0.1s-0.4-0.2-0.6-0.4c-0.2-0.2-0.3-0.4-0.3-0.6c-0.1-0.2-0.1-0.5-0.1-0.8
			c0-0.3,0-0.6,0.1-0.8c0.1-0.2,0.2-0.5,0.3-0.6c0.1-0.2,0.3-0.3,0.5-0.4c0.2-0.1,0.4-0.1,0.7-0.1c0.2,0,0.4,0,0.6,0.1
			c0.2,0.1,0.3,0.2,0.5,0.3c0.1,0.1,0.2,0.3,0.3,0.5c0.1,0.2,0.1,0.4,0.1,0.6v0.4h-2.6V121z M229.4,119.5c-0.2,0-0.3,0-0.4,0.1
			c-0.1,0-0.2,0.1-0.4,0.2c-0.1,0.1-0.2,0.2-0.3,0.3s-0.1,0.3-0.1,0.5h2.1c0-0.2,0-0.4-0.1-0.5s-0.1-0.2-0.2-0.3
			c-0.1-0.1-0.2-0.1-0.3-0.2S229.4,119.5,229.4,119.5L229.4,119.5z"/>
	</g>
</g>
<g id="Layer_4">
	<g>
		<path class="st6" d="M84.8,40.8c28.5-21.1,57-21.7,85.5,0c0,13.6,0,27.3,0,40.9c-4.2,17.2-18.8,30.6-42.3,40.6
			C102.5,112,89.8,98,84.8,81.7C84.8,68,84.8,54.4,84.8,40.8L84.8,40.8z M127.9,111.1c13.5-6.3,27.9-15.9,32.1-30.7
			c0-11.4,0-22.9,0-34.3c-21.9-14.9-42.9-14.5-64.9,0.1c0,11.3,0,22.6,0,33.9C100.4,95.3,113.6,104.7,127.9,111.1L127.9,111.1z"/>
		<path class="st7" d="M70.6,82c-2.3,3.1-2.4,6.9,1.7,8.5C75.2,88.3,74.5,83.4,70.6,82L70.6,82z"/>
		<path class="st7" d="M79.1,87.4c-3.7,1-6.1,4-3.9,7.7C79,95.1,81.3,90.9,79.1,87.4L79.1,87.4z"/>
		<path class="st7" d="M65.6,92.6c1,3.7,4,6.1,7.7,3.9C73.4,92.7,69.1,90.3,65.6,92.6L65.6,92.6z"/>
		<path class="st7" d="M69.2,100.1c1.5,3.5,4.7,5.6,8.1,3C76.9,99.3,72.4,97.4,69.2,100.1L69.2,100.1z"/>
		<path class="st7" d="M72.8,106.8c2,3.2,5.6,4.8,8.5,1.6C80.3,104.8,75.6,103.7,72.8,106.8L72.8,106.8z"/>
		<path class="st7" d="M77.9,112.7c2,3.2,5.6,4.8,8.5,1.6C85.4,110.7,80.6,109.6,77.9,112.7L77.9,112.7z"/>
		<path class="st7" d="M83.5,118.6c2.5,2.9,6.2,3.8,8.6,0.2C90.6,115.4,85.7,115.1,83.5,118.6L83.5,118.6z"/>
		<path class="st7" d="M89.7,123.9c3.2,2.2,7,2.1,8.4-2C95.7,119.1,90.9,120,89.7,123.9L89.7,123.9z"/>
		<path class="st7" d="M96.6,127.6c3.3,1.9,7.1,1.6,8.3-2.5C102.3,122.4,97.6,123.6,96.6,127.6L96.6,127.6z"/>
		<path class="st7" d="M104.2,130.5c3.3,1.9,7.1,1.6,8.3-2.5C109.9,125.2,105.2,126.5,104.2,130.5L104.2,130.5z"/>
		<path class="st7" d="M82.1,93.6c-3.7,1-6.1,4-3.9,7.7C82,101.4,84.4,97.1,82.1,93.6L82.1,93.6z"/>
		<path class="st7" d="M85.2,98.9c-3.4,1.7-5.2,5.1-2.4,8.3C86.5,106.5,88,101.9,85.2,98.9L85.2,98.9z"/>
		<path class="st7" d="M88.3,103.9c-3,2.4-4.1,6.1-0.6,8.6C91.2,111.1,91.7,106.3,88.3,103.9L88.3,103.9z"/>
		<path class="st7" d="M92.5,108.1c-2.7,2.7-3.3,6.5,0.5,8.6C96.3,114.9,96.2,110,92.5,108.1L92.5,108.1z"/>
		<path class="st7" d="M98,111.8c-2.7,2.7-3.3,6.5,0.5,8.6C101.7,118.7,101.7,113.8,98,111.8L98,111.8z"/>
		<path class="st7" d="M103,114.8c-2.2,3.1-2.1,7,2,8.4C107.8,120.9,106.9,116.1,103,114.8L103,114.8z"/>
		<path class="st7" d="M108,118c-0.9,3.7,0.5,7.3,4.8,7.2C114.7,121.9,112.1,117.7,108,118L108,118z"/>
		<polygon class="st7" points="111.9,124.5 119.9,125.8 119.9,127.3 111.9,128.1 111.9,124.5 		"/>
		<path class="st7" d="M185.4,82c2.3,3.1,2.4,6.9-1.7,8.5C180.7,88.3,181.5,83.4,185.4,82L185.4,82z"/>
		<path class="st7" d="M176.8,87.4c3.7,1,6.1,4,3.9,7.7C177,95.1,174.6,90.9,176.8,87.4L176.8,87.4z"/>
		<path class="st7" d="M190.3,92.6c-1,3.7-4,6.1-7.7,3.9C182.5,92.7,186.8,90.3,190.3,92.6L190.3,92.6z"/>
		<path class="st7" d="M186.7,100.1c-1.5,3.5-4.7,5.6-8.1,3C179,99.3,183.5,97.4,186.7,100.1L186.7,100.1z"/>
		<path class="st7" d="M183.1,106.8c-2,3.2-5.6,4.8-8.5,1.6C175.6,104.8,180.4,103.7,183.1,106.8L183.1,106.8z"/>
		<path class="st7" d="M178,112.7c-2,3.2-5.6,4.8-8.5,1.6C170.6,110.7,175.3,109.6,178,112.7L178,112.7z"/>
		<path class="st7" d="M172.4,118.6c-2.5,2.9-6.2,3.8-8.6,0.2C165.3,115.4,170.2,115.1,172.4,118.6L172.4,118.6z"/>
		<path class="st7" d="M166.3,123.9c-3.2,2.2-7,2.1-8.4-2C160.2,119.1,165,120,166.3,123.9L166.3,123.9z"/>
		<path class="st7" d="M159.4,127.6c-3.3,1.9-7.1,1.6-8.3-2.5C153.7,122.4,158.4,123.6,159.4,127.6L159.4,127.6z"/>
		<path class="st7" d="M151.7,130.5c-3.3,1.9-7.1,1.6-8.3-2.5C146,125.2,150.7,126.5,151.7,130.5L151.7,130.5z"/>
		<path class="st7" d="M173.8,93.6c3.7,1,6.1,4,3.9,7.7C173.9,101.4,171.6,97.1,173.8,93.6L173.8,93.6z"/>
		<path class="st7" d="M170.8,98.9c3.4,1.7,5.2,5.1,2.4,8.3C169.5,106.5,167.9,101.9,170.8,98.9L170.8,98.9z"/>
		<path class="st7" d="M167.6,103.9c3,2.4,4.1,6.1,0.6,8.6C164.8,111.1,164.2,106.3,167.6,103.9L167.6,103.9z"/>
		<path class="st7" d="M163.4,108.1c2.7,2.7,3.3,6.5-0.5,8.6C159.7,114.9,159.7,110,163.4,108.1L163.4,108.1z"/>
		<path class="st7" d="M157.9,111.8c2.7,2.7,3.3,6.5-0.5,8.6C154.2,118.7,154.3,113.8,157.9,111.8L157.9,111.8z"/>
		<path class="st7" d="M153,114.8c2.2,3.1,2.1,7-2,8.4C148.1,120.9,149,116.1,153,114.8L153,114.8z"/>
		<path class="st7" d="M148,118c0.9,3.7-0.5,7.3-4.8,7.2C141.3,121.9,143.8,117.7,148,118L148,118z"/>
		<polygon class="st7" points="144,124.5 136.1,125.8 136.1,127.3 144,128.1 144,124.5 		"/>
		<path class="st8" d="M127.9,44.9c0.6,0.1,1.2,0.3,1.8,0.6v2.6c0,0.3,0.3,0.6,0.6,0.6h0c0.3,0,0.6-0.3,0.6-0.6v-1.7
			c0.9,0.9,1.4,2.1,1.4,3.4c0,0.1,0,0.2,0,0.3h0.5c0.3,0,0.5,0.2,0.5,0.5v0c0,0.3-0.2,0.5-0.5,0.5h-10.8c-0.3,0-0.5-0.2-0.5-0.5v0
			c0-0.3,0.2-0.5,0.5-0.5h0.5c0-0.1,0-0.2,0-0.3c0-1.3,0.5-2.5,1.4-3.4v1.7c0,0.3,0.3,0.6,0.6,0.6h0c0.3,0,0.6-0.3,0.6-0.6v-2.6
			c0.5-0.3,1.1-0.5,1.7-0.6v3.9c0,0.3,0.3,0.6,0.6,0.6h0c0.3,0,0.6-0.3,0.6-0.6V44.9L127.9,44.9z"/>
		<path class="st9" d="M127.3,56.3c2.5,0,4.5-2,4.5-4.5c0-0.1,0-0.2,0-0.4c-0.2,2.3-2.1,4.1-4.5,4.1c-2.4,0-4.3-1.8-4.5-4.1
			c0,0.1,0,0.2,0,0.4C122.8,54.3,124.9,56.3,127.3,56.3L127.3,56.3z"/>
		<path class="st9" d="M130.3,56.8c-5.2,0.2-8.2,4.4-16.3-3.2c2.1,4.7,5.4,6.9,9.7,7.1c4.2,0.1,7.8-4.3,17.1,2.3
			C138.4,58.4,132.9,56.6,130.3,56.8L130.3,56.8z"/>
		<path class="st9" d="M113.8,51c0.3,0,0.5-0.3,0.4-0.6c0-0.3-0.3-0.5-0.6-0.4c-0.3,0-0.5,0.3-0.4,0.6C113.3,50.8,113.6,51,113.8,51
			L113.8,51z"/>
		<path class="st9" d="M114.6,52.5c0.2-0.1,0.5-0.2,0.7-0.4l0.6,0.5l0.6-0.8l-0.6-0.5c0.1-0.2,0.2-0.5,0.2-0.7l0.8-0.1l-0.1-1
			l-0.8,0.1c-0.1-0.2-0.2-0.5-0.4-0.7l0.5-0.6l-0.8-0.6l-0.5,0.6c-0.2-0.1-0.5-0.2-0.7-0.2l-0.1-0.8l-1,0.1l0.1,0.8
			c-0.2,0.1-0.5,0.2-0.7,0.4l-0.6-0.5l-0.6,0.8l0.6,0.5c-0.1,0.2-0.2,0.5-0.2,0.7l-0.8,0.1l0.1,1l0.8-0.1c0.1,0.2,0.2,0.5,0.4,0.7
			l-0.5,0.6l0.8,0.6l0.5-0.6c0.2,0.1,0.5,0.2,0.7,0.2l0.1,0.8l1-0.1L114.6,52.5L114.6,52.5z M114,51.8c0.7-0.1,1.2-0.8,1.1-1.5
			c-0.1-0.7-0.8-1.2-1.5-1.1c-0.7,0.1-1.2,0.8-1.1,1.5C112.6,51.3,113.2,51.9,114,51.8L114,51.8z"/>
		<path class="st9" d="M116,65.9l2.2,1.3l-1.6,2.8c-0.2,0-0.4,0-0.6,0c-2.6,0-4.8,2.1-4.8,4.8c0,2.6,2.1,4.8,4.8,4.8
			c2.6,0,4.8-2.1,4.8-4.8c0-1.4-0.6-2.7-1.6-3.6l1.5-2.5l3,1.7v4.4v4.4l-3.8,2.2l-3.8,2.2l-3.8-2.2l-3.8-2.2v-4.4v-4.4l3.8-2.2
			L116,65.9L116,65.9z"/>
		<path class="st8" d="M116.3,71.9c0.3,0,0.6,0.1,0.9,0.3v1.3c0,0.2,0.1,0.3,0.3,0.3h0c0.2,0,0.3-0.1,0.3-0.3v-0.8
			c0.4,0.4,0.7,1,0.7,1.7c0,0.1,0,0.1,0,0.2h0.3c0.1,0,0.3,0.1,0.3,0.3v0c0,0.1-0.1,0.3-0.3,0.3h-5.4c-0.1,0-0.3-0.1-0.3-0.3v0
			c0-0.1,0.1-0.3,0.3-0.3h0.3c0-0.1,0-0.1,0-0.2c0-0.7,0.3-1.3,0.7-1.7v0.8c0,0.2,0.1,0.3,0.3,0.3h0c0.2,0,0.3-0.1,0.3-0.3v-1.3
			c0.3-0.1,0.6-0.2,0.9-0.3v1.9c0,0.2,0.1,0.3,0.3,0.3l0,0c0.2,0,0.3-0.1,0.3-0.3V71.9L116.3,71.9z"/>
		<path class="st9" d="M116,77.7c1.2,0,2.2-1,2.2-2.2c0-0.2,0-0.3,0-0.5h-4.4c0,0.1,0,0.3,0,0.5C113.7,76.7,114.7,77.7,116,77.7
			L116,77.7z"/>
		<path class="st8" d="M139.9,65.9c0.8,0.1,1.6,0.3,2.3,0.7v3.3c0,0.4,0.3,0.7,0.7,0.7h0c0.4,0,0.7-0.3,0.7-0.7v-2.1
			c1.1,1.1,1.8,2.7,1.8,4.3c0,0.1,0,0.3,0,0.4h0.7c0.4,0,0.7,0.3,0.7,0.7v0c0,0.4-0.3,0.7-0.7,0.7h-13.8c-0.4,0-0.7-0.3-0.7-0.7v0
			c0-0.4,0.3-0.7,0.7-0.7h0.7c0-0.1,0-0.3,0-0.4c0-1.7,0.7-3.2,1.8-4.4v2.2c0,0.4,0.3,0.7,0.7,0.7h0c0.4,0,0.7-0.3,0.7-0.7v-3.3
			c0.7-0.4,1.4-0.6,2.2-0.7v4.9c0,0.4,0.3,0.7,0.7,0.7h0c0.4,0,0.7-0.3,0.7-0.7V65.9L139.9,65.9z"/>
		<path class="st9" d="M139.2,77.1c0.6,0,1.2-0.5,1.2-1.2c0-0.6-0.5-1.2-1.2-1.2c-0.6,0-1.2,0.5-1.2,1.2
			C138,76.6,138.5,77.1,139.2,77.1L139.2,77.1z"/>
		<path class="st9" d="M140.3,80.8c0.6-0.1,1.1-0.4,1.6-0.7l1.3,1.3l1.5-1.5l-1.3-1.3c0.3-0.5,0.5-1,0.6-1.6h1.8v-2.2H144
			c0-0.2-0.1-0.4-0.2-0.5h-2.2c0.3,0.5,0.5,1,0.5,1.6c0,1.6-1.3,2.9-2.9,2.9c-1.6,0-2.9-1.3-2.9-2.9c0-0.6,0.2-1.2,0.5-1.6h-2.2
			c-0.1,0.2-0.1,0.4-0.2,0.6h-1.8v2.2h1.8c0.1,0.6,0.4,1.1,0.7,1.6l-1.3,1.3l1.5,1.5l1.3-1.3c0.5,0.3,1,0.5,1.6,0.6v1.8h2.2V80.8
			L140.3,80.8z"/>
		<path class="st6" d="M96.3,86.6h62.5v13.2H96.3V86.6L96.3,86.6z M117.9,97.6v-1.2h0.6v-6.2h-0.9v0.6h-1.2v-1.9h5.6v1.9h-1.2v-0.6
			h-0.9v6.2h0.6v1.2H117.9L117.9,97.6z M123.2,97.6v-1.2h1.2v1.2H123.2L123.2,97.6z M125.7,97.6v-1.2h0.6v-6.2h-0.6v-1.2h5v1.9h-1.2
			v-0.6h-1.9v2.5h1.9v1.2h-1.9v2.5h1.9v-0.6h1.2v1.9H125.7L125.7,97.6z M131.9,97.6v-1.2h1.2v1.2H131.9L131.9,97.6z M135.4,97.6
			l-1-1v-6.7l1-1h2.4l1,1v1.5h-1.2v-1.2h-1.9v6.2h1.9v-1.2h1.2v1.5l-1,1H135.4L135.4,97.6z"/>
		<path d="M88.6,150.2c0,2.4-0.2,2.4-1.2,2.5l-0.9,0.1c-0.2,0.1-0.1,0.6,0,0.6c1.4,0,2.5-0.1,3.5-0.1c1,0,2,0,3.3,0.1
			c0.2-0.1,0.2-0.5,0-0.6l-0.8-0.1c-1-0.1-1.2-0.2-1.2-2.5v-9.6c0-0.9,0-1,0.6-1h1.3c2.4,0,2.8,0.4,3.1,2.2c0.2,0.2,0.6,0.1,0.7-0.1
			c-0.1-0.7,0.1-2.6,0.3-3.5c0-0.1-0.2-0.1-0.3-0.1c-0.1,0-0.2,0-0.3,0.1c-0.3,0.5-0.6,0.6-1.7,0.6h-9.1c-1.5,0-1.8,0-1.9-0.6
			c0-0.1-0.1-0.1-0.2-0.1c-0.1,0-0.2,0-0.2,0.1c-0.2,0.8-0.5,2.2-0.9,3.4c0.1,0.2,0.6,0.3,0.7,0.2c0.8-1.8,1.4-2.1,3.5-2.1H88
			c0.6,0,0.6,0,0.6,1V150.2L88.6,150.2z"/>
		<path d="M103.4,147.9c0.6,0,0.7,0,0.9,0.6l1,3c0.3,0.9,0.2,1.1-0.6,1.2l-0.5,0.1c-0.1,0.1-0.1,0.5,0.1,0.7c0.8,0,1.8-0.1,2.7-0.1
			c1.2,0,2,0,2.9,0.1c0.2-0.1,0.2-0.5,0-0.7l-0.3-0.1c-1.1-0.2-1.2-0.4-1.8-1.8l-3.2-9.3c-0.4-1-0.6-2.1-1-3.1
			c-0.1-0.1-0.2-0.2-0.4-0.2c0,0-0.8,0.9-1.6,1.1c0.1,0.4-0.2,0.9-0.4,1.6l-3.1,7.9c-0.5,1.2-0.8,2.1-1.1,2.7
			c-0.3,0.7-0.6,0.9-1.2,1l-0.7,0.1c-0.2,0.2-0.1,0.5,0,0.7c0.8,0,1.5-0.1,2.2-0.1c0.9,0,1.7,0,2.4,0.1c0.2-0.1,0.2-0.5,0-0.7
			l-0.6-0.1c-0.8-0.1-0.9-0.2-0.5-1.5l0.9-2.7c0.2-0.6,0.2-0.6,0.8-0.6H103.4L103.4,147.9z M100.8,146.9c-0.5,0-0.6,0-0.4-0.6
			l0.9-2.6c0.4-1,0.6-1.6,0.7-1.8h0c0.1,0.2,0.2,0.6,0.6,1.8l0.9,2.7c0.2,0.5,0.1,0.6-0.5,0.6H100.8L100.8,146.9z"/>
		<path d="M124.4,149.8c0-1.4,0.1-1.5,1-1.7l0.4-0.1c0.2-0.2,0.2-0.5,0-0.6c-1,0-1.7,0.1-2.7,0.1c-1.5,0-2.6,0-3.5-0.1
			c-0.2,0.1-0.2,0.5,0,0.6l0.8,0.1c1.5,0.2,1.5,0.4,1.5,2v0.8c0,0.8-0.1,1.2-0.2,1.4c-0.3,0.3-0.9,0.5-2,0.5c-1.3,0-3.1-0.5-4.3-1.9
			c-1.2-1.4-1.6-3.3-1.6-5.1c0-3.8,1.9-6.6,5.8-6.6c2.2,0,3.8,1.1,4.3,3.2c0.1,0.2,0.6,0.2,0.7,0c-0.1-1.7-0.3-2.9-0.3-3.5
			c-0.3,0-0.9-0.1-1.4-0.2c-0.8-0.2-1.9-0.3-3-0.3c-3.1,0-5.5,1-7.1,2.6c-1.4,1.5-2.1,3.4-2.1,5.2c0,1.9,0.6,3.7,2,5.1
			c1.7,1.7,4.2,2.5,6.9,2.5c1.3,0,2.9-0.3,4.3-0.6c0.4-0.1,0.8-0.2,1.1-0.2c0.1-0.1,0.1-0.2,0-0.3c-0.4-0.2-0.5-0.8-0.5-1.6V149.8
			L124.4,149.8z"/>
		<path d="M135.5,138.3c-4.7,0-8,3.4-8,7.9c0,4,2.9,7.5,7.9,7.5c4.5,0,7.9-3.3,7.9-7.7C143.3,142,140.7,138.3,135.5,138.3
			L135.5,138.3z M135.2,139.2c3.5,0,5.1,3.9,5.1,7.3c0,4.5-2.1,6.4-4.6,6.4c-3.8,0-5.1-4.2-5.1-7.3
			C130.6,140.8,133,139.2,135.2,139.2L135.2,139.2z"/>
		<path d="M147.3,150.2c0,2.4-0.2,2.4-1.2,2.6l-0.5,0.1c-0.2,0.2-0.1,0.6,0,0.7c1,0,2-0.1,3-0.1c1,0,2,0,3,0.1
			c0.2-0.1,0.2-0.5,0-0.7l-0.5-0.1c-1-0.1-1.2-0.2-1.2-2.6v-2.9c0-0.5,0-0.5,0.7-0.5c0.7,0,1,0.1,1.4,0.8c0.5,0.9,1.2,2.1,1.8,3
			c1.4,2.1,2.5,2.9,4.7,2.9c0.8,0,1.2-0.1,1.5-0.1c0.1-0.1,0.1-0.4,0-0.4c-0.3,0-0.9-0.2-1.5-0.7c-1-0.9-2.2-2.8-4-5.8
			c-0.1-0.1-0.1-0.3,0-0.4c1.1-0.4,2.7-1.5,2.7-3.5c0-1.6-0.8-2.7-2-3.3c-1-0.5-2.5-0.8-4.2-0.8c-1.8,0-3.7,0.1-5.1,0.2
			c-0.2,0.1-0.2,0.5,0,0.6l0.6,0.1c1,0.1,1.1,0.4,1.1,2.5V150.2L147.3,150.2z M149.8,140.6c0-1,0-1.1,1.2-1.1c1.9,0,3.1,1.5,3.1,3.3
			c0,2.1-1,3.2-3.2,3.2c-1.1,0-1.1,0-1.1-0.8V140.6L149.8,140.6z"/>
		<path d="M162.2,150.2c0,2.4-0.2,2.4-1.2,2.5l-0.8,0.1c-0.2,0.2-0.1,0.6,0,0.6c1,0,2.4-0.1,3.3-0.1h2.5c2.6,0,4.5,0,5.5,0.1
			c0.3-0.6,0.8-2.3,0.9-3.2c-0.1-0.2-0.5-0.3-0.7-0.1c-0.8,1.8-1.3,2.4-4.1,2.4c-1.9,0-2.3-0.2-2.5-0.5c-0.3-0.4-0.4-1.2-0.4-2.3
			v-2.8c0-0.6,0-0.6,0.5-0.6h1.1c1.9,0,2.3,0,2.5,1l0.2,0.9c0.2,0.1,0.6,0.1,0.7,0c0-0.7-0.1-1.5-0.1-2.3c0-0.8,0-1.6,0.1-2.2
			c-0.1-0.2-0.5-0.2-0.7,0l-0.2,0.8c-0.2,1-0.5,1-2.5,1h-1.1c-0.5,0-0.5,0-0.5-0.6v-3.8c0-1.3,0-1.3,1-1.3h1.5
			c0.6,0,1.3,0.1,1.8,0.2c0.7,0.2,1.1,0.7,1.4,2c0.2,0.1,0.6,0.1,0.7-0.1c-0.1-1-0.3-2.7-0.4-3.1c-0.3,0-1.6,0.1-3,0.1h-4.3
			c-1,0-2,0-2.9-0.1c-0.2,0.1-0.2,0.5,0,0.6l0.4,0c1,0.1,1.2,0.2,1.2,2.6V150.2L162.2,150.2z"/>
		<path class="st10" d="M84.7,163.8c0,1.2-0.1,1.2-0.6,1.3l-0.4,0c-0.1,0.1-0.1,0.3,0,0.3c0.5,0,1.2,0,1.6,0h1.3c1.3,0,2.2,0,2.7,0
			c0.2-0.3,0.4-1.1,0.5-1.6c-0.1-0.1-0.3-0.1-0.4-0.1c-0.4,0.9-0.6,1.2-2,1.2c-0.9,0-1.1-0.1-1.2-0.2c-0.2-0.2-0.2-0.6-0.2-1.1v-1.4
			c0-0.3,0-0.3,0.3-0.3h0.5c1,0,1.1,0,1.2,0.5l0.1,0.4c0.1,0.1,0.3,0.1,0.4,0c0-0.4,0-0.7,0-1.2c0-0.4,0-0.8,0-1.1
			c-0.1-0.1-0.3-0.1-0.4,0l-0.1,0.4c-0.1,0.5-0.3,0.5-1.2,0.5h-0.5c-0.3,0-0.3,0-0.3-0.3v-1.9c0-0.6,0-0.6,0.5-0.6h0.7
			c0.3,0,0.6,0,0.9,0.1c0.4,0.1,0.5,0.4,0.7,1c0.1,0.1,0.3,0,0.4,0c-0.1-0.5-0.1-1.3-0.2-1.5c-0.1,0-0.8,0-1.5,0h-2.1
			c-0.5,0-1,0-1.4,0c-0.1,0-0.1,0.2,0,0.3l0.2,0c0.5,0.1,0.6,0.1,0.6,1.3V163.8L84.7,163.8z"/>
		<path class="st10" d="M91.8,162.6c0-0.4,0-0.5,0.2-0.7c0.1-0.2,0.4-0.3,0.7-0.3c0.7,0,0.9,0.4,0.9,1v1.5c0,0.8,0,0.9-0.4,1l-0.2,0
			c-0.1,0.1-0.1,0.3,0,0.3c0.4,0,0.8,0,1.1,0c0.4,0,0.8,0,1.2,0c0.1,0,0.1-0.2,0-0.3l-0.3,0c-0.4,0-0.4-0.2-0.4-1v-1.7
			c0-0.9-0.4-1.5-1.3-1.5c-0.7,0-1,0.3-1.5,0.5c-0.1,0-0.1,0-0.1-0.1c0-0.1,0-0.3,0-0.5c0,0-0.1-0.1-0.1-0.1c-0.4,0.2-1,0.5-1.4,0.6
			c0,0.1,0,0.2,0,0.3l0.1,0.1c0.3,0.2,0.3,0.3,0.3,0.8v1.6c0,0.8,0,0.9-0.4,1l-0.2,0c-0.1,0.1-0.1,0.3,0,0.3c0.5,0,0.8,0,1.2,0
			c0.4,0,0.8,0,1.2,0c0.1,0,0.1-0.2,0-0.3l-0.2,0c-0.4-0.1-0.4-0.2-0.4-1V162.6L91.8,162.6z"/>
		<path class="st10" d="M100.7,161.8c0.1,0,0.2-0.2,0.2-0.4c0-0.1,0-0.2-0.1-0.2h-1.1c-0.1,0-0.3-0.1-0.5-0.2
			c-0.3-0.1-0.7-0.2-1.1-0.2c-1.2,0-2,0.7-2,1.7c0,0.7,0.4,1.2,0.8,1.3c0,0,0,0.1,0,0.1c0,0.2-0.5,0.5-0.7,0.6
			c-0.1,0.1-0.2,0.2-0.2,0.3c0,0.4,0.3,0.8,0.7,0.9c0.1,0,0,0.2-0.1,0.2c-0.2,0.1-0.6,0.4-0.7,0.5c-0.1,0.2-0.2,0.3-0.2,0.5
			c0,0.6,0.5,1.3,2.1,1.3c0.9,0,1.6-0.3,2.1-0.7c0.3-0.2,0.7-0.8,0.7-1.3c0-1.2-1-1.3-1.8-1.3c-0.5,0-0.9,0-1.2,0
			c-0.5,0-0.6-0.2-0.6-0.4c0-0.2,0.2-0.3,0.3-0.4c0.1,0,0.3,0,0.4,0c1.4,0,2-0.9,2-1.8c0-0.2,0-0.4-0.1-0.5H100.7L100.7,161.8z
			 M98.6,165.9c0.7,0,1.2,0.3,1.2,0.8c0,0.6-0.5,1-1.5,1c-0.8,0-1.4-0.4-1.4-1.1c0-0.3,0.1-0.5,0.3-0.6c0.1-0.1,0.4-0.1,0.7-0.1
			H98.6L98.6,165.9z M97.3,162.4c0-0.8,0.3-1.1,0.7-1.1c0.5,0,0.8,0.5,0.8,1.3c0,0.8-0.3,1.1-0.7,1.1
			C97.7,163.7,97.3,163.2,97.3,162.4L97.3,162.4z"/>
		<path class="st10" d="M102.8,162.1c0-0.5,0-1,0-1.3c0-0.1-0.1-0.1-0.2-0.1c-0.3,0.2-0.9,0.4-1.4,0.6c0,0.1,0,0.2,0,0.3l0.1,0.1
			c0.3,0.2,0.3,0.3,0.3,0.8v1.6c0,0.8,0,0.9-0.4,1l-0.2,0c-0.1,0.1-0.1,0.3,0,0.3c0.4,0,0.8,0,1.2,0c0.4,0,0.8,0,1.2,0
			c0.1,0,0.1-0.2,0-0.3l-0.2,0c-0.4-0.1-0.4-0.2-0.4-1V162.1L102.8,162.1z M102.2,159.8c0.4,0,0.7-0.3,0.7-0.7
			c0-0.4-0.3-0.7-0.7-0.7c-0.4,0-0.7,0.3-0.7,0.7C101.6,159.6,101.8,159.8,102.2,159.8L102.2,159.8z"/>
		<path class="st10" d="M105.8,162.6c0-0.4,0-0.5,0.2-0.7c0.1-0.2,0.4-0.3,0.7-0.3c0.7,0,0.9,0.4,0.9,1v1.5c0,0.8,0,0.9-0.4,1
			l-0.2,0c-0.1,0.1-0.1,0.3,0,0.3c0.4,0,0.8,0,1.1,0c0.4,0,0.8,0,1.2,0c0.1,0,0.1-0.2,0-0.3l-0.3,0c-0.4,0-0.4-0.2-0.4-1v-1.7
			c0-0.9-0.4-1.5-1.3-1.5c-0.7,0-1,0.3-1.5,0.5c-0.1,0-0.1,0-0.1-0.1c0-0.1,0-0.3,0-0.5c0,0-0.1-0.1-0.1-0.1c-0.4,0.2-1,0.5-1.4,0.6
			c0,0.1,0,0.2,0,0.3l0.1,0.1c0.3,0.2,0.3,0.3,0.3,0.8v1.6c0,0.8,0,0.9-0.4,1l-0.2,0c-0.1,0.1-0.1,0.3,0,0.3c0.5,0,0.8,0,1.2,0
			c0.4,0,0.8,0,1.2,0c0.1,0,0.1-0.2,0-0.3l-0.2,0c-0.4-0.1-0.4-0.2-0.4-1V162.6L105.8,162.6z"/>
		<path class="st10" d="M113,162.7c0.4,0,0.7,0,0.8-0.1c0-0.1,0.1-0.2,0.1-0.3c0-1-0.8-1.5-1.6-1.5c-1.5,0-2.3,1.2-2.3,2.4
			c0,1.3,0.8,2.2,2.1,2.2c0.7,0,1.5-0.3,1.9-1.2c0-0.1-0.1-0.2-0.2-0.2c-0.3,0.4-0.6,0.5-1.1,0.5c-1,0-1.7-0.8-1.7-1.8
			c0-0.1,0-0.1,0.2-0.1H113L113,162.7z M111.1,162.3c-0.1,0-0.2,0-0.2-0.1c0-0.2,0.3-0.9,1.1-0.9c0.5,0,0.7,0.3,0.7,0.7
			c0,0.1,0,0.2-0.1,0.2c-0.1,0-0.2,0.1-0.5,0.1H111.1L111.1,162.3z"/>
		<path class="st10" d="M117.5,162.7c0.4,0,0.7,0,0.8-0.1c0-0.1,0.1-0.2,0.1-0.3c0-1-0.8-1.5-1.6-1.5c-1.5,0-2.3,1.2-2.3,2.4
			c0,1.3,0.8,2.2,2.1,2.2c0.7,0,1.5-0.3,1.9-1.2c0-0.1-0.1-0.2-0.2-0.2c-0.3,0.4-0.6,0.5-1.1,0.5c-1,0-1.7-0.8-1.7-1.8
			c0-0.1,0-0.1,0.2-0.1H117.5L117.5,162.7z M115.6,162.3c-0.1,0-0.2,0-0.2-0.1c0-0.2,0.3-0.9,1.1-0.9c0.5,0,0.7,0.3,0.7,0.7
			c0,0.1,0,0.2-0.1,0.2c-0.1,0-0.2,0.1-0.5,0.1H115.6L115.6,162.3z"/>
		<path class="st10" d="M119.5,164c0,0.8,0,0.9-0.4,1l-0.2,0c-0.1,0.1-0.1,0.3,0,0.3c0.4,0,0.8,0,1.1,0c0.4,0,0.8,0,1.4,0
			c0.1,0,0.1-0.2,0-0.3l-0.4,0c-0.4,0-0.4-0.2-0.4-1v-1.5c0-0.5,0.1-0.8,0.3-0.8c0.1,0,0.3,0,0.5,0.2c0.1,0.1,0.2,0.1,0.3,0.1
			c0.3,0,0.6-0.2,0.6-0.6c0-0.3-0.2-0.5-0.6-0.5c-0.4,0-0.7,0.3-1.1,0.6c-0.1,0-0.1-0.1-0.1-0.1c0-0.1,0-0.3,0-0.5
			c0-0.1-0.1-0.1-0.2-0.1c-0.3,0.2-0.9,0.4-1.4,0.6c0,0.1,0,0.2,0,0.3l0.1,0.1c0.3,0.2,0.3,0.3,0.3,0.8V164L119.5,164z"/>
		<path class="st10" d="M124.4,162.1c0-0.5,0-1,0-1.3c0-0.1-0.1-0.1-0.2-0.1c-0.3,0.2-0.9,0.4-1.4,0.6c0,0.1,0,0.2,0,0.3l0.1,0.1
			c0.3,0.2,0.3,0.3,0.3,0.8v1.6c0,0.8,0,0.9-0.4,1l-0.2,0c-0.1,0.1-0.1,0.3,0,0.3c0.4,0,0.8,0,1.2,0c0.4,0,0.8,0,1.2,0
			c0.1,0,0.1-0.2,0-0.3l-0.2,0c-0.4-0.1-0.4-0.2-0.4-1V162.1L124.4,162.1z M123.8,159.8c0.4,0,0.7-0.3,0.7-0.7
			c0-0.4-0.3-0.7-0.7-0.7c-0.4,0-0.7,0.3-0.7,0.7C123.1,159.6,123.4,159.8,123.8,159.8L123.8,159.8z"/>
		<path class="st10" d="M127.3,162.6c0-0.4,0-0.5,0.2-0.7c0.1-0.2,0.4-0.3,0.7-0.3c0.7,0,0.9,0.4,0.9,1v1.5c0,0.8,0,0.9-0.4,1
			l-0.2,0c-0.1,0.1-0.1,0.3,0,0.3c0.4,0,0.8,0,1.1,0c0.4,0,0.8,0,1.2,0c0.1,0,0.1-0.2,0-0.3l-0.3,0c-0.4,0-0.4-0.2-0.4-1v-1.7
			c0-0.9-0.4-1.5-1.3-1.5c-0.7,0-1,0.3-1.5,0.5c-0.1,0-0.1,0-0.1-0.1c0-0.1,0-0.3,0-0.5c0,0-0.1-0.1-0.1-0.1c-0.4,0.2-1,0.5-1.4,0.6
			c0,0.1,0,0.2,0,0.3l0.1,0.1c0.3,0.2,0.3,0.3,0.3,0.8v1.6c0,0.8,0,0.9-0.4,1l-0.2,0c-0.1,0.1-0.1,0.3,0,0.3c0.5,0,0.8,0,1.2,0
			c0.4,0,0.8,0,1.2,0c0.1,0,0.1-0.2,0-0.3l-0.2,0c-0.4-0.1-0.4-0.2-0.4-1V162.6L127.3,162.6z"/>
		<path class="st10" d="M136.1,161.8c0.1,0,0.2-0.2,0.2-0.4c0-0.1,0-0.2-0.1-0.2h-1.1c-0.1,0-0.3-0.1-0.5-0.2
			c-0.3-0.1-0.7-0.2-1.1-0.2c-1.2,0-2,0.7-2,1.7c0,0.7,0.4,1.2,0.8,1.3c0,0,0,0.1,0,0.1c0,0.2-0.5,0.5-0.7,0.6
			c-0.1,0.1-0.2,0.2-0.2,0.3c0,0.4,0.3,0.8,0.7,0.9c0.1,0,0,0.2-0.1,0.2c-0.2,0.1-0.6,0.4-0.7,0.5c-0.1,0.2-0.2,0.3-0.2,0.5
			c0,0.6,0.5,1.3,2.1,1.3c0.9,0,1.6-0.3,2.1-0.7c0.3-0.2,0.7-0.8,0.7-1.3c0-1.2-1-1.3-1.8-1.3c-0.5,0-0.9,0-1.2,0
			c-0.5,0-0.6-0.2-0.6-0.4c0-0.2,0.2-0.3,0.3-0.4c0.1,0,0.3,0,0.4,0c1.4,0,2-0.9,2-1.8c0-0.2,0-0.4-0.1-0.5H136.1L136.1,161.8z
			 M134.1,165.9c0.7,0,1.2,0.3,1.2,0.8c0,0.6-0.5,1-1.5,1c-0.8,0-1.4-0.4-1.4-1.1c0-0.3,0.1-0.5,0.3-0.6c0.1-0.1,0.4-0.1,0.7-0.1
			H134.1L134.1,165.9z M132.8,162.4c0-0.8,0.3-1.1,0.7-1.1c0.5,0,0.8,0.5,0.8,1.3c0,0.8-0.3,1.1-0.7,1.1
			C133.1,163.7,132.8,163.2,132.8,162.4L132.8,162.4z"/>
		<path class="st10" d="M145.9,158.2c-0.1,0-0.2,0-0.3-0.1c-0.5-0.1-1.3-0.2-1.9-0.2c-1.1,0-2.2,0.3-3,0.9c-0.8,0.6-1.4,1.6-1.4,2.9
			c0,1.4,0.7,2.4,1.6,3c0.8,0.5,1.7,0.7,2.8,0.7c0.7,0,1.5-0.2,1.7-0.3c0.1,0,0.3-0.1,0.4-0.1c0.2-0.2,0.5-0.9,0.5-1.7
			c-0.1-0.1-0.2-0.1-0.3,0c-0.3,0.7-0.9,1.6-2.3,1.6c-1.4,0-2.9-1.1-2.9-3.5c0-2.3,1.4-3.2,2.8-3.2c1.5,0,1.9,0.9,2.1,1.6
			c0.1,0.1,0.3,0.1,0.4,0C146,159.1,146,158.5,145.9,158.2L145.9,158.2z"/>
		<path class="st10" d="M149.2,160.9c-1.3,0-2.4,0.9-2.4,2.4c0,1.4,1.1,2.2,2.3,2.2c1.3,0,2.4-0.8,2.4-2.4
			C151.6,161.7,150.5,160.9,149.2,160.9L149.2,160.9z M148.1,163.1c0-1.2,0.4-1.8,1-1.8c0.8,0,1.1,1.1,1.1,2c0,0.8-0.2,1.7-1,1.7
			C148.5,165.1,148.1,164.1,148.1,163.1L148.1,163.1z"/>
		<path class="st10" d="M152.7,164c0,0.8,0,0.9-0.4,1l-0.2,0c-0.1,0.1-0.1,0.3,0,0.3c0.5,0,0.8,0,1.2,0c0.4,0,0.8,0,1.2,0
			c0.1,0,0.1-0.2,0-0.3l-0.2,0c-0.4-0.1-0.4-0.2-0.4-1v-4.9c0-0.5,0-1.2,0-1.6c0-0.1-0.1-0.1-0.2-0.1c-0.4,0.2-1,0.4-1.4,0.5
			c-0.1,0-0.1,0.2,0,0.3l0.1,0.1c0.3,0.2,0.3,0.2,0.3,1V164L152.7,164z"/>
		<path class="st10" d="M155.6,164c0,0.8,0,0.9-0.4,1l-0.2,0c-0.1,0.1-0.1,0.3,0,0.3c0.5,0,0.8,0,1.2,0c0.4,0,0.8,0,1.2,0
			c0.1,0,0.1-0.2,0-0.3l-0.2,0c-0.4-0.1-0.4-0.2-0.4-1v-4.9c0-0.5,0-1.2,0-1.6c0-0.1-0.1-0.1-0.2-0.1c-0.4,0.2-1,0.4-1.4,0.5
			c-0.1,0-0.1,0.2,0,0.3l0.1,0.1c0.3,0.2,0.3,0.2,0.3,1V164L155.6,164z"/>
		<path class="st10" d="M161.1,162.7c0.4,0,0.7,0,0.8-0.1c0-0.1,0.1-0.2,0.1-0.3c0-1-0.8-1.5-1.6-1.5c-1.5,0-2.3,1.2-2.3,2.4
			c0,1.3,0.8,2.2,2.1,2.2c0.7,0,1.5-0.3,1.9-1.2c0-0.1-0.1-0.2-0.2-0.2c-0.3,0.4-0.6,0.5-1.1,0.5c-1,0-1.7-0.8-1.7-1.8
			c0-0.1,0-0.1,0.2-0.1H161.1L161.1,162.7z M159.2,162.3c-0.1,0-0.2,0-0.2-0.1c0-0.2,0.3-0.9,1.1-0.9c0.5,0,0.7,0.3,0.7,0.7
			c0,0.1,0,0.2-0.1,0.2c-0.1,0-0.2,0.1-0.5,0.1H159.2L159.2,162.3z"/>
		<path class="st10" d="M167.1,161.8c0.1,0,0.2-0.2,0.2-0.4c0-0.1,0-0.2-0.1-0.2h-1.1c-0.1,0-0.3-0.1-0.5-0.2
			c-0.3-0.1-0.7-0.2-1.1-0.2c-1.2,0-2,0.7-2,1.7c0,0.7,0.4,1.2,0.8,1.3c0,0,0,0.1,0,0.1c0,0.2-0.5,0.5-0.7,0.6
			c-0.1,0.1-0.2,0.2-0.2,0.3c0,0.4,0.3,0.8,0.7,0.9c0.1,0,0,0.2-0.1,0.2c-0.2,0.1-0.6,0.4-0.7,0.5c-0.1,0.2-0.2,0.3-0.2,0.5
			c0,0.6,0.5,1.3,2.1,1.3c0.9,0,1.6-0.3,2.1-0.7c0.3-0.2,0.7-0.8,0.7-1.3c0-1.2-1-1.3-1.8-1.3c-0.5,0-0.9,0-1.2,0
			c-0.5,0-0.6-0.2-0.6-0.4c0-0.2,0.2-0.3,0.3-0.4c0.1,0,0.3,0,0.4,0c1.4,0,2-0.9,2-1.8c0-0.2,0-0.4-0.1-0.5H167.1L167.1,161.8z
			 M165.1,165.9c0.7,0,1.2,0.3,1.2,0.8c0,0.6-0.5,1-1.5,1c-0.8,0-1.4-0.4-1.4-1.1c0-0.3,0.1-0.5,0.3-0.6c0.1-0.1,0.4-0.1,0.7-0.1
			H165.1L165.1,165.9z M163.8,162.4c0-0.8,0.3-1.1,0.7-1.1c0.5,0,0.8,0.5,0.8,1.3c0,0.8-0.3,1.1-0.7,1.1
			C164.1,163.7,163.8,163.2,163.8,162.4L163.8,162.4z"/>
		<path class="st10" d="M170.7,162.7c0.4,0,0.7,0,0.8-0.1c0-0.1,0.1-0.2,0.1-0.3c0-1-0.8-1.5-1.6-1.5c-1.5,0-2.3,1.2-2.3,2.4
			c0,1.3,0.8,2.2,2.1,2.2c0.7,0,1.5-0.3,1.9-1.2c0-0.1-0.1-0.2-0.2-0.2c-0.3,0.4-0.6,0.5-1.1,0.5c-1,0-1.7-0.8-1.7-1.8
			c0-0.1,0-0.1,0.2-0.1H170.7L170.7,162.7z M168.8,162.3c-0.1,0-0.2,0-0.2-0.1c0-0.2,0.3-0.9,1.1-0.9c0.5,0,0.7,0.3,0.7,0.7
			c0,0.1,0,0.2-0.1,0.2c-0.1,0-0.2,0.1-0.5,0.1H168.8L168.8,162.3z"/>
	</g>
</g>
</svg>
