<?xml version="1.0" encoding="utf-8"?>
<!-- Generator: Adobe Illustrator 23.0.6, SVG Export Plug-In . SVG Version: 6.00 Build 0)  -->
<svg version="1.1" id="Layer_1" xmlns="http://www.w3.org/2000/svg" xmlns:xlink="http://www.w3.org/1999/xlink" x="0px" y="0px"
	 viewBox="0 0 209.9 62.9" style="enable-background:new 0 0 209.9 62.9;" xml:space="preserve">
<style type="text/css">
	.st0{fill-rule:evenodd;clip-rule:evenodd;fill:#21CDEC;}
	.st1{fill:#21CDEC;}
	.st2{fill:#A1C240;}
</style>
<g>
	<path class="st0" d="M41.5,2.9C26,2.9,13.4,15.5,13.4,31c0,2.2,0.3,4.4,0.8,6.5c-0.1-0.9-0.2-1.9-0.2-2.8c0-12.3,10-22.2,22.2-22.2
		c12.3,0,22.2,10,22.2,22.2c0,12.3-10,22.2-22.2,22.2c-3.6,0-7-0.9-10.1-2.4c4.4,2.9,9.6,4.5,15.3,4.5C57,59,69.5,46.5,69.5,31
		C69.5,15.5,57,2.9,41.5,2.9L41.5,2.9z"/>
	<polygon class="st0" points="1.8,48 4.9,46.2 6.8,49.4 3.6,51.2 1.8,48 	"/>
	<polygon class="st0" points="7.1,44.9 10.3,43.1 12.1,46.3 9,48.1 7.1,44.9 	"/>
	<polygon class="st0" points="12.5,41.8 15.7,40 17.5,43.2 14.3,45 12.5,41.8 	"/>
	<polygon class="st0" points="17.8,38.8 21,36.9 22.9,40.1 19.7,41.9 17.8,38.8 	"/>
	<polygon class="st0" points="23.2,35.7 26.4,33.8 28.2,37 25,38.8 23.2,35.7 	"/>
	<polygon class="st0" points="28.6,32.6 31.7,30.7 33.6,33.9 30.4,35.7 28.6,32.6 	"/>
	<polygon class="st0" points="33.9,29.5 37.1,27.6 38.9,30.8 35.8,32.7 33.9,29.5 	"/>
	<polygon class="st0" points="25.8,27.8 29,26 30.8,29.1 27.6,31 25.8,27.8 	"/>
	<polygon class="st0" points="4.9,53.6 8.1,51.7 10,54.9 6.8,56.8 4.9,53.6 	"/>
	<polygon class="st0" points="10.3,50.5 13.5,48.6 15.3,51.8 12.1,53.7 10.3,50.5 	"/>
	<polygon class="st0" points="15.7,47.4 18.9,45.5 20.7,48.7 17.5,50.6 15.7,47.4 	"/>
	<polygon class="st0" points="21,44.3 24.2,42.4 26.1,45.6 22.9,47.5 21,44.3 	"/>
	<polygon class="st0" points="26.4,41.2 29.6,39.4 31.4,42.5 28.2,44.4 26.4,41.2 	"/>
	<polygon class="st0" points="31.8,38.1 34.9,36.3 36.8,39.4 33.6,41.3 31.8,38.1 	"/>
	<polygon class="st0" points="37.1,35 40.3,33.2 42.1,36.3 39,38.2 37.1,35 	"/>
	<polygon class="st0" points="35.1,44 38.3,42.1 40.2,45.3 37,47.1 35.1,44 	"/>
	<polygon class="st0" points="41.4,29.8 44.5,27.9 46.4,31.1 43.2,32.9 41.4,29.8 	"/>
	<polygon class="st1" points="85.5,11.4 85.5,27.3 82.9,27.3 82.9,11.4 77.4,11.4 77.4,9.5 91.1,9.5 91.1,11.4 85.5,11.4 	"/>
	<path class="st1" d="M95.3,9.5h5.8c1,0,1.9,0.1,2.7,0.3c0.8,0.2,1.4,0.6,2,1c0.5,0.4,0.9,1,1.2,1.6c0.3,0.6,0.4,1.3,0.4,2.1
		c0,0.5-0.1,1-0.2,1.4c-0.2,0.4-0.4,0.9-0.6,1.3c-0.3,0.4-0.6,0.8-0.9,1.1c-0.3,0.3-0.7,0.6-1.1,0.8l3.8,8.2h-2.7l-3.5-7.6h-4.2v7.6
		h-2.6V9.5L95.3,9.5z M97.9,11.4v6.4h5.3c0.2-0.2,0.4-0.3,0.6-0.5c0.2-0.2,0.4-0.4,0.5-0.6c0.1-0.3,0.3-0.5,0.4-0.9
		c0.1-0.3,0.1-0.7,0.1-1.2c0-0.6-0.1-1.1-0.3-1.5c-0.2-0.4-0.4-0.7-0.8-1c-0.3-0.3-0.8-0.4-1.2-0.5c-0.5-0.1-1.1-0.2-1.7-0.2H97.9
		L97.9,11.4z"/>
	<path class="st1" d="M124,9.5h2.6v12.4c0,0.9-0.2,1.7-0.5,2.4c-0.3,0.7-0.8,1.3-1.4,1.8c-0.6,0.5-1.3,0.9-2.2,1.1
		c-0.9,0.3-1.8,0.4-2.8,0.4c-1,0-2-0.1-2.8-0.4c-0.8-0.2-1.6-0.6-2.2-1.1c-0.6-0.5-1.1-1.1-1.4-1.8c-0.3-0.7-0.5-1.5-0.5-2.4V9.5
		h2.6v12.4c0,0.6,0.1,1.1,0.3,1.6c0.2,0.5,0.5,0.9,0.9,1.2c0.4,0.3,0.8,0.6,1.4,0.7c0.5,0.2,1.1,0.3,1.8,0.3c0.7,0,1.3-0.1,1.8-0.3
		c0.5-0.2,1-0.4,1.4-0.7c0.4-0.3,0.7-0.7,0.9-1.2c0.2-0.5,0.3-1,0.3-1.6V9.5L124,9.5z"/>
	<polygon class="st1" points="132.3,27.3 132.3,9.5 142.8,9.5 142.8,11.4 134.9,11.4 134.9,17.2 141.9,17.2 141.9,19.1 134.9,19.1 
		134.9,25.4 142.8,25.4 142.8,27.3 132.3,27.3 	"/>
	<polygon class="st1" points="147.3,9.5 149.9,9.5 149.9,25.4 157.9,25.4 157.9,27.3 147.3,27.3 147.3,9.5 	"/>
	<polygon class="st1" points="161.2,27.3 161.2,25.4 163.6,25.4 163.6,11.4 161.2,11.4 161.2,9.5 168.6,9.5 168.6,11.4 166.2,11.4 
		166.2,25.4 168.6,25.4 168.6,27.3 161.2,27.3 	"/>
	<polygon class="st1" points="173.7,9.5 176.3,9.5 176.3,9.5 176.3,9.4 185.5,23.3 185.5,9.5 188.1,9.5 188.1,27.3 185.5,27.3 
		176.3,13.4 176.3,27.3 173.7,27.3 173.7,9.5 	"/>
	<polygon class="st1" points="193.7,27.3 193.7,9.5 204.2,9.5 204.2,11.4 196.3,11.4 196.3,17.2 203.4,17.2 203.4,19.1 196.3,19.1 
		196.3,25.4 204.2,25.4 204.2,27.3 193.7,27.3 	"/>
	<polygon class="st2" points="83.1,33 83.1,44.1 81.3,44.1 81.3,33 77.4,33 77.4,31.6 87,31.6 87,33 83.1,33 	"/>
	<polygon class="st2" points="89.1,44.1 89.1,31.6 96.4,31.6 96.4,33 90.9,33 90.9,37 95.8,37 95.8,38.4 90.9,38.4 90.9,42.7 
		96.4,42.7 96.4,44.1 89.1,44.1 	"/>
	<path class="st2" d="M98.2,37.8c0-1,0.1-1.8,0.4-2.6c0.3-0.8,0.6-1.5,1.1-2c0.5-0.6,1.1-1,1.8-1.3c0.7-0.3,1.5-0.5,2.4-0.5
		c0.3,0,0.6,0,0.8,0.1c0.3,0,0.5,0.1,0.7,0.1c0.2,0.1,0.4,0.1,0.6,0.2c0.2,0.1,0.3,0.1,0.5,0.2l-0.5,1.2c-0.3-0.1-0.6-0.3-1-0.3
		c-0.3-0.1-0.7-0.1-1.2-0.1c-0.6,0-1.1,0.1-1.6,0.3c-0.5,0.2-0.9,0.5-1.2,0.9c-0.3,0.4-0.6,0.9-0.8,1.6c-0.2,0.6-0.3,1.4-0.3,2.3
		c0,0.9,0.1,1.7,0.3,2.3c0.2,0.6,0.5,1.2,0.8,1.6c0.4,0.4,0.8,0.7,1.3,0.9c0.5,0.2,1.1,0.3,1.7,0.3c0.3,0,0.5,0,0.7-0.1
		c0.2,0,0.4-0.1,0.6-0.1c0.2-0.1,0.4-0.1,0.5-0.2c0.2-0.1,0.3-0.1,0.4-0.2l0.4,1.2c-0.3,0.2-0.7,0.4-1.2,0.5c-0.5,0.1-1,0.2-1.7,0.2
		c-0.9,0-1.7-0.2-2.4-0.5c-0.7-0.3-1.3-0.7-1.8-1.3c-0.5-0.6-0.9-1.2-1.1-2C98.3,39.7,98.2,38.8,98.2,37.8L98.2,37.8z"/>
	<polygon class="st2" points="108.8,31.6 110.6,31.6 110.6,37.2 116.6,37.2 116.6,31.6 118.4,31.6 118.4,44.1 116.6,44.1 
		116.6,38.5 110.6,38.5 110.6,44.1 108.8,44.1 108.8,31.6 	"/>
	<polygon class="st2" points="121.5,31.6 123.3,31.6 123.3,31.6 123.3,31.6 129.7,41.3 129.7,31.6 131.5,31.6 131.5,44.1 
		129.7,44.1 123.3,34.4 123.3,44.1 121.5,44.1 121.5,31.6 	"/>
	<path class="st2" d="M134,37.9c0-1,0.1-1.9,0.4-2.7c0.3-0.8,0.6-1.5,1.1-2c0.5-0.6,1.1-1,1.7-1.3c0.7-0.3,1.4-0.5,2.2-0.5
		c0.8,0,1.5,0.2,2.2,0.5c0.7,0.3,1.2,0.7,1.7,1.3c0.5,0.6,0.9,1.2,1.1,2c0.3,0.8,0.4,1.7,0.4,2.7c0,1-0.1,1.9-0.4,2.7
		c-0.3,0.8-0.6,1.5-1.1,2c-0.5,0.6-1.1,1-1.7,1.3c-0.7,0.3-1.4,0.4-2.2,0.4c-0.8,0-1.5-0.1-2.2-0.4c-0.7-0.3-1.2-0.7-1.7-1.3
		c-0.5-0.6-0.8-1.2-1.1-2C134.1,39.7,134,38.8,134,37.9L134,37.9z M135.8,37.9c0,0.9,0.1,1.6,0.3,2.2c0.2,0.6,0.4,1.2,0.7,1.6
		c0.3,0.4,0.7,0.7,1.2,1c0.4,0.2,0.9,0.3,1.5,0.3c0.5,0,1-0.1,1.5-0.3c0.4-0.2,0.8-0.5,1.2-1c0.3-0.4,0.6-1,0.7-1.6
		c0.2-0.6,0.3-1.4,0.3-2.2c0-0.9-0.1-1.6-0.3-2.2c-0.2-0.6-0.4-1.2-0.7-1.6c-0.3-0.4-0.7-0.7-1.2-1c-0.5-0.2-0.9-0.3-1.5-0.3
		c-0.5,0-1,0.1-1.5,0.3c-0.4,0.2-0.8,0.5-1.2,1c-0.3,0.4-0.6,1-0.7,1.6C135.9,36.3,135.8,37,135.8,37.9L135.8,37.9z"/>
	<polygon class="st2" points="147.4,31.6 149.2,31.6 149.2,42.7 154.8,42.7 154.8,44.1 147.4,44.1 147.4,31.6 	"/>
	<path class="st2" d="M155.9,37.9c0-1,0.1-1.9,0.4-2.7c0.3-0.8,0.6-1.5,1.1-2c0.5-0.6,1.1-1,1.7-1.3c0.7-0.3,1.4-0.5,2.2-0.5
		c0.8,0,1.5,0.2,2.2,0.5c0.7,0.3,1.2,0.7,1.7,1.3c0.5,0.6,0.9,1.2,1.1,2c0.3,0.8,0.4,1.7,0.4,2.7c0,1-0.1,1.9-0.4,2.7
		c-0.3,0.8-0.6,1.5-1.1,2c-0.5,0.6-1.1,1-1.7,1.3c-0.7,0.3-1.4,0.4-2.2,0.4c-0.8,0-1.5-0.1-2.2-0.4c-0.7-0.3-1.2-0.7-1.7-1.3
		c-0.5-0.6-0.8-1.2-1.1-2C156.1,39.7,155.9,38.8,155.9,37.9L155.9,37.9z M157.7,37.9c0,0.9,0.1,1.6,0.3,2.2c0.2,0.6,0.4,1.2,0.7,1.6
		c0.3,0.4,0.7,0.7,1.2,1c0.4,0.2,0.9,0.3,1.5,0.3c0.5,0,1-0.1,1.5-0.3c0.4-0.2,0.8-0.5,1.2-1c0.3-0.4,0.6-1,0.7-1.6
		c0.2-0.6,0.3-1.4,0.3-2.2c0-0.9-0.1-1.6-0.3-2.2c-0.2-0.6-0.4-1.2-0.7-1.6c-0.3-0.4-0.7-0.7-1.2-1c-0.5-0.2-0.9-0.3-1.5-0.3
		c-0.5,0-1,0.1-1.5,0.3c-0.4,0.2-0.8,0.5-1.2,1c-0.3,0.4-0.6,1-0.7,1.6C157.8,36.3,157.7,37,157.7,37.9L157.7,37.9z"/>
	<path class="st2" d="M174.2,37.8h4.5v5.7c-0.6,0.3-1.2,0.4-1.9,0.6c-0.6,0.1-1.3,0.2-2.1,0.2c-0.9,0-1.8-0.2-2.5-0.5
		c-0.7-0.3-1.4-0.8-1.9-1.4c-0.5-0.6-0.9-1.3-1.2-2c-0.3-0.8-0.4-1.6-0.4-2.5c0-1,0.2-1.9,0.4-2.7c0.3-0.8,0.7-1.5,1.3-2
		c0.6-0.6,1.2-1,2-1.3c0.8-0.3,1.7-0.5,2.7-0.5c0.3,0,0.6,0,0.9,0c0.3,0,0.5,0.1,0.7,0.1c0.2,0.1,0.4,0.1,0.6,0.2
		c0.2,0.1,0.3,0.1,0.5,0.2l-0.4,1.3c-0.3-0.1-0.6-0.2-1-0.3c-0.4-0.1-0.8-0.1-1.3-0.1c-0.7,0-1.4,0.1-2,0.3c-0.6,0.2-1.1,0.5-1.5,1
		c-0.4,0.4-0.7,1-0.9,1.6c-0.2,0.6-0.3,1.4-0.3,2.2c0,0.7,0.1,1.3,0.3,1.9c0.2,0.6,0.5,1.2,0.8,1.6c0.4,0.5,0.8,0.8,1.3,1.1
		c0.5,0.3,1.1,0.4,1.8,0.4c0.4,0,0.8,0,1.1-0.1c0.3,0,0.7-0.1,1-0.2v-3.5h-2.7V37.8L174.2,37.8z"/>
	<polygon class="st2" points="181.2,44.1 181.2,42.7 182.9,42.7 182.9,33 181.2,33 181.2,31.6 186.4,31.6 186.4,33 184.7,33 
		184.7,42.7 186.4,42.7 186.4,44.1 181.2,44.1 	"/>
	<polygon class="st2" points="189.1,44.1 189.1,31.6 196.5,31.6 196.5,33 190.9,33 190.9,37 195.9,37 195.9,38.4 190.9,38.4 
		190.9,42.7 196.5,42.7 196.5,44.1 189.1,44.1 	"/>
	<path class="st2" d="M206.3,40.8c0,0.5-0.1,1-0.3,1.4c-0.2,0.4-0.5,0.8-0.9,1.1c-0.4,0.3-0.8,0.5-1.3,0.7c-0.5,0.2-1.1,0.2-1.7,0.2
		c-0.4,0-0.7,0-1.1-0.1c-0.4,0-0.7-0.1-1.1-0.1c-0.3-0.1-0.7-0.1-1-0.2c-0.3-0.1-0.6-0.2-0.8-0.3l0.5-1.3c0.3,0.1,0.5,0.2,0.8,0.3
		c0.3,0.1,0.5,0.2,0.8,0.2c0.3,0.1,0.6,0.1,0.9,0.2c0.3,0,0.6,0.1,1,0.1c0.4,0,0.7,0,1-0.1c0.3-0.1,0.6-0.2,0.8-0.4
		c0.2-0.2,0.4-0.4,0.5-0.7c0.1-0.3,0.2-0.5,0.2-0.9c0-0.3-0.1-0.6-0.2-0.8c-0.1-0.2-0.3-0.4-0.6-0.6c-0.3-0.2-0.6-0.4-0.9-0.5
		c-0.4-0.2-0.8-0.3-1.2-0.4c-0.5-0.1-0.9-0.3-1.4-0.6c-0.4-0.2-0.8-0.5-1.1-0.8c-0.3-0.3-0.6-0.6-0.7-1c-0.2-0.4-0.3-0.8-0.3-1.3
		c0-0.5,0.1-1,0.3-1.4c0.2-0.4,0.5-0.8,0.8-1.1c0.4-0.3,0.8-0.5,1.3-0.7c0.5-0.2,1.1-0.2,1.7-0.2c0.4,0,0.8,0,1.1,0.1
		c0.4,0.1,0.7,0.1,1,0.2c0.3,0.1,0.6,0.2,0.8,0.2c0.3,0.1,0.5,0.2,0.6,0.2l-0.4,1.4c-0.3-0.1-0.5-0.2-0.7-0.3
		c-0.2-0.1-0.5-0.2-0.7-0.2c-0.2-0.1-0.5-0.1-0.8-0.2c-0.3,0-0.6-0.1-0.9-0.1c-0.4,0-0.7,0.1-1.1,0.2c-0.3,0.1-0.6,0.2-0.8,0.4
		c-0.2,0.2-0.4,0.4-0.5,0.7c-0.1,0.3-0.2,0.5-0.2,0.8c0,0.5,0.2,1,0.6,1.3c0.4,0.4,1.1,0.7,2,1c0.6,0.2,1.2,0.4,1.7,0.7
		c0.5,0.2,0.9,0.5,1.2,0.8c0.3,0.3,0.6,0.6,0.7,1C206.2,39.9,206.3,40.4,206.3,40.8L206.3,40.8z"/>
	<path d="M80.9,54.7c0-0.4,0.1-0.8,0.2-1.1c0.1-0.3,0.3-0.6,0.5-0.8c0.2-0.2,0.4-0.4,0.7-0.5c0.3-0.1,0.6-0.2,1-0.2
		c0.3,0,0.5,0,0.7,0.1c0.2,0.1,0.3,0.1,0.5,0.2l-0.2,0.4c-0.1-0.1-0.3-0.1-0.5-0.2c-0.2,0-0.4-0.1-0.5-0.1c-0.3,0-0.5,0-0.7,0.1
		c-0.2,0.1-0.4,0.2-0.6,0.4c-0.2,0.2-0.3,0.4-0.4,0.7c-0.1,0.3-0.1,0.6-0.1,1c0,0.4,0,0.7,0.1,1c0.1,0.3,0.2,0.5,0.4,0.7
		c0.2,0.2,0.4,0.3,0.6,0.4c0.2,0.1,0.5,0.1,0.8,0.1c0.1,0,0.2,0,0.3,0c0.1,0,0.2,0,0.3-0.1c0.1,0,0.2,0,0.2-0.1
		c0.1,0,0.1-0.1,0.2-0.1l0.1,0.3c-0.1,0.1-0.3,0.2-0.5,0.2c-0.2,0.1-0.5,0.1-0.7,0.1c-0.4,0-0.7-0.1-1-0.2c-0.3-0.1-0.5-0.3-0.8-0.5
		c-0.2-0.2-0.4-0.5-0.5-0.8C80.9,55.5,80.9,55.1,80.9,54.7L80.9,54.7z"/>
	<path d="M85.5,55.4c0-0.3,0-0.6,0.1-0.8c0.1-0.2,0.2-0.4,0.3-0.6c0.1-0.2,0.3-0.3,0.5-0.4c0.2-0.1,0.5-0.1,0.7-0.1
		c0.3,0,0.5,0,0.7,0.1c0.2,0.1,0.4,0.2,0.6,0.4c0.2,0.2,0.3,0.4,0.4,0.6c0.1,0.2,0.1,0.5,0.1,0.8c0,0.3,0,0.6-0.1,0.8
		c-0.1,0.2-0.2,0.4-0.4,0.6c-0.2,0.2-0.3,0.3-0.6,0.4c-0.2,0.1-0.5,0.1-0.7,0.1c-0.3,0-0.5,0-0.7-0.1c-0.2-0.1-0.4-0.2-0.5-0.4
		c-0.1-0.2-0.3-0.4-0.3-0.6C85.5,56,85.5,55.7,85.5,55.4L85.5,55.4z M86,55.4c0,0.3,0,0.5,0.1,0.7c0.1,0.2,0.1,0.4,0.2,0.5
		c0.1,0.1,0.2,0.2,0.4,0.3c0.1,0.1,0.3,0.1,0.5,0.1c0.2,0,0.4,0,0.5-0.1c0.2-0.1,0.3-0.2,0.4-0.3c0.1-0.1,0.2-0.3,0.3-0.5
		c0.1-0.2,0.1-0.4,0.1-0.7c0-0.3,0-0.5-0.1-0.7c-0.1-0.2-0.2-0.4-0.3-0.5C88,54.1,87.9,54,87.7,54c-0.2-0.1-0.3-0.1-0.5-0.1
		c-0.2,0-0.4,0-0.5,0.1c-0.2,0.1-0.3,0.2-0.4,0.3c-0.1,0.1-0.2,0.3-0.2,0.5C86,54.9,86,55.2,86,55.4L86,55.4z"/>
	<path d="M90.3,53.5h0.5l0,0.3c0.2-0.1,0.4-0.3,0.6-0.3c0.2-0.1,0.5-0.1,0.7-0.1c0.3,0,0.5,0,0.7,0.1c0.2,0.1,0.3,0.2,0.4,0.3
		c0.2-0.1,0.4-0.2,0.6-0.3c0.2-0.1,0.5-0.1,0.7-0.1c0.2,0,0.4,0,0.5,0.1c0.2,0,0.3,0.1,0.4,0.2c0.1,0.1,0.2,0.2,0.2,0.4
		c0.1,0.2,0.1,0.4,0.1,0.7v2.4h-0.5v-2.4c0-0.2,0-0.3-0.1-0.5c0-0.1-0.1-0.2-0.2-0.3C95,54,94.9,54,94.8,53.9
		c-0.1,0-0.2-0.1-0.3-0.1c-0.2,0-0.4,0-0.6,0.1c-0.2,0.1-0.4,0.2-0.5,0.3c0,0,0,0.1,0,0.1c0,0,0,0.1,0,0.1v2.8h-0.5v-2.8
		c0-0.2-0.1-0.4-0.2-0.5c-0.1-0.1-0.3-0.1-0.6-0.1c-0.2,0-0.5,0-0.7,0.1c-0.2,0.1-0.4,0.2-0.6,0.3v3h-0.5V53.5L90.3,53.5z"/>
	<path d="M97.3,53.5h0.5l0,0.3c0.2-0.1,0.4-0.3,0.6-0.3c0.2-0.1,0.5-0.1,0.7-0.1c0.3,0,0.5,0,0.7,0.1c0.2,0.1,0.3,0.2,0.4,0.3
		c0.2-0.1,0.4-0.2,0.6-0.3c0.2-0.1,0.5-0.1,0.7-0.1c0.2,0,0.4,0,0.5,0.1c0.2,0,0.3,0.1,0.4,0.2c0.1,0.1,0.2,0.2,0.2,0.4
		c0.1,0.2,0.1,0.4,0.1,0.7v2.4h-0.5v-2.4c0-0.2,0-0.3-0.1-0.5c0-0.1-0.1-0.2-0.2-0.3c-0.1-0.1-0.2-0.1-0.3-0.2
		c-0.1,0-0.2-0.1-0.3-0.1c-0.2,0-0.4,0-0.6,0.1c-0.2,0.1-0.4,0.2-0.5,0.3c0,0,0,0.1,0,0.1c0,0,0,0.1,0,0.1v2.8h-0.5v-2.8
		c0-0.2-0.1-0.4-0.2-0.5c-0.1-0.1-0.3-0.1-0.6-0.1c-0.2,0-0.5,0-0.7,0.1c-0.2,0.1-0.4,0.2-0.6,0.3v3h-0.5V53.5L97.3,53.5z"/>
	<path d="M104.5,53.5h0.5v3.8h-0.5V53.5L104.5,53.5z M104.4,52h0.7v0.6h-0.7V52L104.4,52z"/>
	<path d="M106.1,53.5h0.6v-1l0.5-0.1v1.1h1.2V54h-1.2v2.3c0,0.1,0,0.3,0,0.4c0,0.1,0.1,0.2,0.1,0.2c0,0.1,0.1,0.1,0.2,0.1
		c0.1,0,0.2,0,0.3,0c0.1,0,0.1,0,0.2,0c0.1,0,0.1,0,0.2,0c0.1,0,0.1,0,0.2,0c0.1,0,0.1,0,0.1,0l0,0.4c-0.1,0-0.2,0.1-0.3,0.1
		c-0.1,0-0.3,0-0.4,0c-0.2,0-0.3,0-0.5,0c-0.1,0-0.3-0.1-0.3-0.2c-0.1-0.1-0.2-0.2-0.2-0.4c0-0.1-0.1-0.3-0.1-0.6V54H106L106.1,53.5
		L106.1,53.5z"/>
	<path d="M109.7,53.5h0.5l0,0.3c0.2-0.1,0.4-0.3,0.6-0.3c0.2-0.1,0.5-0.1,0.7-0.1c0.3,0,0.5,0,0.7,0.1c0.2,0.1,0.3,0.2,0.4,0.3
		c0.2-0.1,0.4-0.2,0.6-0.3c0.2-0.1,0.5-0.1,0.7-0.1c0.2,0,0.4,0,0.5,0.1c0.2,0,0.3,0.1,0.4,0.2c0.1,0.1,0.2,0.2,0.2,0.4
		c0.1,0.2,0.1,0.4,0.1,0.7v2.4h-0.5v-2.4c0-0.2,0-0.3-0.1-0.5c0-0.1-0.1-0.2-0.2-0.3c-0.1-0.1-0.2-0.1-0.3-0.2
		c-0.1,0-0.2-0.1-0.3-0.1c-0.2,0-0.4,0-0.6,0.1c-0.2,0.1-0.4,0.2-0.5,0.3c0,0,0,0.1,0,0.1c0,0,0,0.1,0,0.1v2.8h-0.5v-2.8
		c0-0.2-0.1-0.4-0.2-0.5c-0.1-0.1-0.3-0.1-0.6-0.1c-0.2,0-0.5,0-0.7,0.1c-0.2,0.1-0.4,0.2-0.6,0.3v3h-0.5V53.5L109.7,53.5z"/>
	<path d="M117,55.4L117,55.4c0,0.3,0,0.5,0.1,0.7c0.1,0.2,0.1,0.3,0.2,0.5c0.1,0.1,0.2,0.2,0.4,0.3c0.2,0.1,0.4,0.1,0.6,0.1
		c0.1,0,0.3,0,0.4,0c0.1,0,0.2,0,0.3-0.1c0.1,0,0.2,0,0.2-0.1c0.1,0,0.1-0.1,0.2-0.1l0.2,0.4c-0.2,0.1-0.3,0.1-0.6,0.2
		c-0.2,0-0.5,0.1-0.7,0.1c-0.3,0-0.6,0-0.8-0.1c-0.2-0.1-0.4-0.2-0.6-0.4c-0.2-0.2-0.3-0.4-0.3-0.6c-0.1-0.2-0.1-0.5-0.1-0.8
		c0-0.3,0-0.6,0.1-0.8c0.1-0.2,0.2-0.5,0.3-0.6c0.1-0.2,0.3-0.3,0.5-0.4c0.2-0.1,0.4-0.1,0.7-0.1c0.2,0,0.4,0,0.6,0.1
		c0.2,0.1,0.3,0.2,0.5,0.3c0.1,0.1,0.2,0.3,0.3,0.5c0.1,0.2,0.1,0.4,0.1,0.6v0.4H117L117,55.4z M118.2,53.9c-0.2,0-0.3,0-0.4,0.1
		c-0.1,0-0.2,0.1-0.4,0.2c-0.1,0.1-0.2,0.2-0.3,0.3c-0.1,0.1-0.1,0.3-0.1,0.5h2.1c0-0.2,0-0.4-0.1-0.5c-0.1-0.1-0.1-0.2-0.2-0.3
		c-0.1-0.1-0.2-0.1-0.3-0.2C118.5,53.9,118.4,53.9,118.2,53.9L118.2,53.9z"/>
	<path d="M121.1,53.5h0.5l0,0.4c0.2-0.2,0.4-0.3,0.6-0.4c0.2-0.1,0.5-0.1,0.7-0.1c0.2,0,0.4,0,0.6,0.1c0.2,0.1,0.3,0.1,0.4,0.2
		c0.1,0.1,0.2,0.3,0.2,0.4c0,0.2,0.1,0.4,0.1,0.6v2.5h-0.5v-2.5c0-0.2,0-0.3-0.1-0.4c0-0.1-0.1-0.2-0.2-0.3
		c-0.1-0.1-0.2-0.1-0.3-0.2c-0.1,0-0.2,0-0.4,0c-0.2,0-0.5,0-0.7,0.1c-0.2,0.1-0.4,0.2-0.6,0.3v3h-0.5V53.5L121.1,53.5z"/>
	<path d="M125.2,53.5h0.6v-1l0.5-0.1v1.1h1.2V54h-1.2v2.3c0,0.1,0,0.3,0,0.4c0,0.1,0.1,0.2,0.1,0.2c0,0.1,0.1,0.1,0.2,0.1
		c0.1,0,0.2,0,0.3,0c0.1,0,0.1,0,0.2,0c0.1,0,0.1,0,0.2,0c0.1,0,0.1,0,0.2,0c0.1,0,0.1,0,0.1,0l0,0.4c-0.1,0-0.2,0.1-0.3,0.1
		c-0.1,0-0.3,0-0.4,0c-0.2,0-0.3,0-0.5,0c-0.1,0-0.3-0.1-0.3-0.2c-0.1-0.1-0.2-0.2-0.2-0.4c0-0.1-0.1-0.3-0.1-0.6V54h-0.7
		L125.2,53.5L125.2,53.5z"/>
	<polygon points="128.9,56.8 129.5,56.8 129.5,57.3 128.9,57.3 128.9,56.8 	"/>
	<path d="M132.7,54.7c0-0.4,0.1-0.8,0.2-1.1c0.1-0.3,0.3-0.6,0.5-0.8c0.2-0.2,0.4-0.4,0.7-0.5c0.3-0.1,0.6-0.2,1-0.2
		c0.3,0,0.5,0,0.7,0.1c0.2,0.1,0.3,0.1,0.5,0.2l-0.2,0.4c-0.1-0.1-0.3-0.1-0.5-0.2c-0.2,0-0.4-0.1-0.5-0.1c-0.3,0-0.5,0-0.7,0.1
		c-0.2,0.1-0.4,0.2-0.6,0.4c-0.2,0.2-0.3,0.4-0.4,0.7c-0.1,0.3-0.1,0.6-0.1,1c0,0.4,0,0.7,0.1,1c0.1,0.3,0.2,0.5,0.4,0.7
		c0.2,0.2,0.4,0.3,0.6,0.4c0.2,0.1,0.5,0.1,0.8,0.1c0.1,0,0.2,0,0.3,0c0.1,0,0.2,0,0.3-0.1c0.1,0,0.2,0,0.2-0.1
		c0.1,0,0.1-0.1,0.2-0.1l0.1,0.3c-0.1,0.1-0.3,0.2-0.5,0.2c-0.2,0.1-0.5,0.1-0.7,0.1c-0.4,0-0.7-0.1-1-0.2c-0.3-0.1-0.5-0.3-0.8-0.5
		c-0.2-0.2-0.4-0.5-0.5-0.8C132.7,55.5,132.7,55.1,132.7,54.7L132.7,54.7z"/>
	<path d="M137.3,55.4c0-0.3,0-0.6,0.1-0.8c0.1-0.2,0.2-0.4,0.3-0.6c0.1-0.2,0.3-0.3,0.5-0.4c0.2-0.1,0.5-0.1,0.7-0.1
		c0.3,0,0.5,0,0.7,0.1c0.2,0.1,0.4,0.2,0.6,0.4c0.2,0.2,0.3,0.4,0.4,0.6c0.1,0.2,0.1,0.5,0.1,0.8c0,0.3,0,0.6-0.1,0.8
		c-0.1,0.2-0.2,0.4-0.4,0.6c-0.2,0.2-0.3,0.3-0.6,0.4c-0.2,0.1-0.5,0.1-0.7,0.1c-0.3,0-0.5,0-0.7-0.1c-0.2-0.1-0.4-0.2-0.5-0.4
		c-0.1-0.2-0.3-0.4-0.3-0.6C137.3,56,137.3,55.7,137.3,55.4L137.3,55.4z M137.8,55.4c0,0.3,0,0.5,0.1,0.7c0.1,0.2,0.1,0.4,0.2,0.5
		c0.1,0.1,0.2,0.2,0.4,0.3c0.1,0.1,0.3,0.1,0.5,0.1c0.2,0,0.4,0,0.5-0.1c0.2-0.1,0.3-0.2,0.4-0.3c0.1-0.1,0.2-0.3,0.3-0.5
		c0.1-0.2,0.1-0.4,0.1-0.7c0-0.3,0-0.5-0.1-0.7c-0.1-0.2-0.2-0.4-0.3-0.5c-0.1-0.1-0.3-0.2-0.4-0.3c-0.2-0.1-0.3-0.1-0.5-0.1
		c-0.2,0-0.4,0-0.5,0.1c-0.2,0.1-0.3,0.2-0.4,0.3c-0.1,0.1-0.2,0.3-0.2,0.5C137.8,54.9,137.8,55.2,137.8,55.4L137.8,55.4z"/>
	<path d="M145.2,57.3h-0.5v-0.4c-0.2,0.2-0.4,0.3-0.6,0.4c-0.2,0.1-0.5,0.1-0.7,0.1c-0.2,0-0.4,0-0.5-0.1c-0.1,0-0.3-0.1-0.4-0.2
		c-0.1-0.1-0.2-0.2-0.2-0.4c-0.1-0.2-0.1-0.4-0.1-0.7v-2.5h0.5V56c0,0.2,0,0.3,0,0.4c0,0.1,0.1,0.2,0.1,0.3c0.1,0.1,0.1,0.1,0.2,0.2
		c0.1,0,0.2,0,0.3,0c0.2,0,0.5,0,0.7-0.1c0.2-0.1,0.4-0.2,0.6-0.3v-3h0.5V57.3L145.2,57.3z"/>
	<path d="M146.7,53.5h0.5l0,0.5c0.2-0.2,0.3-0.3,0.5-0.4c0.2-0.1,0.4-0.1,0.6-0.1c0.1,0,0.1,0,0.2,0c0.1,0,0.1,0,0.2,0l-0.1,0.5
		c-0.1,0-0.1,0-0.2,0c-0.1,0-0.1,0-0.2,0c-0.2,0-0.3,0-0.5,0.1c-0.2,0.1-0.3,0.2-0.4,0.4v2.8h-0.5V53.5L146.7,53.5z"/>
	<path d="M149.1,53.5h0.6v-1l0.5-0.1v1.1h1.2V54h-1.2v2.3c0,0.1,0,0.3,0,0.4c0,0.1,0.1,0.2,0.1,0.2c0,0.1,0.1,0.1,0.2,0.1
		c0.1,0,0.2,0,0.3,0c0.1,0,0.1,0,0.2,0c0.1,0,0.1,0,0.2,0c0.1,0,0.1,0,0.2,0c0.1,0,0.1,0,0.1,0l0,0.4c-0.1,0-0.2,0.1-0.3,0.1
		c-0.1,0-0.3,0-0.4,0c-0.2,0-0.3,0-0.5,0c-0.1,0-0.3-0.1-0.3-0.2c-0.1-0.1-0.2-0.2-0.2-0.4c0-0.1-0.1-0.3-0.1-0.6V54H149L149.1,53.5
		L149.1,53.5z"/>
	<path d="M153,55.4L153,55.4c0,0.3,0,0.5,0.1,0.7c0.1,0.2,0.1,0.3,0.2,0.5c0.1,0.1,0.2,0.2,0.4,0.3c0.2,0.1,0.4,0.1,0.6,0.1
		c0.1,0,0.3,0,0.4,0c0.1,0,0.2,0,0.3-0.1c0.1,0,0.2,0,0.2-0.1c0.1,0,0.1-0.1,0.2-0.1l0.2,0.4c-0.2,0.1-0.3,0.1-0.6,0.2
		c-0.2,0-0.5,0.1-0.7,0.1c-0.3,0-0.6,0-0.8-0.1c-0.2-0.1-0.4-0.2-0.6-0.4c-0.2-0.2-0.3-0.4-0.3-0.6c-0.1-0.2-0.1-0.5-0.1-0.8
		c0-0.3,0-0.6,0.1-0.8c0.1-0.2,0.2-0.5,0.3-0.6c0.1-0.2,0.3-0.3,0.5-0.4c0.2-0.1,0.4-0.1,0.7-0.1c0.2,0,0.4,0,0.6,0.1
		c0.2,0.1,0.3,0.2,0.5,0.3c0.1,0.1,0.2,0.3,0.3,0.5c0.1,0.2,0.1,0.4,0.1,0.6v0.4H153L153,55.4z M154.2,53.9c-0.2,0-0.3,0-0.4,0.1
		c-0.1,0-0.2,0.1-0.4,0.2c-0.1,0.1-0.2,0.2-0.3,0.3c-0.1,0.1-0.1,0.3-0.1,0.5h2.1c0-0.2,0-0.4-0.1-0.5c-0.1-0.1-0.1-0.2-0.2-0.3
		c-0.1-0.1-0.2-0.1-0.3-0.2C154.4,53.9,154.3,53.9,154.2,53.9L154.2,53.9z"/>
	<path d="M159.5,56.3c0,0.1,0,0.3-0.1,0.4c-0.1,0.1-0.2,0.2-0.3,0.3c-0.1,0.1-0.3,0.2-0.4,0.2c-0.2,0.1-0.4,0.1-0.6,0.1
		c-0.1,0-0.3,0-0.4,0c-0.1,0-0.3,0-0.4-0.1c-0.1,0-0.2-0.1-0.3-0.1c-0.1,0-0.2-0.1-0.3-0.1l0.1-0.4c0.1,0,0.2,0.1,0.3,0.1
		c0.1,0,0.2,0.1,0.3,0.1c0.1,0,0.2,0,0.3,0.1c0.1,0,0.3,0,0.4,0c0.1,0,0.3,0,0.4,0c0.1,0,0.2-0.1,0.3-0.1c0.1-0.1,0.1-0.1,0.2-0.2
		c0-0.1,0.1-0.2,0.1-0.2c0-0.1,0-0.2-0.1-0.3c0-0.1-0.1-0.1-0.2-0.2c-0.1-0.1-0.2-0.1-0.3-0.2c-0.1,0-0.3-0.1-0.4-0.1
		c-0.2,0-0.3-0.1-0.5-0.2c-0.2-0.1-0.3-0.2-0.4-0.2c-0.1-0.1-0.2-0.2-0.3-0.3c-0.1-0.1-0.1-0.2-0.1-0.3c0-0.2,0-0.3,0.1-0.4
		c0.1-0.1,0.2-0.2,0.3-0.3c0.1-0.1,0.3-0.2,0.4-0.2c0.2,0,0.4-0.1,0.6-0.1c0.3,0,0.5,0,0.7,0.1c0.2,0.1,0.4,0.1,0.5,0.2l-0.1,0.4
		c-0.1,0-0.2-0.1-0.2-0.1c-0.1,0-0.2-0.1-0.2-0.1c-0.1,0-0.2,0-0.3-0.1c-0.1,0-0.2,0-0.4,0c-0.3,0-0.5,0.1-0.6,0.2
		c-0.1,0.1-0.2,0.2-0.2,0.4c0,0.1,0,0.1,0,0.2c0,0.1,0.1,0.1,0.1,0.2c0.1,0.1,0.1,0.1,0.3,0.2c0.1,0.1,0.2,0.1,0.4,0.1
		c0.2,0.1,0.5,0.1,0.6,0.2c0.2,0.1,0.3,0.2,0.4,0.3c0.1,0.1,0.2,0.2,0.3,0.3C159.5,56.1,159.5,56.2,159.5,56.3L159.5,56.3z"/>
	<path d="M162.2,57.5c-0.1,0.3-0.2,0.5-0.3,0.7c-0.1,0.2-0.2,0.3-0.3,0.4c-0.1,0.1-0.2,0.2-0.3,0.2c-0.1,0-0.3,0.1-0.4,0.1
		c-0.1,0-0.1,0-0.2,0c-0.1,0-0.1,0-0.2,0l0.1-0.4c0,0,0,0,0.1,0c0,0,0.1,0,0.1,0c0,0,0.1,0,0.1,0c0,0,0.1,0,0.1,0c0.1,0,0.2,0,0.3,0
		c0.1,0,0.1-0.1,0.2-0.1c0.1-0.1,0.1-0.2,0.2-0.3c0.1-0.1,0.1-0.3,0.2-0.5l-1.4-3.9h0.5l1.1,3.3l1.2-3.3h0.5L162.2,57.5L162.2,57.5
		L162.2,57.5z"/>
	<polygon points="164.5,56.8 165.1,56.8 165.1,57.3 164.5,57.3 164.5,56.8 	"/>
	<path d="M168.3,54.7c0-0.4,0.1-0.8,0.2-1.1c0.1-0.3,0.3-0.6,0.5-0.8c0.2-0.2,0.4-0.4,0.7-0.5c0.3-0.1,0.6-0.2,1-0.2
		c0.3,0,0.5,0,0.7,0.1c0.2,0.1,0.3,0.1,0.5,0.2l-0.2,0.4c-0.1-0.1-0.3-0.1-0.5-0.2c-0.2,0-0.4-0.1-0.5-0.1c-0.3,0-0.5,0-0.7,0.1
		c-0.2,0.1-0.4,0.2-0.6,0.4c-0.2,0.2-0.3,0.4-0.4,0.7c-0.1,0.3-0.1,0.6-0.1,1c0,0.4,0,0.7,0.1,1c0.1,0.3,0.2,0.5,0.4,0.7
		c0.2,0.2,0.4,0.3,0.6,0.4c0.2,0.1,0.5,0.1,0.8,0.1c0.1,0,0.2,0,0.3,0c0.1,0,0.2,0,0.3-0.1c0.1,0,0.2,0,0.2-0.1
		c0.1,0,0.1-0.1,0.2-0.1l0.1,0.3c-0.1,0.1-0.3,0.2-0.5,0.2c-0.2,0.1-0.5,0.1-0.7,0.1c-0.4,0-0.7-0.1-1-0.2c-0.3-0.1-0.5-0.3-0.8-0.5
		c-0.2-0.2-0.4-0.5-0.5-0.8C168.4,55.5,168.3,55.1,168.3,54.7L168.3,54.7z"/>
	<path d="M172.9,55.4c0-0.3,0-0.6,0.1-0.8c0.1-0.2,0.2-0.4,0.3-0.6c0.1-0.2,0.3-0.3,0.5-0.4c0.2-0.1,0.5-0.1,0.7-0.1
		c0.3,0,0.5,0,0.7,0.1c0.2,0.1,0.4,0.2,0.6,0.4c0.2,0.2,0.3,0.4,0.4,0.6c0.1,0.2,0.1,0.5,0.1,0.8c0,0.3,0,0.6-0.1,0.8
		c-0.1,0.2-0.2,0.4-0.4,0.6c-0.2,0.2-0.3,0.3-0.6,0.4c-0.2,0.1-0.5,0.1-0.7,0.1c-0.3,0-0.5,0-0.7-0.1c-0.2-0.1-0.4-0.2-0.5-0.4
		c-0.1-0.2-0.3-0.4-0.3-0.6C172.9,56,172.9,55.7,172.9,55.4L172.9,55.4z M173.4,55.4c0,0.3,0,0.5,0.1,0.7c0.1,0.2,0.1,0.4,0.2,0.5
		c0.1,0.1,0.2,0.2,0.4,0.3c0.1,0.1,0.3,0.1,0.5,0.1c0.2,0,0.4,0,0.5-0.1c0.2-0.1,0.3-0.2,0.4-0.3c0.1-0.1,0.2-0.3,0.3-0.5
		c0.1-0.2,0.1-0.4,0.1-0.7c0-0.3,0-0.5-0.1-0.7c-0.1-0.2-0.2-0.4-0.3-0.5c-0.1-0.1-0.3-0.2-0.4-0.3c-0.2-0.1-0.3-0.1-0.5-0.1
		c-0.2,0-0.4,0-0.5,0.1c-0.2,0.1-0.3,0.2-0.4,0.3c-0.1,0.1-0.2,0.3-0.2,0.5C173.4,54.9,173.4,55.2,173.4,55.4L173.4,55.4z"/>
	<path d="M177.7,53.5h0.5l0,0.4c0.2-0.2,0.4-0.3,0.6-0.4c0.2-0.1,0.5-0.1,0.7-0.1c0.2,0,0.4,0,0.6,0.1c0.2,0.1,0.3,0.1,0.4,0.2
		c0.1,0.1,0.2,0.3,0.2,0.4c0,0.2,0.1,0.4,0.1,0.6v2.5h-0.5v-2.5c0-0.2,0-0.3-0.1-0.4c0-0.1-0.1-0.2-0.2-0.3
		c-0.1-0.1-0.2-0.1-0.3-0.2c-0.1,0-0.2,0-0.4,0c-0.2,0-0.5,0-0.7,0.1c-0.2,0.1-0.4,0.2-0.6,0.3v3h-0.5V53.5L177.7,53.5z"/>
	<path d="M181.9,53.5h0.6v-0.2c0-0.3,0-0.5,0.1-0.7c0.1-0.2,0.2-0.3,0.3-0.5c0.1-0.1,0.3-0.2,0.5-0.3c0.2-0.1,0.5-0.1,0.7-0.1
		c0.1,0,0.2,0,0.3,0c0.1,0,0.2,0,0.3,0c0.1,0,0.2,0,0.3,0c0.1,0,0.2,0,0.2,0v0.4c-0.1,0-0.1,0-0.2,0c-0.1,0-0.2,0-0.3,0
		c-0.1,0-0.2,0-0.3,0c-0.1,0-0.2,0-0.3,0c-0.2,0-0.4,0-0.6,0.1c-0.2,0-0.3,0.1-0.4,0.2c-0.1,0.1-0.2,0.2-0.2,0.3
		c-0.1,0.1-0.1,0.3-0.1,0.5v0.2h1.1V54H183v3.3h-0.5V54h-0.7L181.9,53.5L181.9,53.5z M184.9,53.5h0.5v3.8h-0.5V53.5L184.9,53.5z"/>
	<path d="M189.6,57.3V57c-0.1,0.1-0.2,0.1-0.2,0.2c-0.1,0-0.2,0.1-0.2,0.1c-0.1,0-0.2,0.1-0.3,0.1c-0.1,0-0.2,0-0.4,0
		c-0.2,0-0.5,0-0.7-0.1c-0.2-0.1-0.4-0.2-0.5-0.4c-0.1-0.2-0.2-0.4-0.3-0.6c-0.1-0.2-0.1-0.5-0.1-0.8c0-0.3,0-0.6,0.1-0.8
		c0.1-0.2,0.2-0.4,0.3-0.6c0.1-0.2,0.3-0.3,0.5-0.4c0.2-0.1,0.4-0.1,0.7-0.1c0.1,0,0.3,0,0.4,0c0.1,0,0.2,0,0.3,0.1
		c0.1,0,0.2,0.1,0.3,0.1c0.1,0,0.2,0.1,0.2,0.2V52h0.5v5.3H189.6L189.6,57.3z M187.4,55.4c0,0.3,0,0.5,0.1,0.7
		c0,0.2,0.1,0.4,0.2,0.5c0.1,0.1,0.2,0.2,0.4,0.3c0.2,0.1,0.3,0.1,0.6,0.1c0.2,0,0.4,0,0.5-0.1c0.2-0.1,0.3-0.1,0.4-0.2v-2.5
		c-0.1-0.1-0.3-0.2-0.4-0.2c-0.2-0.1-0.3-0.1-0.5-0.1c-0.2,0-0.4,0-0.6,0.1c-0.2,0.1-0.3,0.2-0.4,0.3c-0.1,0.1-0.2,0.3-0.2,0.5
		C187.4,54.9,187.4,55.2,187.4,55.4L187.4,55.4z"/>
	<path d="M191.9,55.4L191.9,55.4c0,0.3,0,0.5,0.1,0.7c0.1,0.2,0.1,0.3,0.2,0.5c0.1,0.1,0.2,0.2,0.4,0.3c0.2,0.1,0.4,0.1,0.6,0.1
		c0.1,0,0.3,0,0.4,0c0.1,0,0.2,0,0.3-0.1c0.1,0,0.2,0,0.2-0.1c0.1,0,0.1-0.1,0.2-0.1l0.2,0.4c-0.2,0.1-0.3,0.1-0.6,0.2
		c-0.2,0-0.5,0.1-0.7,0.1c-0.3,0-0.6,0-0.8-0.1c-0.2-0.1-0.4-0.2-0.6-0.4c-0.2-0.2-0.3-0.4-0.3-0.6c-0.1-0.2-0.1-0.5-0.1-0.8
		c0-0.3,0-0.6,0.1-0.8c0.1-0.2,0.2-0.5,0.3-0.6c0.1-0.2,0.3-0.3,0.5-0.4c0.2-0.1,0.4-0.1,0.7-0.1c0.2,0,0.4,0,0.6,0.1
		c0.2,0.1,0.3,0.2,0.5,0.3c0.1,0.1,0.2,0.3,0.3,0.5c0.1,0.2,0.1,0.4,0.1,0.6v0.4H191.9L191.9,55.4z M193.1,53.9
		c-0.2,0-0.3,0-0.4,0.1c-0.1,0-0.2,0.1-0.4,0.2c-0.1,0.1-0.2,0.2-0.3,0.3c-0.1,0.1-0.1,0.3-0.1,0.5h2.1c0-0.2,0-0.4-0.1-0.5
		c-0.1-0.1-0.1-0.2-0.2-0.3c-0.1-0.1-0.2-0.1-0.3-0.2C193.3,53.9,193.2,53.9,193.1,53.9L193.1,53.9z"/>
	<path d="M195.9,53.5h0.5l0,0.4c0.2-0.2,0.4-0.3,0.6-0.4c0.2-0.1,0.5-0.1,0.7-0.1c0.2,0,0.4,0,0.6,0.1c0.2,0.1,0.3,0.1,0.4,0.2
		c0.1,0.1,0.2,0.3,0.2,0.4c0,0.2,0.1,0.4,0.1,0.6v2.5h-0.5v-2.5c0-0.2,0-0.3-0.1-0.4c0-0.1-0.1-0.2-0.2-0.3
		c-0.1-0.1-0.2-0.1-0.3-0.2c-0.1,0-0.2,0-0.4,0c-0.2,0-0.5,0-0.7,0.1c-0.2,0.1-0.4,0.2-0.6,0.3v3h-0.5V53.5L195.9,53.5z"/>
	<path d="M200.3,55.4c0-0.3,0-0.6,0.1-0.8c0.1-0.2,0.2-0.4,0.4-0.6c0.2-0.2,0.3-0.3,0.6-0.4c0.2-0.1,0.5-0.1,0.8-0.1
		c0.2,0,0.4,0,0.6,0.1c0.2,0,0.3,0.1,0.4,0.2L203,54c0,0-0.1,0-0.1-0.1c-0.1,0-0.1,0-0.2-0.1c-0.1,0-0.1,0-0.2,0c-0.1,0-0.2,0-0.3,0
		c-0.2,0-0.4,0-0.6,0.1c-0.2,0.1-0.3,0.2-0.4,0.3c-0.1,0.1-0.2,0.3-0.3,0.5c-0.1,0.2-0.1,0.4-0.1,0.7c0,0.3,0,0.5,0.1,0.7
		c0.1,0.2,0.2,0.4,0.3,0.5c0.1,0.1,0.3,0.2,0.4,0.3c0.2,0.1,0.4,0.1,0.6,0.1c0.2,0,0.4,0,0.6-0.1c0.2,0,0.3-0.1,0.4-0.1l0.2,0.4
		c-0.1,0.1-0.3,0.1-0.5,0.2c-0.2,0-0.4,0.1-0.7,0.1c-0.3,0-0.6,0-0.8-0.1c-0.2-0.1-0.4-0.2-0.6-0.4c-0.2-0.2-0.3-0.4-0.4-0.6
		C200.3,56,200.3,55.7,200.3,55.4L200.3,55.4z"/>
	<path d="M204.5,55.4L204.5,55.4c0,0.3,0,0.5,0.1,0.7c0.1,0.2,0.1,0.3,0.2,0.5c0.1,0.1,0.2,0.2,0.4,0.3c0.2,0.1,0.4,0.1,0.6,0.1
		c0.1,0,0.3,0,0.4,0c0.1,0,0.2,0,0.3-0.1c0.1,0,0.2,0,0.2-0.1c0.1,0,0.1-0.1,0.2-0.1l0.2,0.4c-0.2,0.1-0.3,0.1-0.6,0.2
		c-0.2,0-0.5,0.1-0.7,0.1c-0.3,0-0.6,0-0.8-0.1c-0.2-0.1-0.4-0.2-0.6-0.4c-0.2-0.2-0.3-0.4-0.3-0.6c-0.1-0.2-0.1-0.5-0.1-0.8
		c0-0.3,0-0.6,0.1-0.8c0.1-0.2,0.2-0.5,0.3-0.6c0.1-0.2,0.3-0.3,0.5-0.4c0.2-0.1,0.4-0.1,0.7-0.1c0.2,0,0.4,0,0.6,0.1
		c0.2,0.1,0.3,0.2,0.5,0.3c0.1,0.1,0.2,0.3,0.3,0.5c0.1,0.2,0.1,0.4,0.1,0.6v0.4H204.5L204.5,55.4z M205.8,53.9
		c-0.2,0-0.3,0-0.4,0.1c-0.1,0-0.2,0.1-0.4,0.2c-0.1,0.1-0.2,0.2-0.3,0.3c-0.1,0.1-0.1,0.3-0.1,0.5h2.1c0-0.2,0-0.4-0.1-0.5
		c-0.1-0.1-0.1-0.2-0.2-0.3c-0.1-0.1-0.2-0.1-0.3-0.2C206,53.9,205.9,53.9,205.8,53.9L205.8,53.9z"/>
</g>
</svg>
