<?xml version="1.0" encoding="utf-8"?>
<!-- Generator: Adobe Illustrator 23.0.6, SVG Export Plug-In . SVG Version: 6.00 Build 0)  -->
<svg version="1.1" xmlns="http://www.w3.org/2000/svg" xmlns:xlink="http://www.w3.org/1999/xlink" x="0px" y="0px"
	 viewBox="0 0 256 193" style="enable-background:new 0 0 256 193;" xml:space="preserve">
<style type="text/css">
	.st0{display:none;}
	.st1{display:none;fill:#FFFFFF;}
	.st2{fill-rule:evenodd;clip-rule:evenodd;fill:#21CDEC;}
	.st3{fill:#21CDEC;}
	.st4{fill:#A1C240;}
</style>
<g id="Layer_1" class="st0">
	<image style="display:inline;overflow:visible;" width="256" height="193" xlink:href="../ingi_screen-12-1.jpg" >
	</image>
</g>
<g id="Layer_2">
	<rect x="24.7" y="24.4" class="st1" width="206.6" height="144.3"/>
</g>
<g id="Layer_3">
	<g>
		<path class="st2" d="M65.1,68.4C49.6,68.4,37,81.1,37,96.6c0,2.2,0.3,4.4,0.8,6.5c-0.1-0.9-0.2-1.9-0.2-2.8
			c0-12.3,10-22.2,22.2-22.2c12.3,0,22.2,10,22.2,22.2c0,12.3-10,22.2-22.2,22.2c-3.6,0-7-0.9-10.1-2.4c4.4,2.9,9.6,4.5,15.3,4.5
			c15.6,0,28.1-12.5,28.1-28S80.6,68.4,65.1,68.4L65.1,68.4z"/>
		<polygon class="st2" points="25.4,113.6 28.5,111.8 30.4,115 27.2,116.8 		"/>
		<polygon class="st2" points="30.7,110.5 33.9,108.7 35.7,111.8 32.6,113.7 		"/>
		<polygon class="st2" points="36.1,107.3 39.3,105.6 41.1,108.8 37.9,110.6 		"/>
		<polygon class="st2" points="41.4,104.3 44.6,102.5 46.5,105.7 43.3,107.5 		"/>
		<polygon class="st2" points="46.8,101.3 50,99.3 51.8,102.6 48.6,104.3 		"/>
		<polygon class="st2" points="52.2,98.2 55.3,96.3 57.2,99.5 54,101.3 		"/>
		<polygon class="st2" points="57.5,95.1 60.7,93.2 62.5,96.3 59.4,98.3 		"/>
		<polygon class="st2" points="49.4,93.3 52.6,91.6 54.4,94.7 51.2,96.6 		"/>
		<polygon class="st2" points="28.5,119.2 31.7,117.3 33.6,120.5 30.4,122.3 		"/>
		<polygon class="st2" points="33.9,116.1 37.1,114.2 38.9,117.3 35.7,119.3 		"/>
		<polygon class="st2" points="39.3,113 42.5,111.1 44.3,114.3 41.1,116.2 		"/>
		<polygon class="st2" points="44.6,109.8 47.8,108 49.7,111.2 46.5,113.1 		"/>
		<polygon class="st2" points="50,106.8 53.2,105 55,108.1 51.8,110 		"/>
		<polygon class="st2" points="55.4,103.7 58.5,101.8 60.4,105 57.2,106.8 		"/>
		<polygon class="st2" points="60.7,100.6 63.9,98.8 65.7,101.8 62.6,103.8 		"/>
		<polygon class="st2" points="58.7,109.6 61.9,107.7 63.8,110.8 60.6,112.7 		"/>
		<polygon class="st2" points="65,95.3 68.1,93.4 70,96.7 66.8,98.5 		"/>
		<polygon class="st3" points="109.1,76.9 109.1,92.8 106.5,92.8 106.5,76.9 101,76.9 101,75.1 114.7,75.1 114.7,76.9 		"/>
		<path class="st3" d="M118.9,75.1h5.8c1,0,1.9,0.1,2.7,0.3c0.8,0.2,1.4,0.6,2,1c0.5,0.4,0.9,1,1.2,1.6c0.3,0.6,0.4,1.3,0.4,2.1
			c0,0.5-0.1,1-0.2,1.4c-0.2,0.4-0.4,0.9-0.6,1.3c-0.3,0.4-0.6,0.8-0.9,1.1s-0.7,0.6-1.1,0.8l3.8,8.2h-2.7l-3.5-7.6h-4.2v7.6H119
			V75.1H118.9z M121.5,76.9v6.4h5.3c0.2-0.2,0.4-0.3,0.6-0.5c0.2-0.2,0.4-0.4,0.5-0.6c0.1-0.3,0.3-0.5,0.4-0.9
			c0.1-0.3,0.1-0.7,0.1-1.2c0-0.6-0.1-1.1-0.3-1.5c-0.2-0.4-0.4-0.7-0.8-1c-0.3-0.3-0.8-0.4-1.2-0.5c-0.5-0.1-1.1-0.2-1.7-0.2H121.5
			L121.5,76.9z"/>
		<path class="st3" d="M147.6,75.1h2.6v12.4c0,0.9-0.2,1.7-0.5,2.4c-0.3,0.7-0.8,1.3-1.4,1.8c-0.6,0.5-1.3,0.9-2.2,1.1
			c-0.9,0.3-1.8,0.4-2.8,0.4s-2-0.1-2.8-0.4c-0.8-0.2-1.6-0.6-2.2-1.1c-0.6-0.5-1.1-1.1-1.4-1.8s-0.5-1.5-0.5-2.4V75.1h2.6v12.4
			c0,0.6,0.1,1.1,0.3,1.6s0.5,0.9,0.9,1.2c0.4,0.3,0.8,0.6,1.4,0.7c0.5,0.2,1.1,0.3,1.8,0.3s1.3-0.1,1.8-0.3c0.5-0.2,1-0.4,1.4-0.7
			c0.4-0.3,0.7-0.7,0.9-1.2s0.3-1,0.3-1.6V75.1H147.6z"/>
		<polygon class="st3" points="155.9,92.8 155.9,75.1 166.4,75.1 166.4,76.9 158.4,76.9 158.4,82.8 165.4,82.8 165.4,84.7 
			158.4,84.7 158.4,90.9 166.4,90.9 166.4,92.8 		"/>
		<polygon class="st3" points="170.9,75.1 173.4,75.1 173.4,90.9 181.4,90.9 181.4,92.8 170.9,92.8 		"/>
		<polygon class="st3" points="184.8,92.8 184.8,90.9 187.2,90.9 187.2,76.9 184.8,76.9 184.8,75.1 192.2,75.1 192.2,76.9 
			189.8,76.9 189.8,90.9 192.2,90.9 192.2,92.8 		"/>
		<polygon class="st3" points="197.3,75.1 199.9,75.1 199.9,75.1 199.9,74.9 209.1,88.8 209.1,75.1 211.7,75.1 211.7,92.8 
			209.1,92.8 199.9,78.9 199.9,92.8 197.3,92.8 		"/>
		<polygon class="st3" points="217.3,92.8 217.3,75.1 227.8,75.1 227.8,76.9 219.9,76.9 219.9,82.8 226.9,82.8 226.9,84.7 
			219.9,84.7 219.9,90.9 227.8,90.9 227.8,92.8 		"/>
		<polygon class="st4" points="106.7,98.6 106.7,109.7 104.9,109.7 104.9,98.6 101,98.6 101,97.2 110.6,97.2 110.6,98.6 		"/>
		<polygon class="st4" points="112.7,109.7 112.7,97.2 120,97.2 120,98.6 114.5,98.6 114.5,102.6 119.4,102.6 119.4,104 114.5,104 
			114.5,108.3 120,108.3 120,109.7 		"/>
		<path class="st4" d="M121.8,103.3c0-1,0.1-1.8,0.4-2.6c0.3-0.8,0.6-1.5,1.1-2c0.5-0.6,1.1-1,1.8-1.3c0.7-0.3,1.5-0.5,2.4-0.5
			c0.3,0,0.6,0,0.8,0.1c0.3,0,0.5,0.1,0.7,0.1c0.2,0.1,0.4,0.1,0.6,0.2c0.2,0.1,0.3,0.1,0.5,0.2l-0.5,1.2c-0.3-0.1-0.6-0.3-1-0.3
			c-0.3-0.1-0.7-0.1-1.2-0.1c-0.6,0-1.1,0.1-1.6,0.3c-0.5,0.2-0.9,0.5-1.2,0.9c-0.3,0.4-0.6,0.9-0.8,1.6c-0.2,0.6-0.3,1.4-0.3,2.3
			c0,0.9,0.1,1.7,0.3,2.3c0.2,0.6,0.5,1.2,0.8,1.6c0.4,0.4,0.8,0.7,1.3,0.9c0.5,0.2,1.1,0.3,1.7,0.3c0.3,0,0.5,0,0.7-0.1
			c0.2,0,0.4-0.1,0.6-0.1c0.2-0.1,0.4-0.1,0.5-0.2c0.2-0.1,0.3-0.1,0.4-0.2l0.4,1.2c-0.3,0.2-0.7,0.4-1.2,0.5s-1,0.2-1.7,0.2
			c-0.9,0-1.7-0.2-2.4-0.5c-0.7-0.3-1.3-0.7-1.8-1.3s-0.9-1.2-1.1-2C121.9,105.3,121.8,104.3,121.8,103.3L121.8,103.3z"/>
		<polygon class="st4" points="132.4,97.2 134.2,97.2 134.2,102.8 140.2,102.8 140.2,97.2 142,97.2 142,109.7 140.2,109.7 
			140.2,104.1 134.2,104.1 134.2,109.7 132.4,109.7 		"/>
		<polygon class="st4" points="145.1,97.2 146.9,97.2 146.9,97.2 146.9,97.2 153.3,106.8 153.3,97.2 155.1,97.2 155.1,109.7 
			153.3,109.7 146.9,100 146.9,109.7 145.1,109.7 		"/>
		<path class="st4" d="M157.6,103.5c0-1,0.1-1.9,0.4-2.7c0.3-0.8,0.6-1.5,1.1-2c0.5-0.6,1.1-1,1.7-1.3c0.7-0.3,1.4-0.5,2.2-0.5
			s1.5,0.2,2.2,0.5c0.7,0.3,1.2,0.7,1.7,1.3s0.9,1.2,1.1,2c0.3,0.8,0.4,1.7,0.4,2.7s-0.1,1.9-0.4,2.7c-0.3,0.8-0.6,1.5-1.1,2
			c-0.5,0.6-1.1,1-1.7,1.3c-0.7,0.3-1.4,0.4-2.2,0.4s-1.5-0.1-2.2-0.4s-1.2-0.7-1.7-1.3s-0.8-1.2-1.1-2
			C157.7,105.3,157.6,104.3,157.6,103.5L157.6,103.5z M159.4,103.5c0,0.9,0.1,1.6,0.3,2.2s0.4,1.2,0.7,1.6c0.3,0.4,0.7,0.7,1.2,1
			c0.4,0.2,0.9,0.3,1.5,0.3c0.5,0,1-0.1,1.5-0.3c0.4-0.2,0.8-0.5,1.2-1c0.3-0.4,0.6-1,0.7-1.6c0.2-0.6,0.3-1.4,0.3-2.2
			c0-0.9-0.1-1.6-0.3-2.2c-0.2-0.6-0.4-1.2-0.7-1.6s-0.7-0.7-1.2-1c-0.5-0.2-0.9-0.3-1.5-0.3c-0.5,0-1,0.1-1.5,0.3
			c-0.4,0.2-0.8,0.5-1.2,1c-0.3,0.4-0.6,1-0.7,1.6C159.4,101.8,159.4,102.6,159.4,103.5L159.4,103.5z"/>
		<polygon class="st4" points="170.9,97.2 172.8,97.2 172.8,108.3 178.4,108.3 178.4,109.7 170.9,109.7 		"/>
		<path class="st4" d="M179.4,103.5c0-1,0.1-1.9,0.4-2.7c0.3-0.8,0.6-1.5,1.1-2c0.5-0.6,1.1-1,1.7-1.3c0.7-0.3,1.4-0.5,2.2-0.5
			s1.5,0.2,2.2,0.5c0.7,0.3,1.2,0.7,1.7,1.3s0.9,1.2,1.1,2c0.3,0.8,0.4,1.7,0.4,2.7s-0.1,1.9-0.4,2.7c-0.3,0.8-0.6,1.5-1.1,2
			c-0.5,0.6-1.1,1-1.7,1.3c-0.7,0.3-1.4,0.4-2.2,0.4s-1.5-0.1-2.2-0.4s-1.2-0.7-1.7-1.3s-0.8-1.2-1.1-2
			C179.7,105.3,179.4,104.3,179.4,103.5L179.4,103.5z M181.3,103.5c0,0.9,0.1,1.6,0.3,2.2s0.4,1.2,0.7,1.6c0.3,0.4,0.7,0.7,1.2,1
			c0.4,0.2,0.9,0.3,1.5,0.3c0.5,0,1-0.1,1.5-0.3c0.4-0.2,0.8-0.5,1.2-1c0.3-0.4,0.6-1,0.7-1.6c0.2-0.6,0.3-1.4,0.3-2.2
			c0-0.9-0.1-1.6-0.3-2.2c-0.2-0.6-0.4-1.2-0.7-1.6s-0.7-0.7-1.2-1c-0.5-0.2-0.9-0.3-1.5-0.3c-0.5,0-1,0.1-1.5,0.3
			c-0.4,0.2-0.8,0.5-1.2,1c-0.3,0.4-0.6,1-0.7,1.6C181.4,101.8,181.3,102.6,181.3,103.5L181.3,103.5z"/>
		<path class="st4" d="M197.8,103.3h4.5v5.7c-0.6,0.3-1.2,0.4-1.9,0.6c-0.6,0.1-1.3,0.2-2.1,0.2c-0.9,0-1.8-0.2-2.5-0.5
			c-0.7-0.3-1.4-0.8-1.9-1.4c-0.5-0.6-0.9-1.3-1.2-2c-0.3-0.8-0.4-1.6-0.4-2.5c0-1,0.2-1.9,0.4-2.7c0.3-0.8,0.7-1.5,1.3-2
			c0.6-0.6,1.2-1,2-1.3c0.8-0.3,1.7-0.5,2.7-0.5c0.3,0,0.6,0,0.9,0c0.3,0,0.5,0.1,0.7,0.1c0.2,0.1,0.4,0.1,0.6,0.2
			c0.2,0.1,0.3,0.1,0.5,0.2l-0.4,1.3c-0.3-0.1-0.6-0.2-1-0.3s-0.8-0.1-1.3-0.1c-0.7,0-1.4,0.1-2,0.3c-0.6,0.2-1.1,0.5-1.5,1
			c-0.4,0.4-0.7,1-0.9,1.6s-0.3,1.4-0.3,2.2c0,0.7,0.1,1.3,0.3,1.9c0.2,0.6,0.5,1.2,0.8,1.6c0.4,0.5,0.8,0.8,1.3,1.1
			c0.5,0.3,1.1,0.4,1.8,0.4c0.4,0,0.8,0,1.1-0.1c0.3,0,0.7-0.1,1-0.2v-3.5h-2.7v-1.3H197.8z"/>
		<polygon class="st4" points="204.8,109.7 204.8,108.3 206.4,108.3 206.4,98.6 204.8,98.6 204.8,97.2 209.9,97.2 209.9,98.6 
			208.3,98.6 208.3,108.3 209.9,108.3 209.9,109.7 		"/>
		<polygon class="st4" points="212.7,109.7 212.7,97.2 220.1,97.2 220.1,98.6 214.4,98.6 214.4,102.6 219.4,102.6 219.4,104 
			214.4,104 214.4,108.3 220.1,108.3 220.1,109.7 		"/>
		<path class="st4" d="M229.9,106.3c0,0.5-0.1,1-0.3,1.4s-0.5,0.8-0.9,1.1c-0.4,0.3-0.8,0.5-1.3,0.7c-0.5,0.2-1.1,0.2-1.7,0.2
			c-0.4,0-0.7,0-1.1-0.1c-0.4,0-0.7-0.1-1.1-0.1c-0.3-0.1-0.7-0.1-1-0.2s-0.6-0.2-0.8-0.3l0.5-1.3c0.3,0.1,0.5,0.2,0.8,0.3
			s0.5,0.2,0.8,0.2c0.3,0.1,0.6,0.1,0.9,0.2c0.3,0,0.6,0.1,1,0.1s0.7,0,1-0.1s0.6-0.2,0.8-0.4c0.2-0.2,0.4-0.4,0.5-0.7
			c0.1-0.3,0.2-0.5,0.2-0.9c0-0.3-0.1-0.6-0.2-0.8c-0.1-0.2-0.3-0.4-0.6-0.6s-0.6-0.4-0.9-0.5c-0.4-0.2-0.8-0.3-1.2-0.4
			c-0.5-0.1-0.9-0.3-1.4-0.6c-0.4-0.2-0.8-0.5-1.1-0.8c-0.3-0.3-0.6-0.6-0.7-1c-0.2-0.4-0.3-0.8-0.3-1.3s0.1-1,0.3-1.4
			s0.5-0.8,0.8-1.1c0.4-0.3,0.8-0.5,1.3-0.7c0.5-0.2,1.1-0.2,1.7-0.2c0.4,0,0.8,0,1.1,0.1c0.4,0.1,0.7,0.1,1,0.2s0.6,0.2,0.8,0.2
			c0.3,0.1,0.5,0.2,0.6,0.2l-0.4,1.4c-0.3-0.1-0.5-0.2-0.7-0.3s-0.5-0.2-0.7-0.2c-0.2-0.1-0.5-0.1-0.8-0.2c-0.3,0-0.6-0.1-0.9-0.1
			c-0.4,0-0.7,0.1-1.1,0.2c-0.3,0.1-0.6,0.2-0.8,0.4c-0.2,0.2-0.4,0.4-0.5,0.7c-0.1,0.3-0.2,0.5-0.2,0.8c0,0.5,0.2,1,0.6,1.3
			c0.4,0.4,1.1,0.7,2,1c0.6,0.2,1.2,0.4,1.7,0.7c0.5,0.2,0.9,0.5,1.2,0.8c0.3,0.3,0.6,0.6,0.7,1C229.8,105.5,229.9,106,229.9,106.3
			L229.9,106.3z"/>
		<path d="M104.5,120.3c0-0.4,0.1-0.8,0.2-1.1c0.1-0.3,0.3-0.6,0.5-0.8c0.2-0.2,0.4-0.4,0.7-0.5c0.3-0.1,0.6-0.2,1-0.2
			c0.3,0,0.5,0,0.7,0.1s0.3,0.1,0.5,0.2l-0.2,0.4c-0.1-0.1-0.3-0.1-0.5-0.2c-0.2,0-0.4-0.1-0.5-0.1c-0.3,0-0.5,0-0.7,0.1
			s-0.4,0.2-0.6,0.4c-0.2,0.2-0.3,0.4-0.4,0.7c-0.1,0.3-0.1,0.6-0.1,1s0,0.7,0.1,1c0.1,0.3,0.2,0.5,0.4,0.7c0.2,0.2,0.4,0.3,0.6,0.4
			s0.5,0.1,0.8,0.1c0.1,0,0.2,0,0.3,0c0.1,0,0.2,0,0.3-0.1c0.1,0,0.2,0,0.2-0.1c0.1,0,0.1-0.1,0.2-0.1l0.1,0.3
			c-0.1,0.1-0.3,0.2-0.5,0.2c-0.2,0.1-0.5,0.1-0.7,0.1c-0.4,0-0.7-0.1-1-0.2s-0.5-0.3-0.8-0.5c-0.2-0.2-0.4-0.5-0.5-0.8
			C104.5,121.1,104.5,120.7,104.5,120.3L104.5,120.3z"/>
		<path d="M109.1,121c0-0.3,0-0.6,0.1-0.8c0.1-0.2,0.2-0.4,0.3-0.6c0.1-0.2,0.3-0.3,0.5-0.4c0.2-0.1,0.5-0.1,0.7-0.1
			c0.3,0,0.5,0,0.7,0.1s0.4,0.2,0.6,0.4c0.2,0.2,0.3,0.4,0.4,0.6c0.1,0.2,0.1,0.5,0.1,0.8c0,0.3,0,0.6-0.1,0.8
			c-0.1,0.2-0.2,0.4-0.4,0.6c-0.2,0.2-0.3,0.3-0.6,0.4c-0.2,0.1-0.5,0.1-0.7,0.1c-0.3,0-0.5,0-0.7-0.1s-0.4-0.2-0.5-0.4
			c-0.1-0.2-0.3-0.4-0.3-0.6C109.1,121.6,109.1,121.3,109.1,121L109.1,121z M109.6,121c0,0.3,0,0.5,0.1,0.7c0.1,0.2,0.1,0.4,0.2,0.5
			s0.2,0.2,0.4,0.3c0.1,0.1,0.3,0.1,0.5,0.1s0.4,0,0.5-0.1c0.2-0.1,0.3-0.2,0.4-0.3s0.2-0.3,0.3-0.5c0.1-0.2,0.1-0.4,0.1-0.7
			c0-0.3,0-0.5-0.1-0.7c-0.1-0.2-0.2-0.4-0.3-0.5c-0.1-0.1-0.2-0.2-0.4-0.2c-0.2-0.1-0.3-0.1-0.5-0.1s-0.4,0-0.5,0.1
			c-0.2,0.1-0.3,0.2-0.4,0.3s-0.2,0.3-0.2,0.5C109.6,120.5,109.6,120.8,109.6,121L109.6,121z"/>
		<path d="M113.9,119.1h0.5v0.3c0.2-0.1,0.4-0.3,0.6-0.3c0.2-0.1,0.5-0.1,0.7-0.1c0.3,0,0.5,0,0.7,0.1s0.3,0.2,0.4,0.3
			c0.2-0.1,0.4-0.2,0.6-0.3s0.5-0.1,0.7-0.1s0.4,0,0.5,0.1c0.2,0,0.3,0.1,0.4,0.2s0.2,0.2,0.2,0.4c0.1,0.2,0.1,0.4,0.1,0.7v2.4h-0.5
			v-2.4c0-0.2,0-0.3-0.1-0.5c0-0.1-0.1-0.2-0.2-0.3c0.1,0,0,0-0.1-0.1c-0.1,0-0.2-0.1-0.3-0.1c-0.2,0-0.4,0-0.6,0.1
			s-0.4,0.2-0.5,0.3v0.1v0.1v2.8h-0.5v-2.8c0-0.2-0.1-0.4-0.2-0.5s-0.3-0.1-0.6-0.1c-0.2,0-0.5,0-0.7,0.1s-0.4,0.2-0.6,0.3v3h-0.5
			L113.9,119.1L113.9,119.1z"/>
		<path d="M120.9,119.1h0.5v0.3c0.2-0.1,0.4-0.3,0.6-0.3c0.2-0.1,0.5-0.1,0.7-0.1c0.3,0,0.5,0,0.7,0.1s0.3,0.2,0.4,0.3
			c0.2-0.1,0.4-0.2,0.6-0.3s0.5-0.1,0.7-0.1s0.4,0,0.5,0.1c0.2,0,0.3,0.1,0.4,0.2s0.2,0.2,0.2,0.4c0.1,0.2,0.1,0.4,0.1,0.7v2.4h-0.5
			v-2.4c0-0.2,0-0.3-0.1-0.5c0-0.1-0.1-0.2-0.2-0.3s-0.2-0.1-0.3-0.2c-0.1,0-0.2-0.1-0.3-0.1c-0.2,0-0.4,0-0.6,0.1s-0.4,0.2-0.5,0.3
			v0.1v0.1v2.8h-0.5v-2.8c0-0.2-0.1-0.4-0.2-0.5s-0.3-0.1-0.6-0.1c-0.2,0-0.5,0-0.7,0.1s-0.4,0.2-0.6,0.3v3h-0.5v-3.6H120.9z"/>
		<path d="M128.1,119.1h0.5v3.8h-0.5V119.1L128.1,119.1z M128,117.6h0.7v0.6H128V117.6L128,117.6z"/>
		<path d="M129.7,119.1h0.6v-1l0.5-0.1v1.1h1.2v0.5h-1.2v2.3c0,0.1,0,0.3,0,0.4s0.1,0.2,0.1,0.2c0,0.1,0.1,0.1,0.2,0.1
			c0.1,0,0.2,0,0.3,0c0.1,0,0.1,0,0.2,0c0.1,0,0.1,0,0.2,0c0.1,0,0.1,0,0.2,0c0.1,0,0.1,0,0.1,0v0.4c-0.1,0-0.2,0.1-0.3,0.1
			c-0.1,0-0.3,0-0.4,0c-0.2,0-0.3,0-0.5,0c-0.1,0-0.3-0.1-0.3-0.2c-0.1-0.1-0.2-0.2-0.2-0.4c0-0.1-0.1-0.3-0.1-0.6v-2.3h-0.7
			L129.7,119.1L129.7,119.1z"/>
		<path d="M133.3,119.1h0.5v0.3c0.2-0.1,0.4-0.3,0.6-0.3c0.2-0.1,0.5-0.1,0.7-0.1c0.3,0,0.5,0,0.7,0.1s0.3,0.2,0.4,0.3
			c0.2-0.1,0.4-0.2,0.6-0.3s0.5-0.1,0.7-0.1s0.4,0,0.5,0.1c0.2,0,0.3,0.1,0.4,0.2c0.1,0.1,0.2,0.2,0.2,0.4c0.1,0.2,0.1,0.4,0.1,0.7
			v2.4h-0.5v-2.4c0-0.2,0-0.3-0.1-0.5c0-0.1-0.1-0.2-0.2-0.3c-0.1-0.1-0.2-0.1-0.3-0.2c-0.1,0-0.2-0.1-0.3-0.1c-0.2,0-0.4,0-0.6,0.1
			s-0.4,0.2-0.5,0.3v0.1v0.1v2.8h-0.5v-2.8c0-0.2-0.1-0.4-0.2-0.5c-0.1-0.1-0.3-0.1-0.6-0.1c-0.2,0-0.5,0-0.7,0.1s-0.4,0.2-0.6,0.3
			v3h-0.5v-3.6H133.3z"/>
		<path d="M140.6,121L140.6,121c0,0.3,0,0.5,0.1,0.7c0.1,0.2,0.1,0.3,0.2,0.5c0.1,0.1,0.2,0.2,0.4,0.3s0.4,0.1,0.6,0.1
			c0.1,0,0.3,0,0.4,0c0.1,0,0.2,0,0.3-0.1c0.1,0,0.2,0,0.2-0.1c0.1,0,0.1-0.1,0.2-0.1l0.2,0.4c-0.2,0.1-0.3,0.1-0.6,0.2
			c-0.2,0-0.5,0.1-0.7,0.1c-0.3,0-0.6,0-0.8-0.1s-0.4-0.2-0.6-0.4c-0.2-0.2-0.3-0.4-0.3-0.6c-0.1-0.2-0.1-0.5-0.1-0.8
			c0-0.3,0-0.6,0.1-0.8c0.1-0.2,0.2-0.5,0.3-0.6c0.1-0.2,0.3-0.3,0.5-0.4c0.2-0.1,0.4-0.1,0.7-0.1c0.2,0,0.4,0,0.6,0.1
			s0.3,0.2,0.5,0.3c0.1,0.1,0.2,0.3,0.3,0.5c0.1,0.2,0.1,0.4,0.1,0.6v0.4h-2.6V121z M141.8,119.5c-0.2,0-0.3,0-0.4,0.1
			c-0.1,0-0.2,0.1-0.4,0.2c-0.1,0.1-0.2,0.2-0.3,0.3c-0.1,0.1-0.1,0.3-0.1,0.5h2.1c0-0.2,0-0.4-0.1-0.5c-0.1-0.1-0.1-0.2-0.2-0.3
			c-0.1-0.1-0.2-0.1-0.3-0.2C142.1,119.5,142,119.5,141.8,119.5L141.8,119.5z"/>
		<path d="M144.7,119.1h0.5v0.4c0.2-0.2,0.4-0.3,0.6-0.4s0.5-0.1,0.7-0.1s0.4,0,0.6,0.1s0.3,0.1,0.4,0.2c0.1,0.1,0.2,0.3,0.2,0.4
			c0,0.2,0.1,0.4,0.1,0.6v2.5h-0.5v-2.5c0-0.2,0-0.3-0.1-0.4c0-0.1-0.1-0.2-0.2-0.3c-0.1-0.1-0.2-0.1-0.3-0.2c-0.1,0-0.2,0-0.4,0
			s-0.5,0-0.7,0.1s-0.4,0.2-0.6,0.3v3h-0.5v-3.7H144.7z"/>
		<path d="M148.8,119.1h0.6v-1l0.5-0.1v1.1h1.2v0.5h-1.2v2.3c0,0.1,0,0.3,0,0.4s0.1,0.2,0.1,0.2c0,0.1,0.1,0.1,0.2,0.1
			c0.1,0,0.2,0,0.3,0s0.1,0,0.2,0c0.1,0,0.1,0,0.2,0c0.1,0,0.1,0,0.2,0c0.1,0,0.1,0,0.1,0v0.4c-0.1,0-0.2,0.1-0.3,0.1s-0.3,0-0.4,0
			c-0.2,0-0.3,0-0.5,0c-0.1,0-0.3-0.1-0.3-0.2c-0.1-0.1-0.2-0.2-0.2-0.4c0-0.1-0.1-0.3-0.1-0.6v-2.3h-0.7L148.8,119.1L148.8,119.1z"
			/>
		<polygon points="152.4,122.3 153.1,122.3 153.1,122.8 152.4,122.8 		"/>
		<path d="M156.3,120.3c0-0.4,0.1-0.8,0.2-1.1c0.1-0.3,0.3-0.6,0.5-0.8c0.2-0.2,0.4-0.4,0.7-0.5s0.6-0.2,1-0.2c0.3,0,0.5,0,0.7,0.1
			s0.3,0.1,0.5,0.2l-0.2,0.4c-0.1-0.1-0.3-0.1-0.5-0.2c-0.2,0-0.4-0.1-0.5-0.1c-0.3,0-0.5,0-0.7,0.1s-0.4,0.2-0.6,0.4
			c-0.2,0.2-0.3,0.4-0.4,0.7c-0.1,0.3-0.1,0.6-0.1,1s0,0.7,0.1,1c0.1,0.3,0.2,0.5,0.4,0.7c0.2,0.2,0.4,0.3,0.6,0.4
			c0.2,0.1,0.5,0.1,0.8,0.1c0.1,0,0.2,0,0.3,0s0.2,0,0.3-0.1c0.1,0,0.2,0,0.2-0.1c0.1,0,0.1-0.1,0.2-0.1l0.1,0.3
			c-0.1,0.1-0.3,0.2-0.5,0.2c-0.2,0.1-0.5,0.1-0.7,0.1c-0.4,0-0.7-0.1-1-0.2s-0.5-0.3-0.8-0.5c-0.2-0.2-0.4-0.5-0.5-0.8
			C156.3,121.1,156.3,120.7,156.3,120.3L156.3,120.3z"/>
		<path d="M160.9,121c0-0.3,0-0.6,0.1-0.8c0.1-0.2,0.2-0.4,0.3-0.6s0.3-0.3,0.5-0.4c0.2-0.1,0.5-0.1,0.7-0.1c0.3,0,0.5,0,0.7,0.1
			s0.4,0.2,0.6,0.4c0.2,0.2,0.3,0.4,0.4,0.6c0.1,0.2,0.1,0.5,0.1,0.8c0,0.3,0,0.6-0.1,0.8c-0.1,0.2-0.2,0.4-0.4,0.6
			c-0.2,0.2-0.3,0.3-0.6,0.4c-0.2,0.1-0.5,0.1-0.7,0.1c-0.3,0-0.5,0-0.7-0.1s-0.4-0.2-0.5-0.4c-0.1-0.2-0.3-0.4-0.3-0.6
			C160.9,121.6,160.9,121.3,160.9,121L160.9,121z M161.4,121c0,0.3,0,0.5,0.1,0.7c0.1,0.2,0.1,0.4,0.2,0.5c0.1,0.1,0.2,0.2,0.4,0.3
			c0.1,0.1,0.3,0.1,0.5,0.1s0.4,0,0.5-0.1c0.2-0.1,0.3-0.2,0.4-0.3c0.1-0.1,0.2-0.3,0.3-0.5c0.1-0.2,0.1-0.4,0.1-0.7
			c0-0.3,0-0.5-0.1-0.7c-0.1-0.2-0.2-0.4-0.3-0.5s-0.3-0.2-0.4-0.3c-0.2-0.1-0.3-0.1-0.5-0.1s-0.4,0-0.5,0.1
			c-0.2,0.1-0.3,0.2-0.4,0.3c-0.1,0.1-0.2,0.3-0.2,0.5C161.4,120.5,161.4,120.8,161.4,121L161.4,121z"/>
		<path d="M168.8,122.8h-0.5v-0.4c-0.2,0.2-0.4,0.3-0.6,0.4c-0.2,0.1-0.5,0.1-0.7,0.1s-0.4,0-0.5-0.1c-0.1,0-0.3-0.1-0.4-0.2
			c-0.1-0.1-0.2-0.2-0.2-0.4c-0.1-0.2-0.1-0.4-0.1-0.7V119h0.5v2.5c0,0.2,0,0.3,0,0.4c0,0.1,0.1,0.2,0.1,0.3
			c0.1,0.1,0.1,0.1,0.2,0.2c0.1,0,0.2,0,0.3,0c0.2,0,0.5,0,0.7-0.1s0.4-0.2,0.6-0.3v-3h0.5L168.8,122.8L168.8,122.8z"/>
		<path d="M170.3,119.1h0.5v0.5c0.2-0.2,0.3-0.3,0.5-0.4s0.4-0.1,0.6-0.1c0.1,0,0.1,0,0.2,0c0.1,0,0.1,0,0.2,0l-0.1,0.5
			c-0.1,0-0.1,0-0.2,0c-0.1,0-0.1,0-0.2,0c-0.2,0-0.3,0-0.5,0.1s-0.3,0.2-0.4,0.4v2.8h-0.5v-3.8H170.3z"/>
		<path d="M172.7,119.1h0.6v-1l0.5-0.1v1.1h1.2v0.5h-1.2v2.3c0,0.1,0,0.3,0,0.4s0.1,0.2,0.1,0.2c0,0.1,0.1,0.1,0.2,0.1
			c0.1,0,0.2,0,0.3,0s0.1,0,0.2,0c0.1,0,0.1,0,0.2,0c0.1,0,0.1,0,0.2,0c0.1,0,0.1,0,0.1,0v0.4c-0.1,0-0.2,0.1-0.3,0.1s-0.3,0-0.4,0
			c-0.2,0-0.3,0-0.5,0c-0.1,0-0.3-0.1-0.3-0.2c-0.1-0.1-0.2-0.2-0.2-0.4c0-0.1-0.1-0.3-0.1-0.6v-2.3h-0.7L172.7,119.1L172.7,119.1z"
			/>
		<path d="M176.6,121L176.6,121c0,0.3,0,0.5,0.1,0.7c0.1,0.2,0.1,0.3,0.2,0.5c0.1,0.1,0.2,0.2,0.4,0.3s0.4,0.1,0.6,0.1
			c0.1,0,0.3,0,0.4,0c0.1,0,0.2,0,0.3-0.1c0.1,0,0.2,0,0.2-0.1c0.1,0,0.1-0.1,0.2-0.1l0.2,0.4c-0.2,0.1-0.3,0.1-0.6,0.2
			c-0.2,0-0.5,0.1-0.7,0.1c-0.3,0-0.6,0-0.8-0.1s-0.4-0.2-0.6-0.4c-0.2-0.2-0.3-0.4-0.3-0.6c-0.1-0.2-0.1-0.5-0.1-0.8
			c0-0.3,0-0.6,0.1-0.8c0.1-0.2,0.2-0.5,0.3-0.6c0.1-0.2,0.3-0.3,0.5-0.4c0.2-0.1,0.4-0.1,0.7-0.1c0.2,0,0.4,0,0.6,0.1
			c0.2,0.1,0.3,0.2,0.5,0.3c0.1,0.1,0.2,0.3,0.3,0.5c0.1,0.2,0.1,0.4,0.1,0.6v0.4h-2.6V121z M177.8,119.5c-0.2,0-0.3,0-0.4,0.1
			c-0.1,0-0.2,0.1-0.4,0.2c-0.1,0.1-0.2,0.2-0.3,0.3s-0.1,0.3-0.1,0.5h2.1c0-0.2,0-0.4-0.1-0.5s-0.1-0.2-0.2-0.3
			c-0.1-0.1-0.2-0.1-0.3-0.2S177.9,119.5,177.8,119.5L177.8,119.5z"/>
		<path d="M183.1,121.8c0,0.1,0,0.3-0.1,0.4s-0.2,0.2-0.3,0.3s-0.3,0.2-0.4,0.2c-0.2,0.1-0.4,0.1-0.6,0.1c-0.1,0-0.3,0-0.4,0
			c-0.1,0-0.3,0-0.4-0.1c-0.1,0-0.2-0.1-0.3-0.1s-0.2-0.1-0.3-0.1l0.1-0.4c0.1,0,0.2,0.1,0.3,0.1s0.2,0.1,0.3,0.1s0.2,0,0.3,0.1
			c0.1,0,0.3,0,0.4,0c0.1,0,0.3,0,0.4,0c0.1,0,0.2-0.1,0.3-0.1c0.1-0.1,0.1-0.1,0.2-0.2c0-0.1,0.1-0.2,0.1-0.2c0-0.1,0-0.2-0.1-0.3
			c0-0.1-0.1-0.1-0.2-0.2c-0.1-0.1-0.2-0.1-0.3-0.2c-0.1,0-0.3-0.1-0.4-0.1c-0.2,0-0.3-0.1-0.5-0.2c-0.2-0.1-0.3-0.2-0.4-0.2
			c-0.1-0.1-0.2-0.2-0.3-0.3s-0.1-0.2-0.1-0.3c0-0.2,0-0.3,0.1-0.4s0.2-0.2,0.3-0.3s0.3-0.2,0.4-0.2c0.2,0,0.4-0.1,0.6-0.1
			c0.3,0,0.5,0,0.7,0.1s0.4,0.1,0.5,0.2l-0.1,0.4c-0.1,0-0.2-0.1-0.2-0.1c-0.1,0-0.2-0.1-0.2-0.1c-0.1,0-0.2,0-0.3-0.1
			c-0.1,0-0.2,0-0.4,0c-0.3,0-0.5,0.1-0.6,0.2c-0.1,0.1-0.2,0.2-0.2,0.4c0,0.1,0,0.1,0,0.2s0.1,0.1,0.1,0.2c0.1,0.1,0.1,0.1,0.3,0.2
			c0.1,0.1,0.2,0.1,0.4,0.1c0.2,0.1,0.5,0.1,0.6,0.2c0.2,0.1,0.3,0.2,0.4,0.3c0.1,0.1,0.2,0.2,0.3,0.3
			C183.1,121.7,183.1,121.8,183.1,121.8L183.1,121.8z"/>
		<path d="M185.8,123.1c-0.1,0.3-0.2,0.5-0.3,0.7c-0.1,0.2-0.2,0.3-0.3,0.4s-0.2,0.2-0.3,0.2s-0.3,0.1-0.4,0.1c-0.1,0-0.1,0-0.2,0
			c-0.1,0-0.1,0-0.2,0l0.1-0.4c0,0,0,0,0.1,0h0.1h0.1h0.1c0.1,0,0.2,0,0.3,0s0.1-0.1,0.2-0.1c0.1-0.1,0.1-0.2,0.2-0.3
			c0.1-0.1,0.1-0.3,0.2-0.5l-1.4-3.9h0.5l1.1,3.3l1.2-3.3h0.5L185.8,123.1L185.8,123.1L185.8,123.1z"/>
		<polygon points="188.1,122.3 188.7,122.3 188.7,122.8 188.1,122.8 		"/>
		<path d="M191.9,120.3c0-0.4,0.1-0.8,0.2-1.1c0.1-0.3,0.3-0.6,0.5-0.8c0.2-0.2,0.4-0.4,0.7-0.5s0.6-0.2,1-0.2c0.3,0,0.5,0,0.7,0.1
			s0.3,0.1,0.5,0.2l-0.2,0.4c-0.1-0.1-0.3-0.1-0.5-0.2c-0.2,0-0.4-0.1-0.5-0.1c-0.3,0-0.5,0-0.7,0.1s-0.4,0.2-0.6,0.4
			c-0.2,0.2-0.3,0.4-0.4,0.7c-0.1,0.3-0.1,0.6-0.1,1s0,0.7,0.1,1c0.1,0.3,0.2,0.5,0.4,0.7c0.2,0.2,0.4,0.3,0.6,0.4
			c0.2,0.1,0.5,0.1,0.8,0.1c0.1,0,0.2,0,0.3,0s0.2,0,0.3-0.1c0.1,0,0.2,0,0.2-0.1c0.1,0,0.1-0.1,0.2-0.1l0.1,0.3
			c-0.1,0.1-0.3,0.2-0.5,0.2c-0.2,0.1-0.5,0.1-0.7,0.1c-0.4,0-0.7-0.1-1-0.2s-0.5-0.3-0.8-0.5c-0.2-0.2-0.4-0.5-0.5-0.8
			C191.9,121.1,191.9,120.7,191.9,120.3L191.9,120.3z"/>
		<path d="M196.4,121c0-0.3,0-0.6,0.1-0.8c0.1-0.2,0.2-0.4,0.3-0.6s0.3-0.3,0.5-0.4c0.2-0.1,0.5-0.1,0.7-0.1c0.3,0,0.5,0,0.7,0.1
			s0.4,0.2,0.6,0.4c0.2,0.2,0.3,0.4,0.4,0.6c0.1,0.2,0.1,0.5,0.1,0.8c0,0.3,0,0.6-0.1,0.8c-0.1,0.2-0.2,0.4-0.4,0.6
			c-0.2,0.2-0.3,0.3-0.6,0.4c-0.2,0.1-0.5,0.1-0.7,0.1c-0.3,0-0.5,0-0.7-0.1s-0.4-0.2-0.5-0.4c-0.1-0.2-0.3-0.4-0.3-0.6
			C196.4,121.6,196.4,121.3,196.4,121L196.4,121z M196.9,121c0,0.3,0,0.5,0.1,0.7c0.1,0.2,0.1,0.4,0.2,0.5c0.1,0.1,0.2,0.2,0.4,0.3
			c0.1,0.1,0.3,0.1,0.5,0.1s0.4,0,0.5-0.1c0.2-0.1,0.3-0.2,0.4-0.3c0.1-0.1,0.2-0.3,0.3-0.5c0.1-0.2,0.1-0.4,0.1-0.7
			c0-0.3,0-0.5-0.1-0.7c-0.1-0.2-0.2-0.4-0.3-0.5s-0.3-0.2-0.4-0.3c-0.2-0.1-0.3-0.1-0.5-0.1s-0.4,0-0.5,0.1
			c-0.2,0.1-0.3,0.2-0.4,0.3c-0.1,0.1-0.2,0.3-0.2,0.5C196.9,120.5,196.9,120.8,196.9,121L196.9,121z"/>
		<path d="M201.3,119.1h0.5v0.4c0.2-0.2,0.4-0.3,0.6-0.4c0.2-0.1,0.5-0.1,0.7-0.1s0.4,0,0.6,0.1c0.2,0.1,0.3,0.1,0.4,0.2
			c0.1,0.1,0.2,0.3,0.2,0.4c0,0.2,0.1,0.4,0.1,0.6v2.5h-0.5v-2.5c0-0.2,0-0.3-0.1-0.4c0-0.1-0.1-0.2-0.2-0.3
			c-0.1-0.1-0.2-0.1-0.3-0.2c-0.1,0-0.2,0-0.4,0s-0.5,0-0.7,0.1s-0.4,0.2-0.6,0.3v3h-0.5v-3.7H201.3z"/>
		<path d="M205.4,119.1h0.6v-0.2c0-0.3,0-0.5,0.1-0.7c0.1-0.2,0.2-0.3,0.3-0.5c0.1-0.1,0.3-0.2,0.5-0.3s0.5-0.1,0.7-0.1
			c0.1,0,0.2,0,0.3,0s0.2,0,0.3,0s0.2,0,0.3,0s0.2,0,0.2,0v0.4c-0.1,0-0.1,0-0.2,0c-0.1,0-0.2,0-0.3,0s-0.2,0-0.3,0s-0.2,0-0.3,0
			c-0.2,0-0.4,0-0.6,0.1c-0.2,0-0.3,0.1-0.4,0.2c-0.1,0.1-0.2,0.2-0.2,0.3c-0.1,0.1-0.1,0.3-0.1,0.5v0.2h1.1v0.6h-0.9v3.3h-0.5v-3.3
			h-0.7L205.4,119.1L205.4,119.1z M208.4,119.1h0.5v3.8h-0.5V119.1L208.4,119.1z"/>
		<path d="M213.2,122.8v-0.3c-0.1,0.1-0.2,0.1-0.2,0.2c-0.1,0-0.2,0.1-0.2,0.1c-0.1,0-0.2,0.1-0.3,0.1s-0.2,0-0.4,0s-0.5,0-0.7-0.1
			s-0.4-0.2-0.5-0.4c-0.1-0.2-0.2-0.4-0.3-0.6s-0.1-0.5-0.1-0.8c0-0.3,0-0.6,0.1-0.8c0.1-0.2,0.2-0.4,0.3-0.6s0.3-0.3,0.5-0.4
			c0.2-0.1,0.4-0.1,0.7-0.1c0.1,0,0.3,0,0.4,0c0.1,0,0.2,0,0.3,0.1c0.1,0,0.2,0.1,0.3,0.1s0.2,0.1,0.2,0.2v-2h0.5v5.3H213.2
			L213.2,122.8z M210.9,121c0,0.3,0,0.5,0.1,0.7c0,0.2,0.1,0.4,0.2,0.5c0.1,0.1,0.2,0.2,0.4,0.3s0.3,0.1,0.6,0.1
			c0.2,0,0.4,0,0.5-0.1c0.2-0.1,0.3-0.1,0.4-0.2v-2.5c-0.1-0.1-0.3-0.2-0.4-0.2c-0.2-0.1-0.3-0.1-0.5-0.1s-0.4,0-0.6,0.1
			c-0.2,0.1-0.3,0.2-0.4,0.3c-0.1,0.1-0.2,0.3-0.2,0.5C210.9,120.5,210.9,120.8,210.9,121L210.9,121z"/>
		<path d="M215.4,121L215.4,121c0,0.3,0,0.5,0.1,0.7c0.1,0.2,0.1,0.3,0.2,0.5c0.1,0.1,0.2,0.2,0.4,0.3s0.4,0.1,0.6,0.1
			c0.1,0,0.3,0,0.4,0c0.1,0,0.2,0,0.3-0.1c0.1,0,0.2,0,0.2-0.1c0.1,0,0.1-0.1,0.2-0.1l0.2,0.4c-0.2,0.1-0.3,0.1-0.6,0.2
			c-0.2,0-0.5,0.1-0.7,0.1c-0.3,0-0.6,0-0.8-0.1s-0.4-0.2-0.6-0.4c-0.2-0.2-0.3-0.4-0.3-0.6c-0.1-0.2-0.1-0.5-0.1-0.8
			c0-0.3,0-0.6,0.1-0.8c0.1-0.2,0.2-0.5,0.3-0.6c0.1-0.2,0.3-0.3,0.5-0.4c0.2-0.1,0.4-0.1,0.7-0.1c0.2,0,0.4,0,0.6,0.1
			c0.2,0.1,0.3,0.2,0.5,0.3c0.1,0.1,0.2,0.3,0.3,0.5c0.1,0.2,0.1,0.4,0.1,0.6v0.4h-2.6V121z M216.7,119.5c-0.2,0-0.3,0-0.4,0.1
			c-0.1,0-0.2,0.1-0.4,0.2c-0.1,0.1-0.2,0.2-0.3,0.3s-0.1,0.3-0.1,0.5h2.1c0-0.2,0-0.4-0.1-0.5s-0.1-0.2-0.2-0.3
			c-0.1-0.1-0.2-0.1-0.3-0.2S216.8,119.5,216.7,119.5L216.7,119.5z"/>
		<path d="M219.4,119.1h0.5v0.4c0.2-0.2,0.4-0.3,0.6-0.4c0.2-0.1,0.5-0.1,0.7-0.1s0.4,0,0.6,0.1c0.2,0.1,0.3,0.1,0.4,0.2
			c0.1,0.1,0.2,0.3,0.2,0.4c0,0.2,0.1,0.4,0.1,0.6v2.5h-0.5v-2.5c0-0.2,0-0.3-0.1-0.4c0-0.1-0.1-0.2-0.2-0.3
			c-0.1-0.1-0.2-0.1-0.3-0.2c-0.1,0-0.2,0-0.4,0s-0.5,0-0.7,0.1s-0.4,0.2-0.6,0.3v3h-0.5v-3.7H219.4z"/>
		<path d="M223.9,121c0-0.3,0-0.6,0.1-0.8c0.1-0.2,0.2-0.4,0.4-0.6s0.3-0.3,0.6-0.4c0.2-0.1,0.5-0.1,0.8-0.1c0.2,0,0.4,0,0.6,0.1
			c0.2,0,0.3,0.1,0.4,0.2l-0.2,0.2c0,0-0.1,0-0.1-0.1c-0.1,0-0.1,0-0.2-0.1c-0.1,0-0.1,0-0.2,0c-0.1,0-0.2,0-0.3,0
			c-0.2,0-0.4,0-0.6,0.1c-0.2,0.1-0.3,0.2-0.4,0.3c-0.1,0.1-0.2,0.3-0.3,0.5c-0.1,0.2-0.1,0.4-0.1,0.7c0,0.3,0,0.5,0.1,0.7
			c0.1,0.2,0.2,0.4,0.3,0.5s0.3,0.2,0.4,0.3c0.2,0.1,0.4,0.1,0.6,0.1c0.2,0,0.4,0,0.6-0.1c0.2,0,0.3-0.1,0.4-0.1l0.2,0.4
			c-0.1,0.1-0.3,0.1-0.5,0.2c-0.2,0-0.4,0.1-0.7,0.1s-0.6,0-0.8-0.1s-0.4-0.2-0.6-0.4c-0.2-0.2-0.3-0.4-0.4-0.6
			C223.9,121.6,223.9,121.3,223.9,121L223.9,121z"/>
		<path d="M228.1,121L228.1,121c0,0.3,0,0.5,0.1,0.7c0.1,0.2,0.1,0.3,0.2,0.5c0.1,0.1,0.2,0.2,0.4,0.3s0.4,0.1,0.6,0.1
			c0.1,0,0.3,0,0.4,0c0.1,0,0.2,0,0.3-0.1c0.1,0,0.2,0,0.2-0.1c0.1,0,0.1-0.1,0.2-0.1l0.2,0.4c-0.2,0.1-0.3,0.1-0.6,0.2
			c-0.2,0-0.5,0.1-0.7,0.1c-0.3,0-0.6,0-0.8-0.1s-0.4-0.2-0.6-0.4c-0.2-0.2-0.3-0.4-0.3-0.6c-0.1-0.2-0.1-0.5-0.1-0.8
			c0-0.3,0-0.6,0.1-0.8c0.1-0.2,0.2-0.5,0.3-0.6c0.1-0.2,0.3-0.3,0.5-0.4c0.2-0.1,0.4-0.1,0.7-0.1c0.2,0,0.4,0,0.6,0.1
			c0.2,0.1,0.3,0.2,0.5,0.3c0.1,0.1,0.2,0.3,0.3,0.5c0.1,0.2,0.1,0.4,0.1,0.6v0.4h-2.6V121z M229.4,119.5c-0.2,0-0.3,0-0.4,0.1
			c-0.1,0-0.2,0.1-0.4,0.2c-0.1,0.1-0.2,0.2-0.3,0.3s-0.1,0.3-0.1,0.5h2.1c0-0.2,0-0.4-0.1-0.5s-0.1-0.2-0.2-0.3
			c-0.1-0.1-0.2-0.1-0.3-0.2S229.4,119.5,229.4,119.5L229.4,119.5z"/>
	</g>
</g>
</svg>
