<?xml version="1.0" encoding="utf-8"?>
<!-- Generator: Adobe Illustrator 23.0.6, SVG Export Plug-In . SVG Version: 6.00 Build 0)  -->
<svg version="1.1" id="Layer_1" xmlns="http://www.w3.org/2000/svg" xmlns:xlink="http://www.w3.org/1999/xlink" x="0px" y="0px"
	 viewBox="0 0 435.6 84.5" style="enable-background:new 0 0 435.6 84.5;" xml:space="preserve">
<style type="text/css">
	.st0{fill-rule:evenodd;clip-rule:evenodd;fill:url(#SVGID_1_);}
</style>
<linearGradient id="SVGID_1_" gradientUnits="userSpaceOnUse" x1="1.5776" y1="818.2336" x2="434.5627" y2="818.2336" gradientTransform="matrix(1 0 0 1 0 -776)">
	<stop  offset="0" style="stop-color:#81D5D3"/>
	<stop  offset="1" style="stop-color:#009E8B"/>
</linearGradient>
<path class="st0" d="M64.3,47.4c-6,0-8-6.2-8-11.2c0-5.2,1.7-11.6,8.2-11.6c6.4,0,8.4,6.2,8.4,11.6C72.9,41.6,70.8,47.4,64.3,47.4
	L64.3,47.4z M174.2,25.3V27c1.7,0,5.2-0.2,5.8,1.9c0.4,1.3,0.4,7.7,0.4,9.4v12c0,5.6,0.4,7.5-5.8,8v1.5c3.4,0,6.6-0.2,9.7-0.4
	c3,0,6.2,0.2,9,0.4v-1.7c-6.6-0.4-5.8-3-5.8-8.4v-27L174.2,25.3L174.2,25.3z M183,12.2c2.4,0,4.3-2.1,4.3-4.5s-1.9-4.5-4.5-4.5
	c-2.4,0-4.5,2.1-4.5,4.5C178.3,10.3,180.5,12.2,183,12.2L183,12.2z M1.6,25.3V27c1.7,0,5.2-0.2,5.8,1.9c0.4,1.3,0.4,7.7,0.4,9.4v12
	c0,5.6,0.4,7.5-5.8,8v1.5c3.4,0,6.6-0.2,9.7-0.4c3,0,6.2,0.2,9,0.4v-1.7c-6.6-0.4-5.8-3-5.8-8.4v-27L1.6,25.3L1.6,25.3z M10.4,12.2
	c2.4,0,4.3-2.1,4.3-4.5s-1.9-4.5-4.5-4.5S5.7,5.3,5.7,7.7C5.7,10.3,7.9,12.2,10.4,12.2L10.4,12.2z M378.2,23.4
	c-2.1,0-4.3,0.2-6.6,0.4c-2.4,0-4.7-0.2-6.9-0.4v1.7c6.9,0.9,6.4,3,6.4,9.4v14.4c0,7.3,3.2,12,11.6,12c5.4,0,10.7-3,13.7-7.5v-4.9
	c-1.1,5.4-5.4,9.7-11.2,9.7c-6.6,0-6.9-6.7-6.9-11.6V23.4L378.2,23.4z M42.2,34.3c0-8-4.5-11.6-12.5-11.6c-5.6,0-10.1,2.2-12.9,6.9
	V35c0.7-5.4,4.7-9.7,10.7-9.7c8,0,7.7,8.2,7.7,14V50c0,5.6,0.4,7.5-5.8,8v1.7c3.4,0,6.6-0.2,9.7-0.4c3,0,6.2,0.2,9.2,0.4v-1.7
	c-6.6-0.4-5.8-3-5.8-8.4L42.2,34.3L42.2,34.3z M404.8,36c0-2.1,0.2-4.5,0.9-6.2c1.5-2.8,5.2-4.3,8.2-4.3c9.2,0,12,8.6,12,16.3
	c0,8-2.6,16.7-12.2,16.7c-6,0-9-3.2-9-8.8L404.8,36L404.8,36z M404.8,2.5l-13.5,2.6v1.7c1.9,0.2,4.5,0,5.4,2.2
	c0.7,1.7,0.7,6.9,0.7,9v42.3h1.1l3.9-4.9c3,3.6,8.2,5.4,12.7,5.4c10.9,0,18.7-8.6,18.7-19.3c0-10.3-7.5-18.7-18.2-18.7
	c-4.7,0-8.2,1.5-11.4,4.7V2.5H404.8z M337.2,2.5l-13.5,2.6v1.7c1.9,0.2,4.5,0,5.4,2.2c0.7,1.7,0.7,6.9,0.7,9v32.2
	c0,5.6,0.4,7.5-5.8,8v1.5c3.2,0,6.4-0.2,9.5-0.4c3.2,0,6.2,0.2,9.2,0.4v-1.7c-6.6-0.4-5.8-3-5.8-8.4v-9.2c0-3.2,0.2-6.6,1.5-9.2
	c1.7-3.4,5.8-5.8,9.4-5.8c7.1,0,7.7,6.9,7.7,12.4v12.4c0,5.6,0.6,7.5-5.8,8v1.5c2.8,0,6-0.2,9-0.4c3.4,0,6.4,0.2,9.7,0.4v-1.7
	c-6.6-0.4-5.8-3-5.8-8.4V34.5c0-8-4.7-11.8-12.5-11.8c-5.4,0-10.1,2.6-12.9,7.3H337V2.5H337.2z M291,57.7c2.4,2.1,6,3,9.2,3
	c6.4,0,12.4-4.1,12.4-11c0-7.5-5.2-9.7-11-12.7c-3.2-1.7-7.9-3.4-7.9-7.7c0-3,2.6-4.7,5.4-4.7c5.2,0,7.1,4.5,8.6,8.6h1.7l0.2-10.5
	h-0.9l-1.7,2.1c-2.4-1.3-5.6-2.1-8-2.1c-5.8,0-10.5,4.3-10.5,10.1c0,6.4,5.2,9,10.1,11.6c3.6,1.9,8.4,3.7,8.4,8.6
	c0,4.1-3.4,5.8-7.1,5.8c-6.2,0-9-5.2-10.5-10.7h-1.7l0.4,12h0.7L291,57.7L291,57.7z M251.5,23.4c-2.1,0-4.3,0.2-6.6,0.4
	c-2.4,0-4.7-0.2-6.9-0.4v1.7c6.9,0.9,6.4,3,6.4,9.4v14.4c0,7.3,3.2,12,11.6,12c5.6,0,11-3.4,14-7.9l1.7,7.9l11.6-3V56
	c-1.1,0-2.2,0.2-3.2,0.2c-3.2,0-3.2-3.4-3.2-5.6V23.4c-2.1,0.2-4.3,0.2-6.6,0.4c-2.4-0.2-4.7-0.2-6.9-0.4v1.7c6.9,0.9,6.4,3,6.4,9.4
	v11.2c0,6.6-4.9,12.4-11.4,12.4c-6.6,0-6.9-6.7-6.9-11.6L251.5,23.4L251.5,23.4z M215.9,22.7c-10.3,0-20.2,7.9-20.2,18.5
	c0,11,9.2,19.5,20.2,19.5s20.2-7.9,20.2-19.1C236.1,30.7,226.2,22.7,215.9,22.7L215.9,22.7z M215.5,24.5c9.9,0,12.2,9.4,12.2,17.4
	c0,7.5-2.2,16.7-11.4,16.7c-9.7,0-12.2-9.2-12.2-17.2C204.1,34.3,206.4,24.5,215.5,24.5L215.5,24.5z M164.8,34.3
	c0-8-4.5-11.6-12.5-11.6c-6,0-10.5,2.4-13.5,7.7h-0.2l-1.1-7.7c-4.1,0.7-7.1,2.1-11.6,2.6V27c2.6,0,4.9-0.4,5.6,2.6
	c0.4,1.9,0.4,7.9,0.4,10.1V50c0,5.6,0.4,7.5-5.8,8v1.7c3.4,0,6.4-0.2,9.7-0.4c3,0,6.2,0.2,9.2,0.4v-1.7c-6.6-0.4-5.8-3-5.8-8.4V36.7
	c0-6.2,4.1-11.2,10.7-11.2c8,0,7.7,8.2,7.7,14v10.7c0,5.6,0.4,7.5-5.8,8v1.5c3.4,0,6.4-0.2,9.7-0.4c3,0,6.2,0.2,9.2,0.4v-1.7
	c-6.6-0.4-5.8-3-5.8-8.4L164.8,34.3L164.8,34.3z M121,51.7c-2.4,3.4-6.4,6.2-10.5,6.2c-9,0-13.1-9-13.1-16.8l0.4-3.9h24
	c0.7,0,2.1,0.4,2.1-0.7c0-9-7.9-13.7-16.1-13.7c-10.9,0-18.9,9.5-18.9,20c0,10.7,8.6,18,18.9,18c6.4,0,11-2.2,15-7.1L121,51.7
	L121,51.7z M98.2,34.8c0.9-5.4,3.6-10.3,9.7-10.3c5.2,0,8,3.4,8,8.6c0,2.1-2.8,1.7-4.1,1.7H98.2L98.2,34.8z M61.3,55.6
	c-1.9-0.2-6.6,0.2-6.6-2.8c0-3.4,6.6-3.4,9-3.6c8.6-0.4,16.1-3.4,16.1-13.1c0-3-0.9-6-3-8.2c0.9-0.7,2.2-1.7,3.4-1.7
	c2.6,0,2.8,3,5.4,3c1.5,0,2.8-1.3,2.8-2.8c0-2.6-2.8-3.6-4.9-3.6c-3,0-5.8,1.7-8,3.6c-2.8-2.6-6.7-3.7-10.7-3.7
	c-8.2,0-15.7,4.7-15.7,13.7c0,5.4,4.1,9.9,9,11.6v0.2c-3.6,0.6-7.3,3.2-7.3,7.1c0,7.5,7.7,7.3,13.1,7.5c5.8,0.4,15,0,15,8
	c0,6.7-6.4,9.4-12.2,9.4s-13.3-1.5-13.3-8.8c0-2.6,1.5-5.4,4.3-6c-0.9-0.9-2.1-1.5-3.6-1.5c-3.6,0-6.2,3.6-6.2,6.9
	C48,79.6,58.7,82,65.6,82c9.2,0,19.1-3.4,19.1-14c0-11.2-9-11.6-17.6-12.2L61.3,55.6L61.3,55.6z"/>
</svg>
