<?xml version="1.0" encoding="utf-8"?>
<!-- Generator: Adobe Illustrator 23.0.6, SVG Export Plug-In . SVG Version: 6.00 Build 0)  -->
<svg version="1.1" id="Layer_1" xmlns="http://www.w3.org/2000/svg" xmlns:xlink="http://www.w3.org/1999/xlink" x="0px" y="0px"
	 viewBox="0 0 244.2 66.2" style="enable-background:new 0 0 244.2 66.2;" xml:space="preserve">
<style type="text/css">
	.st0{fill-rule:evenodd;clip-rule:evenodd;fill:url(#SVGID_1_);}
	.st1{fill:#636363;}
</style>
<linearGradient id="SVGID_1_" gradientUnits="userSpaceOnUse" x1="6" y1="804.65" x2="237.3" y2="804.65" gradientTransform="matrix(1 0 0 1 0 -776)">
	<stop  offset="0" style="stop-color:#81D5D3"/>
	<stop  offset="1" style="stop-color:#009E8B"/>
</linearGradient>
<path class="st0" d="M39.5,31.4c-3.2,0-4.3-3.3-4.3-6c0-2.8,0.9-6.2,4.4-6.2c3.4,0,4.5,3.3,4.5,6.2C44.1,28.3,43,31.4,39.5,31.4
	L39.5,31.4z M98.2,19.6v0.9c0.9,0,2.8-0.1,3.1,1c0.2,0.7,0.2,4.1,0.2,5v6.4c0,3,0.2,4-3.1,4.3V38c1.8,0,3.5-0.1,5.2-0.2
	c1.6,0,3.3,0.1,4.8,0.2v-0.9c-3.5-0.2-3.1-1.6-3.1-4.5V18.2L98.2,19.6L98.2,19.6z M102.9,12.6c1.3,0,2.3-1.1,2.3-2.4s-1-2.4-2.4-2.4
	c-1.3,0-2.4,1.1-2.4,2.4C100.4,11.6,101.6,12.6,102.9,12.6L102.9,12.6z M6,19.6v0.9c0.9,0,2.8-0.1,3.1,1c0.2,0.7,0.2,4.1,0.2,5v6.4
	c0,3,0.2,4-3.1,4.3V38c1.8,0,3.5-0.1,5.2-0.2c1.6,0,3.3,0.1,4.8,0.2v-0.9c-3.5-0.2-3.1-1.6-3.1-4.5V18.2L6,19.6L6,19.6z M10.7,12.6
	c1.3,0,2.3-1.1,2.3-2.4s-1-2.4-2.4-2.4s-2.4,1.1-2.4,2.4C8.2,11.6,9.4,12.6,10.7,12.6L10.7,12.6z M207.2,18.6
	c-1.1,0-2.3,0.1-3.5,0.2c-1.3,0-2.5-0.1-3.7-0.2v0.9c3.7,0.5,3.4,1.6,3.4,5v7.7c0,3.9,1.7,6.4,6.2,6.4c2.9,0,5.7-1.6,7.3-4V32
	c-0.6,2.9-2.9,5.2-6,5.2c-3.5,0-3.7-3.6-3.7-6.2V18.6L207.2,18.6z M27.7,24.4c0-4.3-2.4-6.2-6.7-6.2c-3,0-5.4,1.2-6.9,3.7v2.9
	c0.4-2.9,2.5-5.2,5.7-5.2c4.3,0,4.1,4.4,4.1,7.5v5.7c0,3,0.2,4-3.1,4.3V38c1.8,0,3.5-0.1,5.2-0.2c1.6,0,3.3,0.1,4.9,0.2v-0.9
	c-3.5-0.2-3.1-1.6-3.1-4.5L27.7,24.4L27.7,24.4z M221.4,25.3c0-1.1,0.1-2.4,0.5-3.3c0.8-1.5,2.8-2.3,4.4-2.3c4.9,0,6.4,4.6,6.4,8.7
	c0,4.3-1.4,8.9-6.5,8.9c-3.2,0-4.8-1.7-4.8-4.7L221.4,25.3L221.4,25.3z M221.4,7.4l-7.2,1.4v0.9c1,0.1,2.4,0,2.9,1.2
	c0.4,0.9,0.4,3.7,0.4,4.8v22.6h0.6l2.1-2.6c1.6,1.9,4.4,2.9,6.8,2.9c5.8,0,10-4.6,10-10.3c0-5.5-4-10-9.7-10c-2.5,0-4.4,0.8-6.1,2.5
	V7.4H221.4z M185.3,7.4l-7.2,1.4v0.9c1,0.1,2.4,0,2.9,1.2c0.4,0.9,0.4,3.7,0.4,4.8v17.2c0,3,0.2,4-3.1,4.3V38c1.7,0,3.4-0.1,5.1-0.2
	c1.7,0,3.3,0.1,4.9,0.2v-0.9c-3.5-0.2-3.1-1.6-3.1-4.5v-4.9c0-1.7,0.1-3.5,0.8-4.9c0.9-1.8,3.1-3.1,5-3.1c3.8,0,4.1,3.7,4.1,6.6v6.6
	c0,3,0.3,4-3.1,4.3V38c1.5,0,3.2-0.1,4.8-0.2c1.8,0,3.4,0.1,5.2,0.2v-0.9c-3.5-0.2-3.1-1.6-3.1-4.5v-8.1c0-4.3-2.5-6.3-6.7-6.3
	c-2.9,0-5.4,1.4-6.9,3.9h-0.1V7.4H185.3z M160.6,36.9c1.3,1.1,3.2,1.6,4.9,1.6c3.4,0,6.6-2.2,6.6-5.9c0-4-2.8-5.2-5.9-6.8
	c-1.7-0.9-4.2-1.8-4.2-4.1c0-1.6,1.4-2.5,2.9-2.5c2.8,0,3.8,2.4,4.6,4.6h0.9l0.1-5.6H170l-0.9,1.1c-1.3-0.7-3-1.1-4.3-1.1
	c-3.1,0-5.6,2.3-5.6,5.4c0,3.4,2.8,4.8,5.4,6.2c1.9,1,4.5,2,4.5,4.6c0,2.2-1.8,3.1-3.8,3.1c-3.3,0-4.8-2.8-5.6-5.7h-0.9l0.2,6.4h0.4
	L160.6,36.9L160.6,36.9z M139.5,18.6c-1.1,0-2.3,0.1-3.5,0.2c-1.3,0-2.5-0.1-3.7-0.2v0.9c3.7,0.5,3.4,1.6,3.4,5v7.7
	c0,3.9,1.7,6.4,6.2,6.4c3,0,5.9-1.8,7.5-4.2l0.9,4.2l6.2-1.6v-1c-0.6,0-1.2,0.1-1.7,0.1c-1.7,0-1.7-1.8-1.7-3V18.6
	c-1.1,0.1-2.3,0.1-3.5,0.2c-1.3-0.1-2.5-0.1-3.7-0.2v0.9c3.7,0.5,3.4,1.6,3.4,5v6c0,3.5-2.6,6.6-6.1,6.6s-3.7-3.6-3.7-6.2
	L139.5,18.6L139.5,18.6z M120.5,18.2c-5.5,0-10.8,4.2-10.8,9.9c0,5.9,4.9,10.4,10.8,10.4s10.8-4.2,10.8-10.2
	C131.3,22.5,126,18.2,120.5,18.2L120.5,18.2z M120.3,19.2c5.3,0,6.5,5,6.5,9.3c0,4-1.2,8.9-6.1,8.9c-5.2,0-6.5-4.9-6.5-9.2
	C114.2,24.4,115.4,19.2,120.3,19.2L120.3,19.2z M93.2,24.4c0-4.3-2.4-6.2-6.7-6.2c-3.2,0-5.6,1.3-7.2,4.1h-0.1l-0.6-4.1
	c-2.2,0.4-3.8,1.1-6.2,1.4v0.9c1.4,0,2.6-0.2,3,1.4c0.2,1,0.2,4.2,0.2,5.4v5.5c0,3,0.2,4-3.1,4.3V38c1.8,0,3.4-0.1,5.2-0.2
	c1.6,0,3.3,0.1,4.9,0.2v-0.9c-3.5-0.2-3.1-1.6-3.1-4.5v-6.9c0-3.3,2.2-6,5.7-6c4.3,0,4.1,4.4,4.1,7.5v5.7c0,3,0.2,4-3.1,4.3V38
	c1.8,0,3.4-0.1,5.2-0.2c1.6,0,3.3,0.1,4.9,0.2v-0.9c-3.5-0.2-3.1-1.6-3.1-4.5L93.2,24.4L93.2,24.4z M69.8,33.7
	c-1.3,1.8-3.4,3.3-5.6,3.3c-4.8,0-7-4.8-7-9l0.2-2.1h12.8c0.4,0,1.1,0.2,1.1-0.4c0-4.8-4.2-7.3-8.6-7.3c-5.8,0-10.1,5.1-10.1,10.7
	c0,5.7,4.6,9.6,10.1,9.6c3.4,0,5.9-1.2,8-3.8L69.8,33.7L69.8,33.7z M57.6,24.7c0.5-2.9,1.9-5.5,5.2-5.5c2.8,0,4.3,1.8,4.3,4.6
	c0,1.1-1.5,0.9-2.2,0.9H57.6L57.6,24.7z M37.9,35.8c-1-0.1-3.5,0.1-3.5-1.5c0-1.8,3.5-1.8,4.8-1.9c4.6-0.2,8.6-1.8,8.6-7
	c0-1.6-0.5-3.2-1.6-4.4c0.5-0.4,1.2-0.9,1.8-0.9c1.4,0,1.5,1.6,2.9,1.6c0.8,0,1.5-0.7,1.5-1.5c0-1.4-1.5-1.9-2.6-1.9
	c-1.6,0-3.1,0.9-4.3,1.9c-1.5-1.4-3.6-2-5.7-2c-4.4,0-8.4,2.5-8.4,7.3c0,2.9,2.2,5.3,4.8,6.2v0.1c-1.9,0.3-3.9,1.7-3.9,3.8
	c0,4,4.1,3.9,7,4c3.1,0.2,8,0,8,4.3c0,3.6-3.4,5-6.5,5s-7.1-0.8-7.1-4.7c0-1.4,0.8-2.9,2.3-3.2c-0.5-0.5-1.1-0.8-1.9-0.8
	c-1.9,0-3.3,1.9-3.3,3.7c0,4.7,5.7,6,9.4,6c4.9,0,10.2-1.8,10.2-7.5c0-6-4.8-6.2-9.4-6.5L37.9,35.8L37.9,35.8z"/>
<path class="st1" d="M103.1,56.4c-1.2,0-2.1-0.4-2.8-1.1c-0.7-0.7-1-1.8-1-3.1s0.3-2.4,1-3.2s1.5-1.2,2.6-1.2c1,0,1.7,0.3,2.3,1
	s0.8,1.6,0.8,2.7v0.6h-6c0,1.1,0.3,2,0.8,2.6s1.3,0.9,2.2,0.9c0.5,0,0.9,0,1.2-0.1c0.4-0.1,0.8-0.2,1.3-0.4v0.7
	c-0.5,0.2-0.9,0.3-1.3,0.4C104,56.4,103.6,56.4,103.1,56.4L103.1,56.4z M102.8,48.5c-0.8,0-1.4,0.3-1.9,0.8s-0.8,1.3-0.8,2.3h5.1
	c0-1-0.2-1.7-0.6-2.3C104.2,48.8,103.6,48.5,102.8,48.5L102.8,48.5z"/>
<path class="st1" d="M114,56.3V51c0-0.8-0.2-1.4-0.5-1.8c-0.3-0.4-0.9-0.6-1.6-0.6c-1,0-1.7,0.3-2.2,0.8s-0.7,1.3-0.7,2.4v4.5h-0.8
	v-8.2h0.6l0.1,1.1h0.1c0.5-0.9,1.5-1.3,2.9-1.3c1.9,0,2.8,1,2.8,3v5.4L114,56.3L114,56.3z"/>
<path class="st1" d="M120.7,56.4c-1.2,0-2.1-0.4-2.8-1.1c-0.7-0.7-1-1.8-1-3.1s0.3-2.4,1-3.2s1.5-1.2,2.6-1.2c1,0,1.7,0.3,2.3,1
	s0.8,1.6,0.8,2.7v0.6h-5.9c0,1.1,0.3,2,0.8,2.6s1.3,0.9,2.2,0.9c0.5,0,0.9,0,1.2-0.1c0.4-0.1,0.8-0.2,1.3-0.4v0.7
	c-0.5,0.2-0.9,0.3-1.3,0.4C121.6,56.4,121.2,56.4,120.7,56.4L120.7,56.4z M120.5,48.5c-0.8,0-1.4,0.3-1.9,0.8s-0.8,1.3-0.8,2.3h5.1
	c0-1-0.2-1.7-0.6-2.3C121.8,48.8,121.2,48.5,120.5,48.5L120.5,48.5z"/>
<path class="st1" d="M129.1,47.9c0.4,0,0.7,0,1.1,0.1l-0.1,0.7c-0.3-0.1-0.7-0.1-1.1-0.1c-0.7,0-1.3,0.3-1.7,0.9
	c-0.4,0.6-0.7,1.3-0.7,2.3v4.5h-0.8v-8.2h0.6l0.1,1.5h0.1c0.3-0.6,0.7-1,1.1-1.3C128.1,48,128.6,47.9,129.1,47.9L129.1,47.9z"/>
<path class="st1" d="M138.2,48v0.5l-1.7,0.1c0.4,0.6,0.7,1.2,0.7,1.9c0,0.8-0.3,1.4-0.8,1.9s-1.2,0.7-2.1,0.7c-0.4,0-0.6,0-0.8,0
	c-0.3,0.2-0.5,0.3-0.7,0.5s-0.2,0.4-0.2,0.7s0.1,0.5,0.3,0.6s0.5,0.2,1,0.2h1.4c0.9,0,1.6,0.2,2.1,0.5s0.7,0.9,0.7,1.6
	c0,0.9-0.4,1.5-1.1,2c-0.7,0.5-1.7,0.7-3,0.7c-1,0-1.8-0.2-2.4-0.6c-0.6-0.4-0.9-1-0.9-1.7c0-0.6,0.2-1,0.5-1.4
	c0.4-0.4,0.8-0.6,1.4-0.8c-0.3-0.1-0.4-0.3-0.6-0.5c-0.1-0.2-0.2-0.4-0.2-0.7c0-0.5,0.4-1,1.1-1.5c-0.5-0.2-0.9-0.5-1.1-0.9
	c-0.3-0.4-0.4-0.9-0.4-1.5c0-0.8,0.3-1.5,0.8-2s1.2-0.8,2.1-0.8c0.5,0,1,0,1.3,0.2L138.2,48L138.2,48z M131.6,57.7
	c0,1.1,0.8,1.7,2.5,1.7c2.2,0,3.2-0.7,3.2-2.1c0-0.5-0.2-0.8-0.5-1.1s-0.9-0.3-1.6-0.3h-1.4C132.3,55.9,131.6,56.5,131.6,57.7
	L131.6,57.7z M132.2,50.6c0,0.6,0.2,1.1,0.6,1.5s0.9,0.5,1.6,0.5c0.7,0,1.2-0.2,1.6-0.5c0.4-0.3,0.6-0.8,0.6-1.5s-0.2-1.2-0.6-1.6
	c-0.4-0.3-0.9-0.5-1.6-0.5c-0.7,0-1.2,0.2-1.6,0.6C132.4,49.4,132.2,49.9,132.2,50.6L132.2,50.6z"/>
<path class="st1" d="M140.6,56.3h-0.8v-8.2h0.8V56.3L140.6,56.3z M139.8,45.8c0-0.5,0.2-0.7,0.5-0.7c0.2,0,0.3,0.1,0.4,0.2
	c0.1,0.1,0.1,0.3,0.1,0.5s0,0.4-0.1,0.5s-0.2,0.2-0.4,0.2C139.9,46.5,139.8,46.3,139.8,45.8L139.8,45.8z"/>
<polygon class="st1" points="148.5,56.3 142.6,56.3 142.6,55.8 147.5,48.7 143,48.7 143,48 148.5,48 148.5,48.5 143.6,55.6 
	148.5,55.6 "/>
<path class="st1" d="M153.9,56.4c-1.2,0-2.1-0.4-2.8-1.1s-1-1.8-1-3.1s0.3-2.4,1-3.2s1.5-1.2,2.6-1.2c1,0,1.7,0.3,2.3,1
	s0.8,1.6,0.8,2.7v0.6h-5.9c0,1.1,0.3,2,0.8,2.6s1.3,0.9,2.2,0.9c0.5,0,0.9,0,1.2-0.1c0.4-0.1,0.8-0.2,1.4-0.4v0.7
	c-0.5,0.2-0.9,0.3-1.3,0.4C154.8,56.4,154.4,56.4,153.9,56.4L153.9,56.4z M153.7,48.5c-0.8,0-1.4,0.3-1.9,0.8s-0.8,1.3-0.8,2.3h5.1
	c0-1-0.2-1.7-0.6-2.3C155,48.8,154.4,48.5,153.7,48.5L153.7,48.5z"/>
<path class="st1" d="M161.7,48h0.8l1.7,4.6c0.5,1.4,0.9,2.4,1,2.9h0.1c0.2-0.7,0.6-1.6,1-2.9L168,48h0.8l-3.7,9.6
	c-0.3,0.8-0.6,1.3-0.8,1.6s-0.4,0.5-0.7,0.6s-0.6,0.2-1,0.2c-0.3,0-0.6,0-1-0.2v-0.6c0.3,0.1,0.6,0.1,0.9,0.1c0.3,0,0.5-0.1,0.7-0.2
	s0.4-0.3,0.5-0.6s0.3-0.7,0.6-1.2s0.3-0.9,0.4-1.1L161.7,48L161.7,48z"/>
<path class="st1" d="M177,52.2c0,1.3-0.3,2.4-1,3.2c-0.6,0.8-1.6,1.1-2.7,1.1c-0.7,0-1.4-0.2-1.9-0.5c-0.6-0.3-1-0.8-1.3-1.5
	s-0.4-1.4-0.4-2.3c0-1.3,0.3-2.4,1-3.1s1.5-1.1,2.7-1.1c1.1,0,2,0.4,2.7,1.1C176.7,49.8,177,50.8,177,52.2L177,52.2z M170.5,52.2
	c0,1.1,0.3,2,0.8,2.7c0.5,0.6,1.2,1,2.1,1s1.6-0.3,2.1-1s0.8-1.5,0.8-2.7c0-1.1-0.3-2-0.8-2.6s-1.2-0.9-2.1-0.9
	c-0.9,0-1.6,0.3-2.1,0.9C170.8,50.1,170.5,51,170.5,52.2L170.5,52.2z"/>
<path class="st1" d="M179.9,48v5.3c0,0.8,0.2,1.4,0.5,1.8c0.4,0.4,0.9,0.6,1.6,0.6c1,0,1.7-0.3,2.2-0.7c0.5-0.5,0.7-1.3,0.7-2.4V48
	h0.7v8.2H185l-0.1-1.1h-0.1c-0.5,0.9-1.5,1.3-2.9,1.3c-1.9,0-2.8-1-2.8-3V48H179.9L179.9,48z"/>
<path class="st1" d="M191.7,47.9c0.4,0,0.7,0,1.1,0.1l-0.1,0.7c-0.3-0.1-0.7-0.1-1.1-0.1c-0.7,0-1.3,0.3-1.7,0.9
	c-0.4,0.6-0.7,1.3-0.7,2.3v4.5h-0.8v-8.2h0.6l0.1,1.5h0.1c0.3-0.6,0.7-1,1.1-1.3C190.7,48,191.1,47.9,191.7,47.9L191.7,47.9z"/>
<path class="st1" d="M202,47.9c1.1,0,2,0.4,2.6,1.1c0.6,0.7,0.9,1.8,0.9,3.2s-0.3,2.4-0.9,3.2c-0.6,0.7-1.5,1.1-2.6,1.1
	c-0.6,0-1.1-0.1-1.6-0.4s-0.8-0.6-1.1-1h-0.1l-0.2,1.2h-0.5V44.5h0.8v3c0,0.4,0,0.8,0,1.2v0.6h0.1c0.3-0.5,0.7-0.9,1.1-1.1
	C200.8,48,201.4,47.9,202,47.9L202,47.9z M201.9,48.6c-1,0-1.7,0.3-2.1,0.8c-0.4,0.6-0.6,1.5-0.6,2.8v0.1c0,1.3,0.2,2.1,0.6,2.7
	c0.4,0.5,1.1,0.8,2,0.8s1.6-0.3,2-1c0.4-0.6,0.7-1.5,0.7-2.7C204.6,49.8,203.8,48.6,201.9,48.6L201.9,48.6z"/>
<path class="st1" d="M211,47.9c0.4,0,0.7,0,1.1,0.1l-0.1,0.7c-0.3-0.1-0.7-0.1-1.1-0.1c-0.7,0-1.3,0.3-1.7,0.9
	c-0.4,0.6-0.7,1.3-0.7,2.3v4.5h-0.8v-8.2h0.6l0.1,1.5h0.1c0.3-0.6,0.7-1,1.1-1.3C209.9,48,210.4,47.9,211,47.9L211,47.9z"/>
<path class="st1" d="M218.4,56.3l-0.2-1.3h-0.1c-0.4,0.5-0.8,0.9-1.3,1.1s-0.9,0.3-1.6,0.3c-0.8,0-1.4-0.2-1.9-0.6
	c-0.4-0.4-0.7-1-0.7-1.7c0-0.8,0.3-1.4,1-1.9s1.6-0.7,2.9-0.7h1.6V51c0-0.8-0.2-1.4-0.5-1.8c-0.3-0.4-0.8-0.6-1.5-0.6
	c-0.8,0-1.6,0.2-2.4,0.6l-0.3-0.7c0.9-0.4,1.8-0.6,2.7-0.6s1.6,0.2,2,0.7s0.7,1.2,0.7,2.2v5.5H218.4L218.4,56.3z M215.4,55.8
	c0.9,0,1.6-0.3,2.1-0.8s0.8-1.2,0.8-2.1v-0.8l-1.4,0.1c-1.2,0.1-2,0.2-2.5,0.5s-0.7,0.8-0.7,1.4c0,0.5,0.2,0.9,0.5,1.2
	C214.4,55.6,214.8,55.8,215.4,55.8L215.4,55.8z"/>
<path class="st1" d="M227.4,56.3V51c0-0.8-0.2-1.4-0.5-1.8c-0.4-0.4-0.9-0.6-1.6-0.6c-1,0-1.7,0.3-2.2,0.8s-0.7,1.3-0.7,2.4v4.5
	h-0.8v-8.2h0.6l0.1,1.1h0.1c0.5-0.9,1.5-1.3,2.9-1.3c1.9,0,2.8,1,2.8,3v5.4L227.4,56.3L227.4,56.3z"/>
<path class="st1" d="M233.8,47.9c0.6,0,1.1,0.1,1.5,0.3s0.8,0.6,1.2,1.1h0.1c0-0.6-0.1-1.3-0.1-1.9v-3h0.7v11.8h-0.5l-0.2-1.3h-0.1
	c-0.6,0.9-1.5,1.4-2.7,1.4c-1.1,0-2-0.3-2.6-1.1c-0.6-0.7-0.9-1.7-0.9-3.1c0-1.4,0.3-2.5,0.9-3.3C231.8,48.3,232.7,47.9,233.8,47.9
	L233.8,47.9z M233.8,48.6c-0.9,0-1.6,0.3-2,1c-0.4,0.6-0.7,1.5-0.7,2.8c0,2.3,0.9,3.5,2.7,3.5c0.9,0,1.6-0.3,2-0.8s0.6-1.4,0.6-2.7
	v-0.1c0-1.3-0.2-2.2-0.6-2.8C235.5,48.9,234.8,48.6,233.8,48.6L233.8,48.6z"/>
</svg>
