<?xml version="1.0" encoding="utf-8"?>
<!-- Generator: Adobe Illustrator 23.0.6, SVG Export Plug-In . SVG Version: 6.00 Build 0)  -->
<svg version="1.1" id="Layer_1" xmlns="http://www.w3.org/2000/svg" xmlns:xlink="http://www.w3.org/1999/xlink" x="0px" y="0px"
	 viewBox="0 0 435.6 101.8" style="enable-background:new 0 0 435.6 101.8;" xml:space="preserve">
<style type="text/css">
	.st0{fill-rule:evenodd;clip-rule:evenodd;fill:url(#SVGID_1_);}
	.st1{fill-rule:evenodd;clip-rule:evenodd;fill:#636363;}
</style>
<linearGradient id="SVGID_1_" gradientUnits="userSpaceOnUse" x1="1.5776" y1="818.2336" x2="434.5627" y2="818.2336" gradientTransform="matrix(1 0 0 1 0 -776)">
	<stop  offset="0" style="stop-color:#81D5D3"/>
	<stop  offset="1" style="stop-color:#009E8B"/>
</linearGradient>
<path class="st0" d="M64.3,47.4c-6,0-8-6.2-8-11.2c0-5.2,1.7-11.6,8.2-11.6c6.4,0,8.4,6.2,8.4,11.6C72.9,41.6,70.8,47.4,64.3,47.4
	L64.3,47.4z M174.2,25.3V27c1.7,0,5.2-0.2,5.8,1.9c0.4,1.3,0.4,7.7,0.4,9.4v12c0,5.6,0.4,7.5-5.8,8v1.5c3.4,0,6.6-0.2,9.7-0.4
	c3,0,6.2,0.2,9,0.4v-1.7c-6.6-0.4-5.8-3-5.8-8.4v-27L174.2,25.3L174.2,25.3z M183,12.2c2.4,0,4.3-2.1,4.3-4.5s-1.9-4.5-4.5-4.5
	c-2.4,0-4.5,2.1-4.5,4.5C178.3,10.3,180.5,12.2,183,12.2L183,12.2z M1.6,25.3V27c1.7,0,5.2-0.2,5.8,1.9c0.4,1.3,0.4,7.7,0.4,9.4v12
	c0,5.6,0.4,7.5-5.8,8v1.5c3.4,0,6.6-0.2,9.7-0.4c3,0,6.2,0.2,9,0.4v-1.7c-6.6-0.4-5.8-3-5.8-8.4v-27L1.6,25.3L1.6,25.3z M10.4,12.2
	c2.4,0,4.3-2.1,4.3-4.5s-1.9-4.5-4.5-4.5S5.7,5.3,5.7,7.7C5.7,10.3,7.9,12.2,10.4,12.2L10.4,12.2z M378.2,23.4
	c-2.1,0-4.3,0.2-6.6,0.4c-2.4,0-4.7-0.2-6.9-0.4v1.7c6.9,0.9,6.4,3,6.4,9.4v14.4c0,7.3,3.2,12,11.6,12c5.4,0,10.7-3,13.7-7.5v-4.9
	c-1.1,5.4-5.4,9.7-11.2,9.7c-6.6,0-6.9-6.7-6.9-11.6V23.4L378.2,23.4z M42.2,34.3c0-8-4.5-11.6-12.5-11.6c-5.6,0-10.1,2.2-12.9,6.9
	V35c0.7-5.4,4.7-9.7,10.7-9.7c8,0,7.7,8.2,7.7,14V50c0,5.6,0.4,7.5-5.8,8v1.7c3.4,0,6.6-0.2,9.7-0.4c3,0,6.2,0.2,9.2,0.4v-1.7
	c-6.6-0.4-5.8-3-5.8-8.4L42.2,34.3L42.2,34.3z M404.8,36c0-2.1,0.2-4.5,0.9-6.2c1.5-2.8,5.2-4.3,8.2-4.3c9.2,0,12,8.6,12,16.3
	c0,8-2.6,16.7-12.2,16.7c-6,0-9-3.2-9-8.8L404.8,36L404.8,36z M404.8,2.5l-13.5,2.6v1.7c1.9,0.2,4.5,0,5.4,2.2
	c0.7,1.7,0.7,6.9,0.7,9v42.3h1.1l3.9-4.9c3,3.6,8.2,5.4,12.7,5.4c10.9,0,18.7-8.6,18.7-19.3c0-10.3-7.5-18.7-18.2-18.7
	c-4.7,0-8.2,1.5-11.4,4.7V2.5H404.8z M337.2,2.5l-13.5,2.6v1.7c1.9,0.2,4.5,0,5.4,2.2c0.7,1.7,0.7,6.9,0.7,9v32.2
	c0,5.6,0.4,7.5-5.8,8v1.5c3.2,0,6.4-0.2,9.5-0.4c3.2,0,6.2,0.2,9.2,0.4v-1.7c-6.6-0.4-5.8-3-5.8-8.4v-9.2c0-3.2,0.2-6.6,1.5-9.2
	c1.7-3.4,5.8-5.8,9.4-5.8c7.1,0,7.7,6.9,7.7,12.4v12.4c0,5.6,0.6,7.5-5.8,8v1.5c2.8,0,6-0.2,9-0.4c3.4,0,6.4,0.2,9.7,0.4v-1.7
	c-6.6-0.4-5.8-3-5.8-8.4V34.5c0-8-4.7-11.8-12.5-11.8c-5.4,0-10.1,2.6-12.9,7.3H337V2.5H337.2z M291,57.7c2.4,2.1,6,3,9.2,3
	c6.4,0,12.4-4.1,12.4-11c0-7.5-5.2-9.7-11-12.7c-3.2-1.7-7.9-3.4-7.9-7.7c0-3,2.6-4.7,5.4-4.7c5.2,0,7.1,4.5,8.6,8.6h1.7l0.2-10.5
	h-0.9l-1.7,2.1c-2.4-1.3-5.6-2.1-8-2.1c-5.8,0-10.5,4.3-10.5,10.1c0,6.4,5.2,9,10.1,11.6c3.6,1.9,8.4,3.7,8.4,8.6
	c0,4.1-3.4,5.8-7.1,5.8c-6.2,0-9-5.2-10.5-10.7h-1.7l0.4,12h0.7L291,57.7L291,57.7z M251.5,23.4c-2.1,0-4.3,0.2-6.6,0.4
	c-2.4,0-4.7-0.2-6.9-0.4v1.7c6.9,0.9,6.4,3,6.4,9.4v14.4c0,7.3,3.2,12,11.6,12c5.6,0,11-3.4,14-7.9l1.7,7.9l11.6-3V56
	c-1.1,0-2.2,0.2-3.2,0.2c-3.2,0-3.2-3.4-3.2-5.6V23.4c-2.1,0.2-4.3,0.2-6.6,0.4c-2.4-0.2-4.7-0.2-6.9-0.4v1.7c6.9,0.9,6.4,3,6.4,9.4
	v11.2c0,6.6-4.9,12.4-11.4,12.4c-6.6,0-6.9-6.7-6.9-11.6L251.5,23.4L251.5,23.4z M215.9,22.7c-10.3,0-20.2,7.9-20.2,18.5
	c0,11,9.2,19.5,20.2,19.5s20.2-7.9,20.2-19.1C236.1,30.7,226.2,22.7,215.9,22.7L215.9,22.7z M215.5,24.5c9.9,0,12.2,9.4,12.2,17.4
	c0,7.5-2.2,16.7-11.4,16.7c-9.7,0-12.2-9.2-12.2-17.2C204.1,34.3,206.4,24.5,215.5,24.5L215.5,24.5z M164.8,34.3
	c0-8-4.5-11.6-12.5-11.6c-6,0-10.5,2.4-13.5,7.7h-0.2l-1.1-7.7c-4.1,0.7-7.1,2.1-11.6,2.6V27c2.6,0,4.9-0.4,5.6,2.6
	c0.4,1.9,0.4,7.9,0.4,10.1V50c0,5.6,0.4,7.5-5.8,8v1.7c3.4,0,6.4-0.2,9.7-0.4c3,0,6.2,0.2,9.2,0.4v-1.7c-6.6-0.4-5.8-3-5.8-8.4V36.7
	c0-6.2,4.1-11.2,10.7-11.2c8,0,7.7,8.2,7.7,14v10.7c0,5.6,0.4,7.5-5.8,8v1.5c3.4,0,6.4-0.2,9.7-0.4c3,0,6.2,0.2,9.2,0.4v-1.7
	c-6.6-0.4-5.8-3-5.8-8.4L164.8,34.3L164.8,34.3z M121,51.7c-2.4,3.4-6.4,6.2-10.5,6.2c-9,0-13.1-9-13.1-16.8l0.4-3.9h24
	c0.7,0,2.1,0.4,2.1-0.7c0-9-7.9-13.7-16.1-13.7c-10.9,0-18.9,9.5-18.9,20c0,10.7,8.6,18,18.9,18c6.4,0,11-2.2,15-7.1L121,51.7
	L121,51.7z M98.2,34.8c0.9-5.4,3.6-10.3,9.7-10.3c5.2,0,8,3.4,8,8.6c0,2.1-2.8,1.7-4.1,1.7H98.2L98.2,34.8z M61.3,55.6
	c-1.9-0.2-6.6,0.2-6.6-2.8c0-3.4,6.6-3.4,9-3.6c8.6-0.4,16.1-3.4,16.1-13.1c0-3-0.9-6-3-8.2c0.9-0.7,2.2-1.7,3.4-1.7
	c2.6,0,2.8,3,5.4,3c1.5,0,2.8-1.3,2.8-2.8c0-2.6-2.8-3.6-4.9-3.6c-3,0-5.8,1.7-8,3.6c-2.8-2.6-6.7-3.7-10.7-3.7
	c-8.2,0-15.7,4.7-15.7,13.7c0,5.4,4.1,9.9,9,11.6v0.2c-3.6,0.6-7.3,3.2-7.3,7.1c0,7.5,7.7,7.3,13.1,7.5c5.8,0.4,15,0,15,8
	c0,6.7-6.4,9.4-12.2,9.4s-13.3-1.5-13.3-8.8c0-2.6,1.5-5.4,4.3-6c-0.9-0.9-2.1-1.5-3.6-1.5c-3.6,0-6.2,3.6-6.2,6.9
	C48,79.6,58.7,82,65.6,82c9.2,0,19.1-3.4,19.1-14c0-11.2-9-11.6-17.6-12.2L61.3,55.6L61.3,55.6z"/>
<g>
	<path class="st1" d="M181.4,92.2c-2.3,0-4-0.7-5.3-2.1c-1.3-1.4-1.9-3.3-1.9-5.8c0-2.5,0.6-4.4,1.8-5.9c1.2-1.5,2.9-2.2,4.9-2.2
		c1.8,0,3.3,0.6,4.3,1.9c1.1,1.3,1.6,3,1.6,5.2v1.1l-11.1,0c0,2.1,0.5,3.8,1.5,4.9c1,1.1,2.4,1.7,4.2,1.7c0.9,0,1.7-0.1,2.3-0.2
		c0.7-0.1,1.5-0.4,2.5-0.8v1.3c-0.9,0.4-1.7,0.6-2.4,0.8C183.2,92.1,182.4,92.2,181.4,92.2L181.4,92.2L181.4,92.2z M181,77.3
		c-1.5,0-2.7,0.5-3.6,1.5c-0.9,1-1.4,2.4-1.6,4.3h9.6c0-1.8-0.4-3.2-1.2-4.2C183.5,77.9,182.4,77.3,181,77.3L181,77.3L181,77.3z"/>
	<path class="st1" d="M202,91.9v-10c0-1.6-0.3-2.7-1-3.4c-0.7-0.7-1.7-1.1-3-1.1c-1.8,0-3.2,0.5-4.1,1.4c-0.9,0.9-1.3,2.4-1.3,4.5
		v8.5h-1.4V76.4h1.2l0.3,2.1h0.1c1-1.6,2.8-2.4,5.4-2.4c3.5,0,5.3,1.9,5.3,5.7v10.1H202L202,91.9L202,91.9z"/>
	<path class="st1" d="M214.6,92.2c-2.3,0-4-0.7-5.3-2.1c-1.3-1.4-1.9-3.3-1.9-5.8c0-2.5,0.6-4.4,1.8-5.9c1.2-1.5,2.9-2.2,4.9-2.2
		c1.8,0,3.3,0.6,4.3,1.9c1.1,1.3,1.6,3,1.6,5.2v1.1l-11.1,0c0,2.1,0.5,3.8,1.5,4.9c1,1.1,2.4,1.7,4.2,1.7c0.9,0,1.7-0.1,2.3-0.2
		c0.7-0.1,1.5-0.4,2.5-0.8v1.3c-0.9,0.4-1.7,0.6-2.4,0.8C216.4,92.1,215.5,92.2,214.6,92.2L214.6,92.2L214.6,92.2z M214.2,77.3
		c-1.5,0-2.7,0.5-3.6,1.5c-0.9,1-1.4,2.4-1.6,4.3h9.6c0-1.8-0.4-3.2-1.2-4.2C216.7,77.9,215.6,77.3,214.2,77.3L214.2,77.3
		L214.2,77.3z"/>
	<path class="st1" d="M230.5,76.1c0.7,0,1.4,0.1,2.1,0.2l-0.3,1.4c-0.6-0.2-1.3-0.2-2-0.2c-1.3,0-2.4,0.6-3.2,1.7
		c-0.8,1.1-1.3,2.5-1.3,4.2v8.5h-1.4V76.4h1.2l0.1,2.8h0.1c0.6-1.1,1.3-1.9,2-2.4C228.6,76.3,229.5,76.1,230.5,76.1L230.5,76.1
		L230.5,76.1z"/>
	<path class="st1" d="M247.5,76.4v1l-3.2,0.2c0.8,1.1,1.3,2.2,1.3,3.5c0,1.5-0.5,2.7-1.5,3.6c-1,0.9-2.3,1.4-4,1.4
		c-0.7,0-1.2,0-1.5-0.1c-0.6,0.3-1,0.6-1.3,1c-0.3,0.4-0.5,0.8-0.5,1.3c0,0.5,0.2,0.8,0.6,1.1c0.4,0.2,1,0.3,1.9,0.3l2.7,0
		c1.7,0,3,0.3,3.9,1c0.9,0.7,1.3,1.7,1.3,3c0,1.6-0.7,2.9-2,3.8c-1.3,0.9-3.2,1.3-5.7,1.3c-2,0-3.5-0.4-4.5-1.1
		c-1.1-0.8-1.6-1.8-1.6-3.1c0-1.1,0.3-1.9,1-2.7c0.7-0.7,1.6-1.2,2.7-1.4c-0.5-0.2-0.8-0.5-1.1-0.8c-0.3-0.4-0.4-0.8-0.4-1.3
		c0-1,0.7-1.9,2-2.7c-0.9-0.4-1.6-1-2.1-1.7c-0.5-0.8-0.8-1.7-0.8-2.7c0-1.5,0.5-2.8,1.5-3.7c1-0.9,2.3-1.4,4-1.4
		c1,0,1.8,0.1,2.4,0.3L247.5,76.4L247.5,76.4L247.5,76.4z M235,94.5c0,2.1,1.6,3.2,4.7,3.2c4.1,0,6.1-1.3,6.1-3.9c0-0.9-0.3-1.6-1-2
		c-0.6-0.4-1.7-0.6-3.1-0.6h-2.5C236.4,91.2,235,92.3,235,94.5L235,94.5L235,94.5z M236.2,81.2c0,1.2,0.4,2.1,1.1,2.8
		c0.7,0.7,1.7,1,2.9,1c1.3,0,2.3-0.3,3-1c0.7-0.7,1-1.6,1-2.8c0-1.3-0.4-2.3-1.1-3c-0.7-0.7-1.7-1-3-1c-1.2,0-2.2,0.4-2.9,1.1
		C236.5,79,236.2,80,236.2,81.2L236.2,81.2L236.2,81.2z"/>
	<path class="st1" d="M252.1,91.9h-1.4V76.4h1.4V91.9L252.1,91.9L252.1,91.9z M250.5,72.1c0-0.9,0.3-1.4,0.9-1.4
		c0.3,0,0.5,0.1,0.7,0.4c0.2,0.2,0.2,0.6,0.2,1c0,0.4-0.1,0.8-0.2,1c-0.2,0.2-0.4,0.4-0.7,0.4C250.8,73.5,250.5,73,250.5,72.1
		L250.5,72.1L250.5,72.1z"/>
	<polygon class="st1" points="266.9,91.9 255.8,91.9 255.8,91 265,77.6 256.5,77.6 256.5,76.4 266.9,76.4 266.9,77.3 257.6,90.7 
		266.9,90.7 266.9,91.9 	"/>
	<path class="st1" d="M277,92.2c-2.3,0-4-0.7-5.3-2.1c-1.3-1.4-1.9-3.3-1.9-5.8c0-2.5,0.6-4.4,1.8-5.9c1.2-1.5,2.9-2.2,4.9-2.2
		c1.8,0,3.3,0.6,4.3,1.9c1.1,1.3,1.6,3,1.6,5.2v1.1l-11.1,0c0,2.1,0.5,3.8,1.5,4.9c1,1.1,2.4,1.7,4.2,1.7c0.9,0,1.7-0.1,2.3-0.2
		c0.7-0.1,1.5-0.4,2.5-0.8v1.3c-0.9,0.4-1.7,0.6-2.4,0.8C278.6,92.1,277.8,92.2,277,92.2L277,92.2L277,92.2z M276.5,77.3
		c-1.5,0-2.7,0.5-3.6,1.5c-0.9,1-1.4,2.4-1.6,4.3h9.6c0-1.8-0.4-3.2-1.2-4.2C279,77.9,277.9,77.3,276.5,77.3L276.5,77.3L276.5,77.3z
		"/>
	<path class="st1" d="M291.7,76.4h1.4l3.3,8.7c1,2.7,1.6,4.5,1.9,5.4h0.1c0.4-1.2,1.1-3,2-5.5l3.3-8.6h1.4l-6.9,18
		c-0.6,1.5-1,2.4-1.4,3c-0.4,0.5-0.8,0.9-1.3,1.1c-0.5,0.3-1.1,0.4-1.8,0.4c-0.5,0-1.1-0.1-1.8-0.3v-1.2c0.5,0.2,1.1,0.2,1.8,0.2
		c0.5,0,0.9-0.1,1.3-0.3c0.4-0.2,0.7-0.6,1-1.1c0.3-0.5,0.6-1.2,1-2.3c0.4-1,0.6-1.7,0.8-2L291.7,76.4L291.7,76.4L291.7,76.4z"/>
	<path class="st1" d="M320.4,84.1c0,2.5-0.6,4.5-1.8,5.9c-1.2,1.4-2.9,2.1-5.1,2.1c-1.4,0-2.6-0.3-3.6-1c-1-0.7-1.8-1.6-2.4-2.8
		c-0.5-1.2-0.8-2.6-0.8-4.2c0-2.5,0.6-4.5,1.8-5.9c1.2-1.4,2.9-2.1,5-2.1c2.1,0,3.8,0.7,5,2.1C319.8,79.7,320.4,81.6,320.4,84.1
		L320.4,84.1L320.4,84.1z M308.2,84.1c0,2.1,0.5,3.8,1.4,5c0.9,1.2,2.3,1.8,4,1.8c1.7,0,3-0.6,4-1.8c0.9-1.2,1.4-2.8,1.4-5
		c0-2.1-0.5-3.8-1.4-5c-0.9-1.2-2.3-1.8-4-1.8c-1.7,0-3,0.6-3.9,1.8C308.7,80.3,308.2,82,308.2,84.1L308.2,84.1L308.2,84.1z"/>
	<path class="st1" d="M325.9,76.4v10c0,1.6,0.3,2.7,1,3.4c0.7,0.7,1.7,1.1,3,1.1c1.8,0,3.2-0.5,4.1-1.4c0.9-0.9,1.3-2.4,1.3-4.5
		v-8.5h1.4v15.5h-1.2l-0.3-2.1h-0.1c-1,1.6-2.8,2.4-5.4,2.4c-3.5,0-5.3-1.9-5.3-5.7V76.4L325.9,76.4L325.9,76.4L325.9,76.4z"/>
	<path class="st1" d="M348,76.1c0.7,0,1.4,0.1,2.1,0.2l-0.3,1.4c-0.6-0.2-1.3-0.2-2-0.2c-1.3,0-2.4,0.6-3.2,1.7
		c-0.8,1.1-1.3,2.5-1.3,4.2v8.5h-1.4V76.4h1.2l0.2,2.8h0.1c0.6-1.1,1.3-1.9,2-2.4C346.1,76.3,347,76.1,348,76.1L348,76.1L348,76.1z"
		/>
	<path class="st1" d="M367.3,76.1c2.2,0,3.8,0.7,4.9,2c1.1,1.4,1.7,3.3,1.7,6c0,2.6-0.6,4.5-1.7,6c-1.1,1.4-2.8,2.1-4.8,2.1
		c-1.1,0-2.1-0.2-3-0.7c-0.9-0.5-1.6-1.1-2.1-1.9l-0.1,0l-0.4,2.3h-0.9V69.7h1.4v5.6c0,0.8,0,1.6-0.1,2.3l0,1.2h0.1
		c0.6-0.9,1.3-1.6,2.1-2C365.2,76.3,366.2,76.1,367.3,76.1L367.3,76.1L367.3,76.1z M367.3,77.4c-1.8,0-3.1,0.5-3.9,1.6
		c-0.8,1.1-1.2,2.8-1.2,5.2v0.2c0,2.3,0.4,4,1.2,5c0.8,1,2.1,1.5,3.8,1.5c1.7,0,3-0.6,3.8-1.8c0.8-1.2,1.3-2.9,1.3-5.1
		C372.4,79.6,370.7,77.4,367.3,77.4L367.3,77.4L367.3,77.4z"/>
	<path class="st1" d="M384.2,76.1c0.7,0,1.4,0.1,2.1,0.2l-0.3,1.4c-0.6-0.2-1.3-0.2-2-0.2c-1.3,0-2.4,0.6-3.2,1.7
		c-0.8,1.1-1.3,2.5-1.3,4.2v8.5h-1.4V76.4h1.2l0.1,2.8h0.1c0.6-1.1,1.3-1.9,2-2.4C382.3,76.3,383.2,76.1,384.2,76.1L384.2,76.1
		L384.2,76.1z"/>
	<path class="st1" d="M398.3,91.9l-0.4-2.4h-0.1c-0.8,1-1.6,1.7-2.4,2.1c-0.8,0.4-1.8,0.6-2.9,0.6c-1.5,0-2.7-0.4-3.6-1.2
		c-0.8-0.8-1.3-1.9-1.3-3.2c0-1.5,0.6-2.7,1.9-3.5c1.3-0.8,3.1-1.3,5.5-1.3l3-0.1v-1c0-1.5-0.3-2.6-0.9-3.3
		c-0.6-0.8-1.6-1.1-2.9-1.1c-1.4,0-2.9,0.4-4.5,1.2l-0.5-1.2c1.7-0.8,3.4-1.2,5-1.2c1.7,0,3,0.4,3.8,1.3c0.8,0.9,1.3,2.3,1.3,4.1
		v10.3L398.3,91.9L398.3,91.9L398.3,91.9z M392.6,90.9c1.7,0,3-0.5,3.9-1.4c1-0.9,1.4-2.3,1.4-3.9V84l-2.7,0.1
		c-2.2,0.1-3.7,0.5-4.6,1c-0.9,0.6-1.4,1.5-1.4,2.7c0,1,0.3,1.7,0.9,2.3C390.7,90.6,391.5,90.9,392.6,90.9L392.6,90.9L392.6,90.9z"
		/>
	<path class="st1" d="M415.1,91.9v-10c0-1.6-0.3-2.7-1-3.4c-0.7-0.7-1.7-1.1-3-1.1c-1.8,0-3.2,0.5-4.1,1.4c-0.9,0.9-1.3,2.4-1.3,4.5
		v8.5h-1.4V76.4h1.2l0.3,2.1h0.1c1-1.6,2.8-2.4,5.4-2.4c3.5,0,5.3,1.9,5.3,5.7v10.1H415.1L415.1,91.9L415.1,91.9z"/>
	<path class="st1" d="M427.2,76.1c1.1,0,2.1,0.2,2.9,0.6c0.8,0.4,1.5,1.1,2.2,2.1h0.1c-0.1-1.2-0.1-2.4-0.1-3.5v-5.6h1.4v22.1h-0.9
		l-0.4-2.3h-0.1c-1.2,1.8-2.9,2.7-5.1,2.7c-2.1,0-3.8-0.7-4.9-2c-1.1-1.3-1.7-3.3-1.7-5.8c0-2.7,0.6-4.7,1.7-6.1
		C423.4,76.8,425.1,76.1,427.2,76.1L427.2,76.1L427.2,76.1z M427.2,77.4c-1.7,0-3,0.6-3.8,1.8c-0.8,1.2-1.3,2.9-1.3,5.2
		c0,4.4,1.7,6.6,5.1,6.6c1.7,0,3-0.5,3.8-1.5c0.8-1,1.2-2.7,1.2-5v-0.2c0-2.4-0.4-4.1-1.2-5.2C430.3,77.9,429,77.4,427.2,77.4
		L427.2,77.4L427.2,77.4z"/>
</g>
</svg>
