<?xml version="1.0" encoding="utf-8"?>
<!-- Generator: Adobe Illustrator 23.0.6, SVG Export Plug-In . SVG Version: 6.00 Build 0)  -->
<svg version="1.1" id="Layer_1" xmlns="http://www.w3.org/2000/svg" xmlns:xlink="http://www.w3.org/1999/xlink" x="0px" y="0px"
	 viewBox="0 0 435.6 86" style="enable-background:new 0 0 435.6 86;" xml:space="preserve">
<style type="text/css">
	.st0{fill-rule:evenodd;clip-rule:evenodd;fill:url(#SVGID_1_);}
</style>
<linearGradient id="SVGID_1_" gradientUnits="userSpaceOnUse" x1="1.7" y1="-717.1283" x2="434.6851" y2="-717.1283" gradientTransform="matrix(1 0 0 -1 0 -674.1102)">
	<stop  offset="0" style="stop-color:#81D5D3"/>
	<stop  offset="1" style="stop-color:#009E8B"/>
</linearGradient>
<path class="st0" d="M64.4,48.2c-6,0-8-6.2-8-11.2c0-5.2,1.7-11.6,8.2-11.6C71,25.4,73,31.6,73,37S70.9,48.2,64.4,48.2L64.4,48.2z
	 M174.3,26.1v1.7c1.7,0,5.2-0.2,5.8,1.9c0.4,1.3,0.4,7.7,0.4,9.4v12c0,5.6,0.4,7.5-5.8,8v1.5c3.4,0,6.6-0.2,9.7-0.4
	c3,0,6.2,0.2,9,0.4v-1.7c-6.6-0.4-5.8-3-5.8-8.4v-27L174.3,26.1L174.3,26.1z M183.1,13c2.4,0,4.3-2.1,4.3-4.5S185.5,4,182.9,4
	c-2.4,0-4.5,2.1-4.5,4.5C178.4,11.1,180.6,13,183.1,13L183.1,13z M1.7,26.1v1.7c1.7,0,5.2-0.2,5.8,1.9c0.4,1.3,0.4,7.7,0.4,9.4v12
	c0,5.6,0.4,7.5-5.8,8v1.5c3.4,0,6.6-0.2,9.7-0.4c3,0,6.2,0.2,9,0.4v-1.7c-6.6-0.4-5.8-3-5.8-8.4v-27L1.7,26.1L1.7,26.1z M10.5,13
	c2.4,0,4.3-2.1,4.3-4.5S12.9,4,10.3,4S5.8,6.1,5.8,8.5C5.8,11.1,8,13,10.5,13L10.5,13z M378.3,24.2c-2.1,0-4.3,0.2-6.6,0.4
	c-2.4,0-4.7-0.2-6.9-0.4v1.7c6.9,0.9,6.4,3,6.4,9.4v14.4c0,7.3,3.2,12,11.6,12c5.4,0,10.7-3,13.7-7.5v-4.9
	c-1.1,5.4-5.4,9.7-11.2,9.7c-6.6,0-6.9-6.7-6.9-11.6V24.2H378.3z M42.3,35.1c0-8-4.5-11.6-12.5-11.6c-5.6,0-10.1,2.2-12.9,6.9v5.4
	c0.7-5.4,4.7-9.7,10.7-9.7c8,0,7.7,8.2,7.7,14v10.7c0,5.6,0.4,7.5-5.8,8v1.7c3.4,0,6.6-0.2,9.7-0.4c3,0,6.2,0.2,9.2,0.4v-1.7
	c-6.6-0.4-5.8-3-5.8-8.4L42.3,35.1L42.3,35.1z M404.9,36.8c0-2.1,0.2-4.5,0.9-6.2c1.5-2.8,5.2-4.3,8.2-4.3c9.2,0,12,8.6,12,16.3
	c0,8-2.6,16.7-12.2,16.7c-6,0-9-3.2-9-8.8L404.9,36.8L404.9,36.8z M404.9,3.3l-13.5,2.6v1.7c1.9,0.2,4.5,0,5.4,2.2
	c0.7,1.7,0.7,6.9,0.7,9v42.3h1.1l3.9-4.9c3,3.6,8.2,5.4,12.7,5.4c10.9,0,18.7-8.6,18.7-19.3c0-10.3-7.5-18.7-18.2-18.7
	c-4.7,0-8.2,1.5-11.4,4.7v-25H404.9z M337.3,3.3l-13.5,2.6v1.7c1.9,0.2,4.5,0,5.4,2.2c0.7,1.7,0.7,6.9,0.7,9V51c0,5.6,0.4,7.5-5.8,8
	v1.5c3.2,0,6.4-0.2,9.5-0.4c3.2,0,6.2,0.2,9.2,0.4v-1.7c-6.6-0.4-5.8-3-5.8-8.4v-9.2c0-3.2,0.2-6.6,1.5-9.2c1.7-3.4,5.8-5.8,9.4-5.8
	c7.1,0,7.7,6.9,7.7,12.4V51c0,5.6,0.6,7.5-5.8,8v1.5c2.8,0,6-0.2,9-0.4c3.4,0,6.4,0.2,9.7,0.4v-1.7c-6.6-0.4-5.8-3-5.8-8.4V35.3
	c0-8-4.7-11.8-12.5-11.8c-5.4,0-10.1,2.6-12.9,7.3h-0.2V3.3H337.3z M291.1,58.5c2.4,2.1,6,3,9.2,3c6.4,0,12.4-4.1,12.4-11
	c0-7.5-5.2-9.7-11-12.7c-3.2-1.7-7.9-3.4-7.9-7.7c0-3,2.6-4.7,5.4-4.7c5.2,0,7.1,4.5,8.6,8.6h1.7l0.2-10.5h-0.9l-1.7,2.1
	c-2.4-1.3-5.6-2.1-8-2.1c-5.8,0-10.5,4.3-10.5,10.1c0,6.4,5.2,9,10.1,11.6c3.6,1.9,8.4,3.7,8.4,8.6c0,4.1-3.4,5.8-7.1,5.8
	c-6.2,0-9-5.2-10.5-10.7h-1.7l0.4,12h0.7L291.1,58.5L291.1,58.5z M251.6,24.2c-2.1,0-4.3,0.2-6.6,0.4c-2.4,0-4.7-0.2-6.9-0.4v1.7
	c6.9,0.9,6.4,3,6.4,9.4v14.4c0,7.3,3.2,12,11.6,12c5.6,0,11-3.4,14-7.9l1.7,7.9l11.6-3v-1.9c-1.1,0-2.2,0.2-3.2,0.2
	c-3.2,0-3.2-3.4-3.2-5.6V24.2c-2.1,0.2-4.3,0.2-6.6,0.4c-2.4-0.2-4.7-0.2-6.9-0.4v1.7c6.9,0.9,6.4,3,6.4,9.4v11.2
	c0,6.6-4.9,12.4-11.4,12.4c-6.6,0-6.9-6.7-6.9-11.6V24.2L251.6,24.2z M216,23.5c-10.3,0-20.2,7.9-20.2,18.5c0,11,9.2,19.5,20.2,19.5
	s20.2-7.9,20.2-19.1C236.2,31.5,226.3,23.5,216,23.5L216,23.5z M215.6,25.3c9.9,0,12.2,9.4,12.2,17.4c0,7.5-2.2,16.7-11.4,16.7
	c-9.7,0-12.2-9.2-12.2-17.2C204.2,35.1,206.5,25.3,215.6,25.3L215.6,25.3z M164.9,35.1c0-8-4.5-11.6-12.5-11.6
	c-6,0-10.5,2.4-13.5,7.7h-0.2l-1.1-7.7c-4.1,0.7-7.1,2.1-11.6,2.6v1.7c2.6,0,4.9-0.4,5.6,2.6c0.4,1.9,0.4,7.9,0.4,10.1v10.3
	c0,5.6,0.4,7.5-5.8,8v1.7c3.4,0,6.4-0.2,9.7-0.4c3,0,6.2,0.2,9.2,0.4v-1.7c-6.6-0.4-5.8-3-5.8-8.4V37.5c0-6.2,4.1-11.2,10.7-11.2
	c8,0,7.7,8.2,7.7,14V51c0,5.6,0.4,7.5-5.8,8v1.5c3.4,0,6.4-0.2,9.7-0.4c3,0,6.2,0.2,9.2,0.4v-1.7c-6.6-0.4-5.8-3-5.8-8.4L164.9,35.1
	L164.9,35.1z M121.1,52.5c-2.4,3.4-6.4,6.2-10.5,6.2c-9,0-13.1-9-13.1-16.8l0.4-3.9h24c0.7,0,2.1,0.4,2.1-0.7
	c0-9-7.9-13.7-16.1-13.7C97,23.6,89,33.1,89,43.6c0,10.7,8.6,18,18.9,18c6.4,0,11-2.2,15-7.1L121.1,52.5L121.1,52.5z M98.3,35.6
	c0.9-5.4,3.6-10.3,9.7-10.3c5.2,0,8,3.4,8,8.6c0,2.1-2.8,1.7-4.1,1.7H98.3L98.3,35.6z M61.4,56.4c-1.9-0.2-6.6,0.2-6.6-2.8
	c0-3.4,6.6-3.4,9-3.6c8.6-0.4,16.1-3.4,16.1-13.1c0-3-0.9-6-3-8.2c0.9-0.7,2.2-1.7,3.4-1.7c2.6,0,2.8,3,5.4,3c1.5,0,2.8-1.3,2.8-2.8
	c0-2.6-2.8-3.6-4.9-3.6c-3,0-5.8,1.7-8,3.6c-2.8-2.6-6.7-3.7-10.7-3.7c-8.2,0-15.7,4.7-15.7,13.7c0,5.4,4.1,9.9,9,11.6V49
	c-3.6,0.6-7.3,3.2-7.3,7.1c0,7.5,7.7,7.3,13.1,7.5c5.8,0.4,15,0,15,8c0,6.7-6.4,9.4-12.2,9.4s-13.3-1.5-13.3-8.8
	c0-2.6,1.5-5.4,4.3-6c-0.9-0.9-2.1-1.5-3.6-1.5c-3.6,0-6.2,3.6-6.2,6.9c0.1,8.8,10.8,11.2,17.7,11.2c9.2,0,19.1-3.4,19.1-14
	c0-11.2-9-11.6-17.6-12.2L61.4,56.4L61.4,56.4z"/>
</svg>
